<svg width="191" height="42" viewBox="0 0 191 42" fill="none" xmlns="http://www.w3.org/2000/svg">
<path d="M7.36063 10.408V9.384L12.8646 1.48H14.7206V9.16H16.2726V10.408H14.7206V13H13.3126V10.408H7.36063ZM13.3606 2.824L9.05663 9.16H13.3606V2.824ZM24.6693 6.52V7.768H18.2853V6.52H24.6693ZM30.9879 4.072C31.7345 4.072 32.3852 4.248 32.9399 4.6C33.5052 4.952 33.9319 5.41067 34.2199 5.976V1.16H35.6919V13H34.2199V11.208C33.9319 11.784 33.5052 12.2533 32.9399 12.616C32.3852 12.968 31.7345 13.144 30.9879 13.144C30.1985 13.144 29.4839 12.952 28.8439 12.568C28.2145 12.1733 27.7132 11.6293 27.3399 10.936C26.9772 10.232 26.7959 9.43733 26.7959 8.552C26.7959 7.66667 26.9772 6.888 27.3399 6.216C27.7132 5.53333 28.2145 5.00533 28.8439 4.632C29.4839 4.25867 30.1985 4.072 30.9879 4.072ZM31.2439 5.336C30.7212 5.336 30.2305 5.464 29.7719 5.72C29.3239 5.976 28.9612 6.34933 28.6839 6.84C28.4172 7.32 28.2839 7.89067 28.2839 8.552C28.2839 9.21333 28.4172 9.8 28.6839 10.312C28.9612 10.8133 29.3239 11.2027 29.7719 11.48C30.2305 11.7573 30.7212 11.896 31.2439 11.896C31.7772 11.896 32.2679 11.7627 32.7159 11.496C33.1745 11.2293 33.5372 10.8507 33.8039 10.36C34.0812 9.85867 34.2199 9.27733 34.2199 8.616C34.2199 7.95467 34.0812 7.37867 33.8039 6.888C33.5372 6.38667 33.1745 6.00267 32.7159 5.736C32.2679 5.46933 31.7772 5.336 31.2439 5.336ZM37.8506 1.816C37.8506 1.53867 37.9466 1.304 38.1386 1.112C38.3306 0.919999 38.56 0.823999 38.8266 0.823999C39.104 0.823999 39.3386 0.919999 39.5306 1.112C39.7226 1.304 39.8186 1.53867 39.8186 1.816C39.8186 2.09333 39.7226 2.328 39.5306 2.52C39.3386 2.712 39.104 2.808 38.8266 2.808C38.5493 2.808 38.3146 2.712 38.1226 2.52C37.9413 2.328 37.8506 2.09333 37.8506 1.816ZM39.5466 4.216V13H38.0906V4.216H39.5466ZM45.566 4.072C46.3127 4.072 46.9633 4.248 47.518 4.6C48.0833 4.952 48.51 5.41067 48.798 5.976V4.216H50.27V13.224C50.27 14.024 50.094 14.7333 49.742 15.352C49.39 15.9707 48.894 16.4507 48.254 16.792C47.614 17.144 46.8727 17.32 46.03 17.32C45.294 17.32 44.622 17.192 44.014 16.936C43.406 16.6907 42.91 16.3387 42.526 15.88C42.142 15.4213 41.9127 14.8987 41.838 14.312H43.262C43.4007 14.8133 43.726 15.2293 44.238 15.56C44.75 15.8907 45.3473 16.056 46.03 16.056C46.862 16.056 47.5287 15.8053 48.03 15.304C48.542 14.8133 48.798 14.12 48.798 13.224V11.208C48.51 11.784 48.0833 12.2533 47.518 12.616C46.9633 12.968 46.3127 13.144 45.566 13.144C44.7767 13.144 44.062 12.952 43.422 12.568C42.7927 12.1733 42.2913 11.6293 41.918 10.936C41.5553 10.232 41.374 9.43733 41.374 8.552C41.374 7.66667 41.5553 6.888 41.918 6.216C42.2913 5.53333 42.7927 5.00533 43.422 4.632C44.062 4.25867 44.7767 4.072 45.566 4.072ZM45.822 5.336C45.2993 5.336 44.8087 5.464 44.35 5.72C43.902 5.976 43.5393 6.34933 43.262 6.84C42.9953 7.32 42.862 7.89067 42.862 8.552C42.862 9.21333 42.9953 9.8 43.262 10.312C43.5393 10.8133 43.902 11.2027 44.35 11.48C44.8087 11.7573 45.2993 11.896 45.822 11.896C46.3553 11.896 46.846 11.7627 47.294 11.496C47.7527 11.2293 48.1153 10.8507 48.382 10.36C48.6593 9.85867 48.798 9.27733 48.798 8.616C48.798 7.95467 48.6593 7.37867 48.382 6.888C48.1153 6.38667 47.7527 6.00267 47.294 5.736C46.846 5.46933 46.3553 5.336 45.822 5.336ZM52.4288 1.816C52.4288 1.53867 52.5248 1.304 52.7168 1.112C52.9088 0.919999 53.1381 0.823999 53.4048 0.823999C53.6821 0.823999 53.9168 0.919999 54.1088 1.112C54.3008 1.304 54.3968 1.53867 54.3968 1.816C54.3968 2.09333 54.3008 2.328 54.1088 2.52C53.9168 2.712 53.6821 2.808 53.4048 2.808C53.1274 2.808 52.8928 2.712 52.7008 2.52C52.5194 2.328 52.4288 2.09333 52.4288 1.816ZM54.1248 4.216V13H52.6688V4.216H54.1248ZM60.6081 11.816V13H59.1361C58.3895 13 57.8188 12.8187 57.4241 12.456C57.0401 12.0933 56.8481 11.5227 56.8481 10.744V5.4H55.7121V4.216H56.8481V2.04H58.3201V4.216H60.5921V5.4H58.3201V10.744C58.3201 11.1387 58.4001 11.416 58.5601 11.576C58.7201 11.736 59.0028 11.816 59.4081 11.816H60.6081ZM68.4685 5.704C68.9912 4.616 69.8818 4.072 71.1405 4.072V5.592H70.7565C70.0098 5.592 69.4392 5.78933 69.0445 6.184C68.6605 6.568 68.4685 7.24 68.4685 8.2V13H67.0125V4.216H68.4685V5.704ZM80.8711 8.248C80.8711 8.55733 80.8498 8.84533 80.8071 9.112H73.8151C73.8578 9.98667 74.1298 10.68 74.6311 11.192C75.1431 11.6933 75.7938 11.944 76.5831 11.944C77.1805 11.944 77.6818 11.8107 78.0871 11.544C78.5031 11.2773 78.8071 10.9253 78.9991 10.488H80.5671C80.2898 11.256 79.8098 11.8907 79.1271 12.392C78.4551 12.8933 77.6071 13.144 76.5831 13.144C75.7618 13.144 75.0258 12.9573 74.3751 12.584C73.7351 12.2107 73.2338 11.6827 72.8711 11C72.5085 10.3067 72.3271 9.512 72.3271 8.616C72.3271 7.70933 72.5085 6.91467 72.8711 6.232C73.2338 5.53867 73.7458 5.00533 74.4071 4.632C75.0685 4.25867 75.8311 4.072 76.6951 4.072C77.5165 4.072 78.2418 4.25333 78.8711 4.616C79.5005 4.97867 79.9911 5.47467 80.3431 6.104C80.6951 6.73333 80.8711 7.448 80.8711 8.248ZM79.3511 8.056C79.3511 7.49067 79.2285 7 78.9831 6.584C78.7378 6.15733 78.4018 5.832 77.9751 5.608C77.5591 5.384 77.0951 5.272 76.5831 5.272C75.8258 5.272 75.1911 5.52267 74.6791 6.024C74.1671 6.51467 73.8845 7.192 73.8311 8.056H79.3511ZM85.7084 4.072C86.6577 4.072 87.4097 4.32267 87.9644 4.824C88.519 5.31467 88.823 5.992 88.8764 6.856H87.3724C87.351 6.36533 87.1857 5.97067 86.8764 5.672C86.567 5.37333 86.1404 5.224 85.5964 5.224C85.0417 5.224 84.6044 5.35733 84.2844 5.624C83.975 5.88 83.8204 6.20533 83.8204 6.6C83.8204 6.93067 83.9164 7.19733 84.1084 7.4C84.311 7.592 84.5564 7.736 84.8444 7.832C85.143 7.928 85.543 8.02933 86.0444 8.136C86.6844 8.28533 87.1964 8.43467 87.5804 8.584C87.975 8.72267 88.311 8.96267 88.5884 9.304C88.8657 9.63467 89.0044 10.088 89.0044 10.664C89.0044 11.144 88.8657 11.576 88.5884 11.96C88.311 12.3333 87.9217 12.6267 87.4204 12.84C86.919 13.0427 86.343 13.144 85.6924 13.144C84.711 13.144 83.9217 12.8987 83.3244 12.408C82.7377 11.9173 82.4177 11.24 82.3644 10.376H83.8684C83.8897 10.8667 84.0604 11.2613 84.3804 11.56C84.711 11.848 85.1484 11.992 85.6924 11.992C86.2897 11.992 86.7484 11.8693 87.0684 11.624C87.399 11.3787 87.5644 11.0533 87.5644 10.648C87.5644 10.3173 87.463 10.056 87.2604 9.864C87.0684 9.66133 86.823 9.512 86.5244 9.416C86.2257 9.30933 85.815 9.19733 85.2924 9.08C84.663 8.94133 84.151 8.80267 83.7564 8.664C83.3724 8.51467 83.0417 8.28533 82.7644 7.976C82.4977 7.66667 82.3644 7.24 82.3644 6.696C82.3644 6.216 82.4977 5.77867 82.7644 5.384C83.0417 4.97867 83.431 4.65867 83.9324 4.424C84.4444 4.18933 85.0364 4.072 85.7084 4.072ZM99.0743 8.248C99.0743 8.55733 99.0529 8.84533 99.0103 9.112H92.0182C92.0609 9.98667 92.3329 10.68 92.8343 11.192C93.3463 11.6933 93.9969 11.944 94.7863 11.944C95.3836 11.944 95.8849 11.8107 96.2903 11.544C96.7063 11.2773 97.0103 10.9253 97.2023 10.488H98.7703C98.4929 11.256 98.0129 11.8907 97.3303 12.392C96.6583 12.8933 95.8103 13.144 94.7863 13.144C93.9649 13.144 93.2289 12.9573 92.5783 12.584C91.9383 12.2107 91.4369 11.6827 91.0743 11C90.7116 10.3067 90.5303 9.512 90.5303 8.616C90.5303 7.70933 90.7116 6.91467 91.0743 6.232C91.4369 5.53867 91.9489 5.00533 92.6103 4.632C93.2716 4.25867 94.0343 4.072 94.8983 4.072C95.7196 4.072 96.4449 4.25333 97.0743 4.616C97.7036 4.97867 98.1943 5.47467 98.5463 6.104C98.8983 6.73333 99.0743 7.448 99.0743 8.248ZM97.5543 8.056C97.5543 7.49067 97.4316 7 97.1863 6.584C96.9409 6.15733 96.6049 5.832 96.1783 5.608C95.7623 5.384 95.2983 5.272 94.7863 5.272C94.0289 5.272 93.3943 5.52267 92.8823 6.024C92.3703 6.51467 92.0876 7.192 92.0343 8.056H97.5543ZM104.968 11.816V13H103.496C102.749 13 102.178 12.8187 101.784 12.456C101.4 12.0933 101.208 11.5227 101.208 10.744V5.4H100.072V4.216H101.208V2.04H102.68V4.216H104.952V5.4H102.68V10.744C102.68 11.1387 102.76 11.416 102.92 11.576C103.08 11.736 103.362 11.816 103.768 11.816H104.968ZM115.052 4.072C116.108 4.072 116.967 4.31733 117.628 4.808C118.3 5.29867 118.769 5.99733 119.036 6.904H117.468C117.297 6.392 117.004 5.992 116.588 5.704C116.172 5.416 115.66 5.272 115.052 5.272C114.22 5.272 113.548 5.56533 113.036 6.152C112.535 6.728 112.284 7.54933 112.284 8.616C112.284 9.672 112.535 10.4933 113.036 11.08C113.548 11.656 114.22 11.944 115.052 11.944C115.671 11.944 116.183 11.8053 116.588 11.528C116.993 11.2507 117.287 10.8453 117.468 10.312H119.036C118.769 11.176 118.295 11.864 117.612 12.376C116.94 12.888 116.087 13.144 115.052 13.144C114.231 13.144 113.495 12.9573 112.844 12.584C112.204 12.2107 111.703 11.6827 111.34 11C110.977 10.3067 110.796 9.512 110.796 8.616C110.796 7.70933 110.977 6.91467 111.34 6.232C111.703 5.53867 112.204 5.00533 112.844 4.632C113.484 4.25867 114.22 4.072 115.052 4.072ZM124.822 4.072C125.654 4.072 126.406 4.25867 127.078 4.632C127.75 5.00533 128.278 5.53867 128.662 6.232C129.056 6.92533 129.254 7.72 129.254 8.616C129.254 9.50133 129.051 10.2907 128.646 10.984C128.24 11.6667 127.691 12.2 126.998 12.584C126.304 12.9573 125.536 13.144 124.694 13.144C123.872 13.144 123.131 12.9573 122.47 12.584C121.819 12.2107 121.307 11.6827 120.934 11C120.571 10.3067 120.39 9.512 120.39 8.616C120.39 7.70933 120.582 6.91467 120.966 6.232C121.36 5.53867 121.894 5.00533 122.566 4.632C123.238 4.25867 123.99 4.072 124.822 4.072ZM124.774 5.272C124.24 5.272 123.755 5.4 123.318 5.656C122.88 5.912 122.528 6.29067 122.262 6.792C122.006 7.29333 121.878 7.90133 121.878 8.616C121.878 9.32 122 9.92267 122.246 10.424C122.502 10.9253 122.843 11.304 123.27 11.56C123.696 11.816 124.171 11.944 124.694 11.944C125.227 11.944 125.723 11.816 126.182 11.56C126.651 11.2933 127.03 10.9093 127.318 10.408C127.606 9.90667 127.75 9.30933 127.75 8.616C127.75 7.912 127.611 7.30933 127.334 6.808C127.067 6.296 126.704 5.912 126.246 5.656C125.798 5.4 125.307 5.272 124.774 5.272ZM134.691 4.072C135.438 4.072 136.088 4.248 136.643 4.6C137.208 4.952 137.635 5.41067 137.923 5.976V1.16H139.395V13H137.923V11.208C137.635 11.784 137.208 12.2533 136.643 12.616C136.088 12.968 135.438 13.144 134.691 13.144C133.902 13.144 133.187 12.952 132.547 12.568C131.918 12.1733 131.416 11.6293 131.043 10.936C130.68 10.232 130.499 9.43733 130.499 8.552C130.499 7.66667 130.68 6.888 131.043 6.216C131.416 5.53333 131.918 5.00533 132.547 4.632C133.187 4.25867 133.902 4.072 134.691 4.072ZM134.947 5.336C134.424 5.336 133.934 5.464 133.475 5.72C133.027 5.976 132.664 6.34933 132.387 6.84C132.12 7.32 131.987 7.89067 131.987 8.552C131.987 9.21333 132.12 9.8 132.387 10.312C132.664 10.8133 133.027 11.2027 133.475 11.48C133.934 11.7573 134.424 11.896 134.947 11.896C135.48 11.896 135.971 11.7627 136.419 11.496C136.878 11.2293 137.24 10.8507 137.507 10.36C137.784 9.85867 137.923 9.27733 137.923 8.616C137.923 7.95467 137.784 7.37867 137.507 6.888C137.24 6.38667 136.878 6.00267 136.419 5.736C135.971 5.46933 135.48 5.336 134.947 5.336ZM149.762 8.248C149.762 8.55733 149.74 8.84533 149.698 9.112H142.706C142.748 9.98667 143.02 10.68 143.522 11.192C144.034 11.6933 144.684 11.944 145.474 11.944C146.071 11.944 146.572 11.8107 146.978 11.544C147.394 11.2773 147.698 10.9253 147.89 10.488H149.458C149.18 11.256 148.7 11.8907 148.018 12.392C147.346 12.8933 146.498 13.144 145.474 13.144C144.652 13.144 143.916 12.9573 143.266 12.584C142.626 12.2107 142.124 11.6827 141.762 11C141.399 10.3067 141.218 9.512 141.218 8.616C141.218 7.70933 141.399 6.91467 141.762 6.232C142.124 5.53867 142.636 5.00533 143.298 4.632C143.959 4.25867 144.722 4.072 145.586 4.072C146.407 4.072 147.132 4.25333 147.762 4.616C148.391 4.97867 148.882 5.47467 149.234 6.104C149.586 6.73333 149.762 7.448 149.762 8.248ZM148.242 8.056C148.242 7.49067 148.119 7 147.874 6.584C147.628 6.15733 147.292 5.832 146.866 5.608C146.45 5.384 145.986 5.272 145.474 5.272C144.716 5.272 144.082 5.52267 143.57 6.024C143.058 6.51467 142.775 7.192 142.722 8.056H148.242ZM160.692 4.072C161.321 4.072 161.892 4.216 162.404 4.504C162.927 4.78133 163.337 5.20267 163.636 5.768C163.945 6.32267 164.1 7 164.1 7.8V13H162.66V8.04C162.66 7.15467 162.447 6.48267 162.02 6.024C161.593 5.56533 161.001 5.336 160.244 5.336C159.497 5.336 158.905 5.56533 158.468 6.024C158.041 6.48267 157.828 7.15467 157.828 8.04V13H156.372V1.16H157.828V5.64C158.116 5.128 158.511 4.73867 159.012 4.472C159.513 4.20533 160.073 4.072 160.692 4.072ZM170.035 4.072C170.781 4.072 171.432 4.248 171.987 4.6C172.552 4.952 172.979 5.41067 173.267 5.976V4.216H174.739V13H173.267V11.208C172.979 11.784 172.552 12.2533 171.987 12.616C171.432 12.968 170.781 13.144 170.035 13.144C169.245 13.144 168.531 12.952 167.891 12.568C167.261 12.1733 166.76 11.6293 166.387 10.936C166.024 10.232 165.843 9.43733 165.843 8.552C165.843 7.66667 166.024 6.888 166.387 6.216C166.76 5.53333 167.261 5.00533 167.891 4.632C168.531 4.25867 169.245 4.072 170.035 4.072ZM170.291 5.336C169.768 5.336 169.277 5.464 168.819 5.72C168.371 5.976 168.008 6.34933 167.731 6.84C167.464 7.32 167.331 7.89067 167.331 8.552C167.331 9.21333 167.464 9.8 167.731 10.312C168.008 10.8133 168.371 11.2027 168.819 11.48C169.277 11.7573 169.768 11.896 170.291 11.896C170.824 11.896 171.315 11.7627 171.763 11.496C172.221 11.2293 172.584 10.8507 172.851 10.36C173.128 9.85867 173.267 9.27733 173.267 8.616C173.267 7.95467 173.128 7.37867 172.851 6.888C172.584 6.38667 172.221 6.00267 171.763 5.736C171.315 5.46933 170.824 5.336 170.291 5.336ZM180.161 4.072C181.111 4.072 181.863 4.32267 182.418 4.824C182.972 5.31467 183.276 5.992 183.33 6.856H181.826C181.804 6.36533 181.639 5.97067 181.33 5.672C181.02 5.37333 180.594 5.224 180.049 5.224C179.495 5.224 179.058 5.35733 178.738 5.624C178.428 5.88 178.274 6.20533 178.274 6.6C178.274 6.93067 178.37 7.19733 178.562 7.4C178.764 7.592 179.01 7.736 179.298 7.832C179.596 7.928 179.996 8.02933 180.498 8.136C181.138 8.28533 181.65 8.43467 182.034 8.584C182.428 8.72267 182.764 8.96267 183.042 9.304C183.319 9.63467 183.458 10.088 183.458 10.664C183.458 11.144 183.319 11.576 183.042 11.96C182.764 12.3333 182.375 12.6267 181.874 12.84C181.372 13.0427 180.796 13.144 180.146 13.144C179.164 13.144 178.375 12.8987 177.778 12.408C177.191 11.9173 176.871 11.24 176.818 10.376H178.322C178.343 10.8667 178.514 11.2613 178.834 11.56C179.164 11.848 179.602 11.992 180.146 11.992C180.743 11.992 181.202 11.8693 181.522 11.624C181.852 11.3787 182.018 11.0533 182.018 10.648C182.018 10.3173 181.916 10.056 181.714 9.864C181.522 9.66133 181.276 9.512 180.978 9.416C180.679 9.30933 180.268 9.19733 179.746 9.08C179.116 8.94133 178.604 8.80267 178.21 8.664C177.826 8.51467 177.495 8.28533 177.218 7.976C176.951 7.66667 176.818 7.24 176.818 6.696C176.818 6.216 176.951 5.77867 177.218 5.384C177.495 4.97867 177.884 4.65867 178.386 4.424C178.898 4.18933 179.49 4.072 180.161 4.072ZM5.23213 28.072C6.02146 28.072 6.73079 28.2587 7.36013 28.632C8.00013 29.0053 8.50146 29.5333 8.86413 30.216C9.23746 30.888 9.42413 31.6667 9.42413 32.552C9.42413 33.4373 9.23746 34.232 8.86413 34.936C8.50146 35.6293 8.00013 36.1733 7.36013 36.568C6.73079 36.952 6.02146 37.144 5.23213 37.144C4.48546 37.144 3.82946 36.968 3.26413 36.616C2.70946 36.2533 2.28279 35.784 1.98413 35.208V37H0.528125V25.16H1.98413V29.976C2.28279 29.4107 2.70946 28.952 3.26413 28.6C3.82946 28.248 4.48546 28.072 5.23213 28.072ZM4.94413 29.336C4.42146 29.336 3.93079 29.4693 3.47213 29.736C3.02413 30.0027 2.66146 30.3867 2.38413 30.888C2.11746 31.3787 1.98413 31.9547 1.98413 32.616C1.98413 33.2773 2.11746 33.8587 2.38413 34.36C2.66146 34.8507 3.02413 35.2293 3.47213 35.496C3.93079 35.7627 4.42146 35.896 4.94413 35.896C5.46679 35.896 5.95746 35.7627 6.41613 35.496C6.87479 35.2187 7.23746 34.824 7.50413 34.312C7.78146 33.8 7.92013 33.2133 7.92013 32.552C7.92013 31.8907 7.78146 31.32 7.50413 30.84C7.23746 30.3493 6.87479 29.976 6.41613 29.72C5.96813 29.464 5.47746 29.336 4.94413 29.336ZM19.2149 32.248C19.2149 32.5573 19.1935 32.8453 19.1509 33.112H12.1589C12.2015 33.9867 12.4735 34.68 12.9749 35.192C13.4869 35.6933 14.1375 35.944 14.9269 35.944C15.5242 35.944 16.0255 35.8107 16.4309 35.544C16.8469 35.2773 17.1509 34.9253 17.3429 34.488H18.9109C18.6335 35.256 18.1535 35.8907 17.4709 36.392C16.7989 36.8933 15.9509 37.144 14.9269 37.144C14.1055 37.144 13.3695 36.9573 12.7189 36.584C12.0789 36.2107 11.5775 35.6827 11.2149 35C10.8522 34.3067 10.6709 33.512 10.6709 32.616C10.6709 31.7093 10.8522 30.9147 11.2149 30.232C11.5775 29.5387 12.0895 29.0053 12.7509 28.632C13.4122 28.2587 14.1749 28.072 15.0389 28.072C15.8602 28.072 16.5855 28.2533 17.2149 28.616C17.8442 28.9787 18.3349 29.4747 18.6869 30.104C19.0389 30.7333 19.2149 31.448 19.2149 32.248ZM17.6949 32.056C17.6949 31.4907 17.5722 31 17.3269 30.584C17.0815 30.1573 16.7455 29.832 16.3189 29.608C15.9029 29.384 15.4389 29.272 14.9269 29.272C14.1695 29.272 13.5349 29.5227 13.0229 30.024C12.5109 30.5147 12.2282 31.192 12.1749 32.056H17.6949ZM28.9961 32.248C28.9961 32.5573 28.9748 32.8453 28.9321 33.112H21.9401C21.9828 33.9867 22.2548 34.68 22.7561 35.192C23.2681 35.6933 23.9188 35.944 24.7081 35.944C25.3055 35.944 25.8068 35.8107 26.2121 35.544C26.6281 35.2773 26.9321 34.9253 27.1241 34.488H28.6921C28.4148 35.256 27.9348 35.8907 27.2521 36.392C26.5801 36.8933 25.7321 37.144 24.7081 37.144C23.8868 37.144 23.1508 36.9573 22.5001 36.584C21.8601 36.2107 21.3588 35.6827 20.9961 35C20.6335 34.3067 20.4521 33.512 20.4521 32.616C20.4521 31.7093 20.6335 30.9147 20.9961 30.232C21.3588 29.5387 21.8708 29.0053 22.5321 28.632C23.1935 28.2587 23.9561 28.072 24.8201 28.072C25.6415 28.072 26.3668 28.2533 26.9961 28.616C27.6255 28.9787 28.1161 29.4747 28.4681 30.104C28.8201 30.7333 28.9961 31.448 28.9961 32.248ZM27.4761 32.056C27.4761 31.4907 27.3535 31 27.1081 30.584C26.8628 30.1573 26.5268 29.832 26.1001 29.608C25.6841 29.384 25.2201 29.272 24.7081 29.272C23.9508 29.272 23.3161 29.5227 22.8041 30.024C22.2921 30.5147 22.0095 31.192 21.9561 32.056H27.4761ZM35.1294 28.072C35.7587 28.072 36.3294 28.216 36.8414 28.504C37.364 28.7813 37.7747 29.2027 38.0734 29.768C38.3827 30.3227 38.5374 31 38.5374 31.8V37H37.0974V32.04C37.0974 31.1547 36.884 30.4827 36.4574 30.024C36.0307 29.5653 35.4387 29.336 34.6814 29.336C33.9347 29.336 33.3427 29.5653 32.9054 30.024C32.4787 30.4827 32.2654 31.1547 32.2654 32.04V37H30.8094V28.216H32.2654V29.64C32.5534 29.128 32.948 28.7387 33.4494 28.472C33.9507 28.2053 34.5107 28.072 35.1294 28.072ZM48.6771 28.072C49.6265 28.072 50.3785 28.3227 50.9331 28.824C51.4878 29.3147 51.7918 29.992 51.8451 30.856H50.3411C50.3198 30.3653 50.1545 29.9707 49.8451 29.672C49.5358 29.3733 49.1091 29.224 48.5651 29.224C48.0105 29.224 47.5731 29.3573 47.2531 29.624C46.9438 29.88 46.7891 30.2053 46.7891 30.6C46.7891 30.9307 46.8851 31.1973 47.0771 31.4C47.2798 31.592 47.5251 31.736 47.8131 31.832C48.1118 31.928 48.5118 32.0293 49.0131 32.136C49.6531 32.2853 50.1651 32.4347 50.5491 32.584C50.9438 32.7227 51.2798 32.9627 51.5571 33.304C51.8345 33.6347 51.9731 34.088 51.9731 34.664C51.9731 35.144 51.8345 35.576 51.5571 35.96C51.2798 36.3333 50.8905 36.6267 50.3891 36.84C49.8878 37.0427 49.3118 37.144 48.6611 37.144C47.6798 37.144 46.8905 36.8987 46.2931 36.408C45.7065 35.9173 45.3865 35.24 45.3331 34.376H46.8371C46.8585 34.8667 47.0291 35.2613 47.3491 35.56C47.6798 35.848 48.1171 35.992 48.6611 35.992C49.2585 35.992 49.7171 35.8693 50.0371 35.624C50.3678 35.3787 50.5331 35.0533 50.5331 34.648C50.5331 34.3173 50.4318 34.056 50.2291 33.864C50.0371 33.6613 49.7918 33.512 49.4931 33.416C49.1945 33.3093 48.7838 33.1973 48.2611 33.08C47.6318 32.9413 47.1198 32.8027 46.7251 32.664C46.3411 32.5147 46.0105 32.2853 45.7331 31.976C45.4665 31.6667 45.3331 31.24 45.3331 30.696C45.3331 30.216 45.4665 29.7787 45.7331 29.384C46.0105 28.9787 46.3998 28.6587 46.9011 28.424C47.4131 28.1893 48.0051 28.072 48.6771 28.072ZM62.043 32.248C62.043 32.5573 62.0217 32.8453 61.979 33.112H54.987C55.0297 33.9867 55.3017 34.68 55.803 35.192C56.315 35.6933 56.9657 35.944 57.755 35.944C58.3523 35.944 58.8537 35.8107 59.259 35.544C59.675 35.2773 59.979 34.9253 60.171 34.488H61.739C61.4617 35.256 60.9817 35.8907 60.299 36.392C59.627 36.8933 58.779 37.144 57.755 37.144C56.9337 37.144 56.1977 36.9573 55.547 36.584C54.907 36.2107 54.4057 35.6827 54.043 35C53.6803 34.3067 53.499 33.512 53.499 32.616C53.499 31.7093 53.6803 30.9147 54.043 30.232C54.4057 29.5387 54.9177 29.0053 55.579 28.632C56.2403 28.2587 57.003 28.072 57.867 28.072C58.6883 28.072 59.4137 28.2533 60.043 28.616C60.6723 28.9787 61.163 29.4747 61.515 30.104C61.867 30.7333 62.043 31.448 62.043 32.248ZM60.523 32.056C60.523 31.4907 60.4003 31 60.155 30.584C59.9097 30.1573 59.5737 29.832 59.147 29.608C58.731 29.384 58.267 29.272 57.755 29.272C56.9977 29.272 56.363 29.5227 55.851 30.024C55.339 30.5147 55.0563 31.192 55.003 32.056H60.523ZM68.1763 28.072C68.8056 28.072 69.3763 28.216 69.8883 28.504C70.4109 28.7813 70.8216 29.2027 71.1203 29.768C71.4296 30.3227 71.5843 31 71.5843 31.8V37H70.1443V32.04C70.1443 31.1547 69.9309 30.4827 69.5043 30.024C69.0776 29.5653 68.4856 29.336 67.7283 29.336C66.9816 29.336 66.3896 29.5653 65.9523 30.024C65.5256 30.4827 65.3123 31.1547 65.3123 32.04V37H63.8563V28.216H65.3123V29.64C65.6003 29.128 65.9949 28.7387 66.4963 28.472C66.9976 28.2053 67.5576 28.072 68.1763 28.072ZM77.9831 35.816V37H76.5111C75.7645 37 75.1938 36.8187 74.7991 36.456C74.4151 36.0933 74.2231 35.5227 74.2231 34.744V29.4H73.0871V28.216H74.2231V26.04H75.6951V28.216H77.9671V29.4H75.6951V34.744C75.6951 35.1387 75.7751 35.416 75.9351 35.576C76.0951 35.736 76.3778 35.816 76.7831 35.816H77.9831ZM88.4675 35.816V37H86.9955C86.2488 37 85.6782 36.8187 85.2835 36.456C84.8995 36.0933 84.7075 35.5227 84.7075 34.744V29.4H83.5715V28.216H84.7075V26.04H86.1795V28.216H88.4515V29.4H86.1795V34.744C86.1795 35.1387 86.2595 35.416 86.4195 35.576C86.5795 35.736 86.8622 35.816 87.2675 35.816H88.4675ZM93.931 28.072C94.763 28.072 95.515 28.2587 96.187 28.632C96.859 29.0053 97.387 29.5387 97.771 30.232C98.1657 30.9253 98.363 31.72 98.363 32.616C98.363 33.5013 98.1603 34.2907 97.755 34.984C97.3497 35.6667 96.8003 36.2 96.107 36.584C95.4137 36.9573 94.6457 37.144 93.803 37.144C92.9817 37.144 92.2403 36.9573 91.579 36.584C90.9283 36.2107 90.4163 35.6827 90.043 35C89.6803 34.3067 89.499 33.512 89.499 32.616C89.499 31.7093 89.691 30.9147 90.075 30.232C90.4697 29.5387 91.003 29.0053 91.675 28.632C92.347 28.2587 93.099 28.072 93.931 28.072ZM93.883 29.272C93.3497 29.272 92.8643 29.4 92.427 29.656C91.9897 29.912 91.6377 30.2907 91.371 30.792C91.115 31.2933 90.987 31.9013 90.987 32.616C90.987 33.32 91.1097 33.9227 91.355 34.424C91.611 34.9253 91.9523 35.304 92.379 35.56C92.8057 35.816 93.2803 35.944 93.803 35.944C94.3363 35.944 94.8323 35.816 95.291 35.56C95.7603 35.2933 96.139 34.9093 96.427 34.408C96.715 33.9067 96.859 33.3093 96.859 32.616C96.859 31.912 96.7203 31.3093 96.443 30.808C96.1763 30.296 95.8137 29.912 95.355 29.656C94.907 29.4 94.4163 29.272 93.883 29.272ZM105.573 28.216L108.261 35.32L110.997 28.216H112.501L107.205 41.112H105.701L107.445 36.856L103.973 28.216H105.573ZM117.744 28.072C118.576 28.072 119.328 28.2587 120 28.632C120.672 29.0053 121.2 29.5387 121.584 30.232C121.978 30.9253 122.176 31.72 122.176 32.616C122.176 33.5013 121.973 34.2907 121.568 34.984C121.162 35.6667 120.613 36.2 119.92 36.584C119.226 36.9573 118.458 37.144 117.616 37.144C116.794 37.144 116.053 36.9573 115.392 36.584C114.741 36.2107 114.229 35.6827 113.856 35C113.493 34.3067 113.312 33.512 113.312 32.616C113.312 31.7093 113.504 30.9147 113.888 30.232C114.282 29.5387 114.816 29.0053 115.488 28.632C116.16 28.2587 116.912 28.072 117.744 28.072ZM117.696 29.272C117.162 29.272 116.677 29.4 116.24 29.656C115.802 29.912 115.45 30.2907 115.184 30.792C114.928 31.2933 114.799 31.9013 114.799 32.616C114.799 33.32 114.922 33.9227 115.168 34.424C115.424 34.9253 115.765 35.304 116.192 35.56C116.618 35.816 117.093 35.944 117.616 35.944C118.149 35.944 118.645 35.816 119.104 35.56C119.573 35.2933 119.952 34.9093 120.24 34.408C120.528 33.9067 120.672 33.3093 120.672 32.616C120.672 31.912 120.533 31.3093 120.256 30.808C119.989 30.296 119.626 29.912 119.168 29.656C118.72 29.4 118.229 29.272 117.696 29.272ZM131.645 28.216V37H130.189V35.592C129.901 36.104 129.506 36.4933 129.005 36.76C128.504 37.016 127.944 37.144 127.325 37.144C126.696 37.144 126.12 37.0053 125.597 36.728C125.085 36.44 124.674 36.0187 124.365 35.464C124.066 34.9093 123.917 34.232 123.917 33.432V28.216H125.357V33.192C125.357 34.0667 125.57 34.7387 125.997 35.208C126.434 35.6667 127.026 35.896 127.773 35.896C128.52 35.896 129.106 35.6667 129.533 35.208C129.97 34.7387 130.189 34.0667 130.189 33.192V28.216H131.645ZM135.5 29.704C136.022 28.616 136.913 28.072 138.172 28.072V29.592H137.788C137.041 29.592 136.47 29.7893 136.076 30.184C135.692 30.568 135.5 31.24 135.5 32.2V37H134.044V28.216H135.5V29.704ZM152.699 32.248C152.699 32.5573 152.678 32.8453 152.635 33.112H145.643C145.686 33.9867 145.958 34.68 146.459 35.192C146.971 35.6933 147.622 35.944 148.411 35.944C149.009 35.944 149.51 35.8107 149.915 35.544C150.331 35.2773 150.635 34.9253 150.827 34.488H152.395C152.118 35.256 151.638 35.8907 150.955 36.392C150.283 36.8933 149.435 37.144 148.411 37.144C147.59 37.144 146.854 36.9573 146.203 36.584C145.563 36.2107 145.062 35.6827 144.699 35C144.337 34.3067 144.155 33.512 144.155 32.616C144.155 31.7093 144.337 30.9147 144.699 30.232C145.062 29.5387 145.574 29.0053 146.235 28.632C146.897 28.2587 147.659 28.072 148.523 28.072C149.345 28.072 150.07 28.2533 150.699 28.616C151.329 28.9787 151.819 29.4747 152.171 30.104C152.523 30.7333 152.699 31.448 152.699 32.248ZM151.179 32.056C151.179 31.4907 151.057 31 150.811 30.584C150.566 30.1573 150.23 29.832 149.803 29.608C149.387 29.384 148.923 29.272 148.411 29.272C147.654 29.272 147.019 29.5227 146.507 30.024C145.995 30.5147 145.713 31.192 145.659 32.056H151.179ZM165.073 28.072C165.713 28.072 166.294 28.216 166.817 28.504C167.339 28.7813 167.75 29.2027 168.049 29.768C168.358 30.3227 168.513 31 168.513 31.8V37H167.073V32.04C167.073 31.1547 166.854 30.4827 166.417 30.024C165.99 29.5653 165.403 29.336 164.657 29.336C163.91 29.336 163.318 29.5653 162.881 30.024C162.454 30.4827 162.241 31.1547 162.241 32.04V37H160.801V32.04C160.801 31.1547 160.587 30.4827 160.161 30.024C159.734 29.5653 159.142 29.336 158.385 29.336C157.638 29.336 157.046 29.5653 156.609 30.024C156.182 30.4827 155.969 31.1547 155.969 32.04V37H154.513V28.216H155.969V29.64C156.257 29.128 156.651 28.7387 157.153 28.472C157.654 28.2053 158.214 28.072 158.833 28.072C159.505 28.072 160.113 28.2373 160.657 28.568C161.201 28.888 161.611 29.3573 161.889 29.976C162.209 29.3787 162.641 28.9147 163.185 28.584C163.739 28.2427 164.369 28.072 165.073 28.072ZM174.441 28.072C175.188 28.072 175.838 28.248 176.393 28.6C176.958 28.952 177.385 29.4107 177.673 29.976V28.216H179.145V37H177.673V35.208C177.385 35.784 176.958 36.2533 176.393 36.616C175.838 36.968 175.188 37.144 174.441 37.144C173.652 37.144 172.937 36.952 172.297 36.568C171.668 36.1733 171.166 35.6293 170.793 34.936C170.43 34.232 170.249 33.4373 170.249 32.552C170.249 31.6667 170.43 30.888 170.793 30.216C171.166 29.5333 171.668 29.0053 172.297 28.632C172.937 28.2587 173.652 28.072 174.441 28.072ZM174.697 29.336C174.174 29.336 173.684 29.464 173.225 29.72C172.777 29.976 172.414 30.3493 172.137 30.84C171.87 31.32 171.737 31.8907 171.737 32.552C171.737 33.2133 171.87 33.8 172.137 34.312C172.414 34.8133 172.777 35.2027 173.225 35.48C173.684 35.7573 174.174 35.896 174.697 35.896C175.23 35.896 175.721 35.7627 176.169 35.496C176.628 35.2293 176.99 34.8507 177.257 34.36C177.534 33.8587 177.673 33.2773 177.673 32.616C177.673 31.9547 177.534 31.3787 177.257 30.888C176.99 30.3867 176.628 30.0027 176.169 29.736C175.721 29.4693 175.23 29.336 174.697 29.336ZM181.304 25.816C181.304 25.5387 181.4 25.304 181.592 25.112C181.784 24.92 182.013 24.824 182.28 24.824C182.557 24.824 182.792 24.92 182.984 25.112C183.176 25.304 183.272 25.5387 183.272 25.816C183.272 26.0933 183.176 26.328 182.984 26.52C182.792 26.712 182.557 26.808 182.28 26.808C182.002 26.808 181.768 26.712 181.576 26.52C181.394 26.328 181.304 26.0933 181.304 25.816ZM183 28.216V37H181.544V28.216H183ZM186.859 25.16V37H185.403V25.16H186.859ZM188.943 36.072C188.943 35.8053 189.033 35.5813 189.215 35.4C189.396 35.2187 189.615 35.128 189.871 35.128C190.127 35.128 190.345 35.2187 190.527 35.4C190.708 35.5813 190.799 35.8053 190.799 36.072C190.799 36.328 190.708 36.5467 190.527 36.728C190.345 36.9093 190.127 37 189.871 37C189.615 37 189.396 36.9093 189.215 36.728C189.033 36.5467 188.943 36.328 188.943 36.072Z" fill="#6C6C6C"/>
</svg>
