<svg width="211" height="45" viewBox="0 0 211 45" fill="none" xmlns="http://www.w3.org/2000/svg">
<path d="M12.7895 10.444H7.55146L6.65146 13H4.50946L8.99146 0.471999H11.3675L15.8495 13H13.6895L12.7895 10.444ZM12.2315 8.842L10.1795 2.956L8.10946 8.842H12.2315ZM19.8502 4.81C20.1502 4.21 20.5462 3.748 21.0382 3.424C21.5422 3.088 22.1362 2.92 22.8202 2.92V5.044H22.2982C21.4942 5.044 20.8822 5.248 20.4622 5.656C20.0542 6.064 19.8502 6.772 19.8502 7.78V13H17.7982V3.082H19.8502V4.81ZM33.7964 7.762C33.7964 8.11 33.7724 8.434 33.7244 8.734H26.1284C26.1764 9.562 26.4524 10.222 26.9564 10.714C27.4724 11.194 28.1144 11.434 28.8824 11.434C29.9984 11.434 30.7844 10.972 31.2404 10.048H33.4544C33.1544 10.96 32.6084 11.71 31.8164 12.298C31.0244 12.874 30.0464 13.162 28.8824 13.162C27.9344 13.162 27.0944 12.952 26.3624 12.532C25.6304 12.1 25.0544 11.5 24.6344 10.732C24.2264 9.952 24.0224 9.052 24.0224 8.032C24.0224 7.012 24.2264 6.118 24.6344 5.35C25.0544 4.57 25.6364 3.97 26.3804 3.55C27.1364 3.13 28.0004 2.92 28.9724 2.92C29.9084 2.92 30.7424 3.124 31.4744 3.532C32.2064 3.94 32.7764 4.51 33.1844 5.242C33.5924 5.974 33.7964 6.814 33.7964 7.762ZM31.6544 7.33C31.6424 6.514 31.3724 5.866 30.8444 5.386C30.3164 4.894 29.6624 4.648 28.8824 4.648C28.1504 4.648 27.5264 4.894 27.0104 5.386C26.5064 5.866 26.2184 6.514 26.1464 7.33H31.6544ZM42.3283 3.082L45.1183 10.642L48.0163 3.082H50.1403L44.0563 17.662H41.9323L43.9483 12.838L40.0423 3.082H42.3283ZM56.0809 2.92C57.0289 2.92 57.8869 3.13 58.6549 3.55C59.4229 3.97 60.0289 4.57 60.4729 5.35C60.9169 6.13 61.1389 7.024 61.1389 8.032C61.1389 9.04 60.9109 9.934 60.4549 10.714C59.9989 11.494 59.3749 12.1 58.5829 12.532C57.8029 12.952 56.9389 13.162 55.9909 13.162C55.0549 13.162 54.2089 12.952 53.4529 12.532C52.6969 12.1 52.1029 11.5 51.6709 10.732C51.2389 9.952 51.0229 9.052 51.0229 8.032C51.0229 7.024 51.2449 6.13 51.6889 5.35C52.1329 4.57 52.7389 3.97 53.5069 3.55C54.2749 3.13 55.1329 2.92 56.0809 2.92ZM56.0449 4.648C55.5169 4.648 55.0309 4.78 54.5869 5.044C54.1429 5.296 53.7829 5.68 53.5069 6.196C53.2429 6.7 53.1109 7.312 53.1109 8.032C53.1109 8.752 53.2369 9.37 53.4889 9.886C53.7529 10.402 54.1009 10.792 54.5329 11.056C54.9769 11.308 55.4629 11.434 55.9909 11.434C56.5189 11.434 57.0109 11.302 57.4669 11.038C57.9349 10.774 58.3129 10.39 58.6009 9.886C58.8889 9.37 59.0329 8.752 59.0329 8.032C59.0329 7.312 58.8949 6.7 58.6189 6.196C58.3429 5.68 57.9769 5.296 57.5209 5.044C57.0649 4.78 56.5729 4.648 56.0449 4.648ZM72.1494 3.082V13H70.0974V11.434C69.7734 11.998 69.3354 12.424 68.7834 12.712C68.2434 13 67.6254 13.144 66.9294 13.144C66.2094 13.144 65.5554 12.982 64.9674 12.658C64.3914 12.334 63.9294 11.86 63.5814 11.236C63.2454 10.6 63.0774 9.832 63.0774 8.932V3.082H65.1114V8.626C65.1114 9.514 65.3334 10.198 65.7774 10.678C66.2214 11.146 66.8274 11.38 67.5954 11.38C68.3634 11.38 68.9694 11.146 69.4134 10.678C69.8694 10.198 70.0974 9.514 70.0974 8.626V3.082H72.1494ZM83.7273 2.92C84.8313 2.92 85.7193 3.208 86.3913 3.784C87.0753 4.348 87.4413 5.122 87.4893 6.106H85.3833C85.3473 5.614 85.1733 5.23 84.8613 4.954C84.5613 4.678 84.1353 4.54 83.5833 4.54C83.0313 4.54 82.5993 4.666 82.2873 4.918C81.9753 5.158 81.8193 5.47 81.8193 5.854C81.8193 6.166 81.9213 6.418 82.1253 6.61C82.3293 6.802 82.5873 6.952 82.8993 7.06C83.2233 7.156 83.6553 7.264 84.1953 7.384C84.9273 7.552 85.5153 7.72 85.9593 7.888C86.4153 8.056 86.8053 8.332 87.1293 8.716C87.4533 9.088 87.6153 9.598 87.6153 10.246C87.6153 10.81 87.4473 11.314 87.1113 11.758C86.7873 12.202 86.3313 12.55 85.7433 12.802C85.1553 13.042 84.4893 13.162 83.7453 13.162C82.5933 13.162 81.6633 12.886 80.9553 12.334C80.2473 11.782 79.8573 10.996 79.7853 9.976H81.9093C81.9453 10.468 82.1253 10.852 82.4493 11.128C82.7733 11.404 83.2053 11.542 83.7453 11.542C84.3213 11.542 84.7713 11.422 85.0953 11.182C85.4313 10.93 85.5993 10.606 85.5993 10.21C85.5993 9.886 85.4913 9.628 85.2753 9.436C85.0713 9.244 84.8073 9.1 84.4833 9.004C84.1593 8.896 83.7213 8.782 83.1693 8.662C82.4493 8.494 81.8673 8.332 81.4233 8.176C80.9793 8.008 80.5953 7.744 80.2713 7.384C79.9593 7.024 79.8033 6.538 79.8033 5.926C79.8033 5.374 79.9593 4.87 80.2713 4.414C80.5833 3.958 81.0333 3.598 81.6213 3.334C82.2213 3.058 82.9233 2.92 83.7273 2.92ZM98.8506 3.082V13H96.7986V11.434C96.4746 11.998 96.0366 12.424 95.4846 12.712C94.9446 13 94.3266 13.144 93.6306 13.144C92.9106 13.144 92.2566 12.982 91.6686 12.658C91.0926 12.334 90.6306 11.86 90.2826 11.236C89.9466 10.6 89.7786 9.832 89.7786 8.932V3.082H91.8126V8.626C91.8126 9.514 92.0346 10.198 92.4786 10.678C92.9226 11.146 93.5286 11.38 94.2966 11.38C95.0646 11.38 95.6706 11.146 96.1146 10.678C96.5706 10.198 96.7986 9.514 96.7986 8.626V3.082H98.8506ZM103.61 4.81C103.91 4.21 104.306 3.748 104.798 3.424C105.302 3.088 105.896 2.92 106.58 2.92V5.044H106.058C105.254 5.044 104.642 5.248 104.222 5.656C103.814 6.064 103.61 6.772 103.61 7.78V13H101.558V3.082H103.61V4.81ZM117.556 7.762C117.556 8.11 117.532 8.434 117.484 8.734H109.888C109.936 9.562 110.212 10.222 110.716 10.714C111.232 11.194 111.874 11.434 112.642 11.434C113.758 11.434 114.544 10.972 115 10.048H117.214C116.914 10.96 116.368 11.71 115.576 12.298C114.784 12.874 113.806 13.162 112.642 13.162C111.694 13.162 110.854 12.952 110.122 12.532C109.39 12.1 108.814 11.5 108.394 10.732C107.986 9.952 107.782 9.052 107.782 8.032C107.782 7.012 107.986 6.118 108.394 5.35C108.814 4.57 109.396 3.97 110.14 3.55C110.896 3.13 111.76 2.92 112.732 2.92C113.668 2.92 114.502 3.124 115.234 3.532C115.966 3.94 116.536 4.51 116.944 5.242C117.352 5.974 117.556 6.814 117.556 7.762ZM115.414 7.33C115.402 6.514 115.132 5.866 114.604 5.386C114.076 4.894 113.422 4.648 112.642 4.648C111.91 4.648 111.286 4.894 110.77 5.386C110.266 5.866 109.978 6.514 109.906 7.33H115.414ZM126.088 3.082L128.878 10.642L131.776 3.082H133.9L127.816 17.662H125.692L127.708 12.838L123.802 3.082H126.088ZM139.841 2.92C140.789 2.92 141.647 3.13 142.415 3.55C143.183 3.97 143.789 4.57 144.233 5.35C144.677 6.13 144.899 7.024 144.899 8.032C144.899 9.04 144.671 9.934 144.215 10.714C143.759 11.494 143.135 12.1 142.343 12.532C141.563 12.952 140.699 13.162 139.751 13.162C138.815 13.162 137.969 12.952 137.213 12.532C136.457 12.1 135.863 11.5 135.431 10.732C134.999 9.952 134.783 9.052 134.783 8.032C134.783 7.024 135.005 6.13 135.449 5.35C135.893 4.57 136.499 3.97 137.267 3.55C138.035 3.13 138.893 2.92 139.841 2.92ZM139.805 4.648C139.277 4.648 138.791 4.78 138.347 5.044C137.903 5.296 137.543 5.68 137.267 6.196C137.003 6.7 136.871 7.312 136.871 8.032C136.871 8.752 136.997 9.37 137.249 9.886C137.513 10.402 137.861 10.792 138.293 11.056C138.737 11.308 139.223 11.434 139.751 11.434C140.279 11.434 140.771 11.302 141.227 11.038C141.695 10.774 142.073 10.39 142.361 9.886C142.649 9.37 142.793 8.752 142.793 8.032C142.793 7.312 142.655 6.7 142.379 6.196C142.103 5.68 141.737 5.296 141.281 5.044C140.825 4.78 140.333 4.648 139.805 4.648ZM155.909 3.082V13H153.857V11.434C153.533 11.998 153.095 12.424 152.543 12.712C152.003 13 151.385 13.144 150.689 13.144C149.969 13.144 149.315 12.982 148.727 12.658C148.151 12.334 147.689 11.86 147.341 11.236C147.005 10.6 146.837 9.832 146.837 8.932V3.082H148.871V8.626C148.871 9.514 149.093 10.198 149.537 10.678C149.981 11.146 150.587 11.38 151.355 11.38C152.123 11.38 152.729 11.146 153.173 10.678C153.629 10.198 153.857 9.514 153.857 8.626V3.082H155.909ZM177.333 3.082L174.255 13H172.095L170.097 5.674L168.099 13H165.939L162.843 3.082H164.931L167.001 11.056L169.107 3.082H171.249L173.265 11.02L175.317 3.082H177.333ZM182.863 2.92C183.643 2.92 184.327 3.1 184.915 3.46C185.515 3.808 185.977 4.27 186.301 4.846V3.082H188.371V13H186.301V11.146C185.965 11.758 185.503 12.25 184.915 12.622C184.327 12.982 183.643 13.162 182.863 13.162C181.999 13.162 181.207 12.946 180.487 12.514C179.779 12.07 179.215 11.458 178.795 10.678C178.387 9.886 178.183 8.992 178.183 7.996C178.183 7 178.387 6.118 178.795 5.35C179.215 4.582 179.779 3.988 180.487 3.568C181.207 3.136 181.999 2.92 182.863 2.92ZM183.295 4.702C182.767 4.702 182.275 4.834 181.819 5.098C181.363 5.35 180.991 5.728 180.703 6.232C180.427 6.724 180.289 7.312 180.289 7.996C180.289 8.68 180.427 9.28 180.703 9.796C180.991 10.312 181.363 10.708 181.819 10.984C182.287 11.248 182.779 11.38 183.295 11.38C183.823 11.38 184.315 11.248 184.771 10.984C185.227 10.72 185.593 10.336 185.869 9.832C186.157 9.316 186.301 8.716 186.301 8.032C186.301 7.348 186.157 6.754 185.869 6.25C185.593 5.746 185.227 5.362 184.771 5.098C184.315 4.834 183.823 4.702 183.295 4.702ZM196.286 2.92C197.006 2.92 197.654 3.082 198.23 3.406C198.818 3.73 199.28 4.21 199.616 4.846C199.964 5.482 200.138 6.25 200.138 7.15V13H198.104V7.456C198.104 6.568 197.882 5.89 197.438 5.422C196.994 4.942 196.388 4.702 195.62 4.702C194.852 4.702 194.24 4.942 193.784 5.422C193.34 5.89 193.118 6.568 193.118 7.456V13H191.066V3.082H193.118V4.648C193.442 4.084 193.874 3.658 194.414 3.37C194.966 3.07 195.59 2.92 196.286 2.92ZM205.149 4.756V10.246C205.149 10.618 205.233 10.888 205.401 11.056C205.581 11.212 205.881 11.29 206.301 11.29H207.561V13H205.941C205.017 13 204.309 12.784 203.817 12.352C203.325 11.92 203.079 11.218 203.079 10.246V4.756H201.909V3.082H203.079V0.616H205.149V3.082H207.561V4.756H205.149ZM3.88853 31.756V37.246C3.88853 37.618 3.97253 37.888 4.14053 38.056C4.32053 38.212 4.62053 38.29 5.04053 38.29H6.30053V40H4.68053C3.75653 40 3.04853 39.784 2.55653 39.352C2.06453 38.92 1.81853 38.218 1.81853 37.246V31.756H0.648531V30.082H1.81853V27.616H3.88853V30.082H6.30053V31.756H3.88853ZM12.5838 29.92C13.5318 29.92 14.3898 30.13 15.1578 30.55C15.9258 30.97 16.5318 31.57 16.9758 32.35C17.4198 33.13 17.6418 34.024 17.6418 35.032C17.6418 36.04 17.4138 36.934 16.9578 37.714C16.5018 38.494 15.8778 39.1 15.0858 39.532C14.3058 39.952 13.4418 40.162 12.4938 40.162C11.5578 40.162 10.7118 39.952 9.9558 39.532C9.1998 39.1 8.6058 38.5 8.1738 37.732C7.7418 36.952 7.5258 36.052 7.5258 35.032C7.5258 34.024 7.7478 33.13 8.1918 32.35C8.6358 31.57 9.2418 30.97 10.0098 30.55C10.7778 30.13 11.6358 29.92 12.5838 29.92ZM12.5478 31.648C12.0198 31.648 11.5338 31.78 11.0898 32.044C10.6458 32.296 10.2858 32.68 10.0098 33.196C9.7458 33.7 9.6138 34.312 9.6138 35.032C9.6138 35.752 9.7398 36.37 9.9918 36.886C10.2558 37.402 10.6038 37.792 11.0358 38.056C11.4798 38.308 11.9658 38.434 12.4938 38.434C13.0218 38.434 13.5138 38.302 13.9698 38.038C14.4378 37.774 14.8158 37.39 15.1038 36.886C15.3918 36.37 15.5358 35.752 15.5358 35.032C15.5358 34.312 15.3978 33.7 15.1218 33.196C14.8458 32.68 14.4798 32.296 14.0238 32.044C13.5678 31.78 13.0758 31.648 12.5478 31.648ZM29.0628 29.92C29.8428 29.92 30.5268 30.1 31.1148 30.46C31.7148 30.808 32.1768 31.27 32.5008 31.846V26.68H34.5708V40H32.5008V38.146C32.1648 38.758 31.7028 39.25 31.1148 39.622C30.5268 39.982 29.8428 40.162 29.0628 40.162C28.1988 40.162 27.4068 39.946 26.6868 39.514C25.9788 39.07 25.4148 38.458 24.9948 37.678C24.5868 36.886 24.3828 35.992 24.3828 34.996C24.3828 34 24.5868 33.118 24.9948 32.35C25.4148 31.582 25.9788 30.988 26.6868 30.568C27.4068 30.136 28.1988 29.92 29.0628 29.92ZM29.4948 31.702C28.9668 31.702 28.4748 31.834 28.0188 32.098C27.5628 32.35 27.1908 32.728 26.9028 33.232C26.6268 33.724 26.4888 34.312 26.4888 34.996C26.4888 35.68 26.6268 36.28 26.9028 36.796C27.1908 37.312 27.5628 37.708 28.0188 37.984C28.4868 38.248 28.9788 38.38 29.4948 38.38C30.0228 38.38 30.5148 38.248 30.9708 37.984C31.4268 37.72 31.7928 37.336 32.0688 36.832C32.3568 36.316 32.5008 35.716 32.5008 35.032C32.5008 34.348 32.3568 33.754 32.0688 33.25C31.7928 32.746 31.4268 32.362 30.9708 32.098C30.5148 31.834 30.0228 31.702 29.4948 31.702ZM46.356 34.762C46.356 35.11 46.332 35.434 46.284 35.734H38.688C38.736 36.562 39.012 37.222 39.516 37.714C40.032 38.194 40.674 38.434 41.442 38.434C42.558 38.434 43.344 37.972 43.8 37.048H46.014C45.714 37.96 45.168 38.71 44.376 39.298C43.584 39.874 42.606 40.162 41.442 40.162C40.494 40.162 39.654 39.952 38.922 39.532C38.19 39.1 37.614 38.5 37.194 37.732C36.786 36.952 36.582 36.052 36.582 35.032C36.582 34.012 36.786 33.118 37.194 32.35C37.614 31.57 38.196 30.97 38.94 30.55C39.696 30.13 40.56 29.92 41.532 29.92C42.468 29.92 43.302 30.124 44.034 30.532C44.766 30.94 45.336 31.51 45.744 32.242C46.152 32.974 46.356 33.814 46.356 34.762ZM44.214 34.33C44.202 33.514 43.932 32.866 43.404 32.386C42.876 31.894 42.222 31.648 41.442 31.648C40.71 31.648 40.086 31.894 39.57 32.386C39.066 32.866 38.778 33.514 38.706 34.33H44.214ZM50.4274 26.68V40H48.3754V26.68H50.4274ZM62.2115 34.762C62.2115 35.11 62.1875 35.434 62.1395 35.734H54.5435C54.5915 36.562 54.8675 37.222 55.3715 37.714C55.8875 38.194 56.5295 38.434 57.2975 38.434C58.4135 38.434 59.1995 37.972 59.6555 37.048H61.8695C61.5695 37.96 61.0235 38.71 60.2315 39.298C59.4395 39.874 58.4615 40.162 57.2975 40.162C56.3495 40.162 55.5095 39.952 54.7775 39.532C54.0455 39.1 53.4695 38.5 53.0495 37.732C52.6415 36.952 52.4375 36.052 52.4375 35.032C52.4375 34.012 52.6415 33.118 53.0495 32.35C53.4695 31.57 54.0515 30.97 54.7955 30.55C55.5515 30.13 56.4155 29.92 57.3875 29.92C58.3235 29.92 59.1575 30.124 59.8895 30.532C60.6215 30.94 61.1915 31.51 61.5995 32.242C62.0075 32.974 62.2115 33.814 62.2115 34.762ZM60.0695 34.33C60.0575 33.514 59.7875 32.866 59.2595 32.386C58.7315 31.894 58.0775 31.648 57.2975 31.648C56.5655 31.648 55.9415 31.894 55.4255 32.386C54.9215 32.866 54.6335 33.514 54.5615 34.33H60.0695ZM66.6249 31.756V37.246C66.6249 37.618 66.7089 37.888 66.8769 38.056C67.0569 38.212 67.3569 38.29 67.7769 38.29H69.0369V40H67.4169C66.4929 40 65.7849 39.784 65.2929 39.352C64.8009 38.92 64.5549 38.218 64.5549 37.246V31.756H63.3849V30.082H64.5549V27.616H66.6249V30.082H69.0369V31.756H66.6249ZM80.0181 34.762C80.0181 35.11 79.9941 35.434 79.9461 35.734H72.3501C72.3981 36.562 72.6741 37.222 73.1781 37.714C73.6941 38.194 74.3361 38.434 75.1041 38.434C76.2201 38.434 77.0061 37.972 77.4621 37.048H79.6761C79.3761 37.96 78.8301 38.71 78.0381 39.298C77.2461 39.874 76.2681 40.162 75.1041 40.162C74.1561 40.162 73.3161 39.952 72.5841 39.532C71.8521 39.1 71.2761 38.5 70.8561 37.732C70.4481 36.952 70.2441 36.052 70.2441 35.032C70.2441 34.012 70.4481 33.118 70.8561 32.35C71.2761 31.57 71.8581 30.97 72.6021 30.55C73.3581 30.13 74.2221 29.92 75.1941 29.92C76.1301 29.92 76.9641 30.124 77.6961 30.532C78.4281 30.94 78.9981 31.51 79.4061 32.242C79.8141 32.974 80.0181 33.814 80.0181 34.762ZM77.8761 34.33C77.8641 33.514 77.5941 32.866 77.0661 32.386C76.5381 31.894 75.8841 31.648 75.1041 31.648C74.3721 31.648 73.7481 31.894 73.2321 32.386C72.7281 32.866 72.4401 33.514 72.3681 34.33H77.8761ZM88.55 30.082L91.34 37.642L94.238 30.082H96.362L90.278 44.662H88.154L90.17 39.838L86.264 30.082H88.55ZM102.303 29.92C103.251 29.92 104.109 30.13 104.877 30.55C105.645 30.97 106.251 31.57 106.695 32.35C107.139 33.13 107.361 34.024 107.361 35.032C107.361 36.04 107.133 36.934 106.677 37.714C106.221 38.494 105.597 39.1 104.805 39.532C104.025 39.952 103.161 40.162 102.213 40.162C101.277 40.162 100.431 39.952 99.6745 39.532C98.9185 39.1 98.3245 38.5 97.8925 37.732C97.4605 36.952 97.2445 36.052 97.2445 35.032C97.2445 34.024 97.4665 33.13 97.9105 32.35C98.3545 31.57 98.9605 30.97 99.7285 30.55C100.497 30.13 101.355 29.92 102.303 29.92ZM102.267 31.648C101.739 31.648 101.253 31.78 100.809 32.044C100.365 32.296 100.005 32.68 99.7285 33.196C99.4645 33.7 99.3325 34.312 99.3325 35.032C99.3325 35.752 99.4585 36.37 99.7105 36.886C99.9745 37.402 100.323 37.792 100.755 38.056C101.199 38.308 101.685 38.434 102.213 38.434C102.741 38.434 103.233 38.302 103.689 38.038C104.157 37.774 104.535 37.39 104.823 36.886C105.111 36.37 105.255 35.752 105.255 35.032C105.255 34.312 105.117 33.7 104.841 33.196C104.565 32.68 104.199 32.296 103.743 32.044C103.287 31.78 102.795 31.648 102.267 31.648ZM118.371 30.082V40H116.319V38.434C115.995 38.998 115.557 39.424 115.005 39.712C114.465 40 113.847 40.144 113.151 40.144C112.431 40.144 111.777 39.982 111.189 39.658C110.613 39.334 110.151 38.86 109.803 38.236C109.467 37.6 109.299 36.832 109.299 35.932V30.082H111.333V35.626C111.333 36.514 111.555 37.198 111.999 37.678C112.443 38.146 113.049 38.38 113.817 38.38C114.585 38.38 115.191 38.146 115.635 37.678C116.091 37.198 116.319 36.514 116.319 35.626V30.082H118.371ZM130.471 29.92C131.251 29.92 131.935 30.1 132.523 30.46C133.123 30.808 133.585 31.27 133.909 31.846V30.082H135.979V40H133.909V38.146C133.573 38.758 133.111 39.25 132.523 39.622C131.935 39.982 131.251 40.162 130.471 40.162C129.607 40.162 128.815 39.946 128.095 39.514C127.387 39.07 126.823 38.458 126.403 37.678C125.995 36.886 125.791 35.992 125.791 34.996C125.791 34 125.995 33.118 126.403 32.35C126.823 31.582 127.387 30.988 128.095 30.568C128.815 30.136 129.607 29.92 130.471 29.92ZM130.903 31.702C130.375 31.702 129.883 31.834 129.427 32.098C128.971 32.35 128.599 32.728 128.311 33.232C128.035 33.724 127.897 34.312 127.897 34.996C127.897 35.68 128.035 36.28 128.311 36.796C128.599 37.312 128.971 37.708 129.427 37.984C129.895 38.248 130.387 38.38 130.903 38.38C131.431 38.38 131.923 38.248 132.379 37.984C132.835 37.72 133.201 37.336 133.477 36.832C133.765 36.316 133.909 35.716 133.909 35.032C133.909 34.348 133.765 33.754 133.477 33.25C133.201 32.746 132.835 32.362 132.379 32.098C131.923 31.834 131.431 31.702 130.903 31.702ZM142.85 29.92C144.05 29.92 145.04 30.208 145.82 30.784C146.612 31.348 147.146 32.158 147.422 33.214H145.208C145.028 32.722 144.74 32.338 144.344 32.062C143.948 31.786 143.45 31.648 142.85 31.648C142.01 31.648 141.338 31.948 140.834 32.548C140.342 33.136 140.096 33.964 140.096 35.032C140.096 36.1 140.342 36.934 140.834 37.534C141.338 38.134 142.01 38.434 142.85 38.434C144.038 38.434 144.824 37.912 145.208 36.868H147.422C147.134 37.876 146.594 38.68 145.802 39.28C145.01 39.868 144.026 40.162 142.85 40.162C141.902 40.162 141.062 39.952 140.33 39.532C139.598 39.1 139.022 38.5 138.602 37.732C138.194 36.952 137.99 36.052 137.99 35.032C137.99 34.012 138.194 33.118 138.602 32.35C139.022 31.57 139.598 30.97 140.33 30.55C141.062 30.13 141.902 29.92 142.85 29.92ZM153.643 29.92C154.843 29.92 155.833 30.208 156.613 30.784C157.405 31.348 157.939 32.158 158.215 33.214H156.001C155.821 32.722 155.533 32.338 155.137 32.062C154.741 31.786 154.243 31.648 153.643 31.648C152.803 31.648 152.131 31.948 151.627 32.548C151.135 33.136 150.889 33.964 150.889 35.032C150.889 36.1 151.135 36.934 151.627 37.534C152.131 38.134 152.803 38.434 153.643 38.434C154.831 38.434 155.617 37.912 156.001 36.868H158.215C157.927 37.876 157.387 38.68 156.595 39.28C155.803 39.868 154.819 40.162 153.643 40.162C152.695 40.162 151.855 39.952 151.123 39.532C150.391 39.1 149.815 38.5 149.395 37.732C148.987 36.952 148.783 36.052 148.783 35.032C148.783 34.012 148.987 33.118 149.395 32.35C149.815 31.57 150.391 30.97 151.123 30.55C151.855 30.13 152.695 29.92 153.643 29.92ZM164.652 29.92C165.6 29.92 166.458 30.13 167.226 30.55C167.994 30.97 168.6 31.57 169.044 32.35C169.488 33.13 169.71 34.024 169.71 35.032C169.71 36.04 169.482 36.934 169.026 37.714C168.57 38.494 167.946 39.1 167.154 39.532C166.374 39.952 165.51 40.162 164.562 40.162C163.626 40.162 162.78 39.952 162.024 39.532C161.268 39.1 160.674 38.5 160.242 37.732C159.81 36.952 159.594 36.052 159.594 35.032C159.594 34.024 159.816 33.13 160.26 32.35C160.704 31.57 161.31 30.97 162.078 30.55C162.846 30.13 163.704 29.92 164.652 29.92ZM164.616 31.648C164.088 31.648 163.602 31.78 163.158 32.044C162.714 32.296 162.354 32.68 162.078 33.196C161.814 33.7 161.682 34.312 161.682 35.032C161.682 35.752 161.808 36.37 162.06 36.886C162.324 37.402 162.672 37.792 163.104 38.056C163.548 38.308 164.034 38.434 164.562 38.434C165.09 38.434 165.582 38.302 166.038 38.038C166.506 37.774 166.884 37.39 167.172 36.886C167.46 36.37 167.604 35.752 167.604 35.032C167.604 34.312 167.466 33.7 167.19 33.196C166.914 32.68 166.548 32.296 166.092 32.044C165.636 31.78 165.144 31.648 164.616 31.648ZM180.721 30.082V40H178.669V38.434C178.345 38.998 177.907 39.424 177.355 39.712C176.815 40 176.197 40.144 175.501 40.144C174.781 40.144 174.127 39.982 173.539 39.658C172.963 39.334 172.501 38.86 172.153 38.236C171.817 37.6 171.649 36.832 171.649 35.932V30.082H173.683V35.626C173.683 36.514 173.905 37.198 174.349 37.678C174.793 38.146 175.399 38.38 176.167 38.38C176.935 38.38 177.541 38.146 177.985 37.678C178.441 37.198 178.669 36.514 178.669 35.626V30.082H180.721ZM188.648 29.92C189.368 29.92 190.016 30.082 190.592 30.406C191.18 30.73 191.642 31.21 191.978 31.846C192.326 32.482 192.5 33.25 192.5 34.15V40H190.466V34.456C190.466 33.568 190.244 32.89 189.8 32.422C189.356 31.942 188.75 31.702 187.982 31.702C187.214 31.702 186.602 31.942 186.146 32.422C185.702 32.89 185.48 33.568 185.48 34.456V40H183.428V30.082H185.48V31.648C185.804 31.084 186.236 30.658 186.776 30.37C187.328 30.07 187.952 29.92 188.648 29.92ZM197.512 31.756V37.246C197.512 37.618 197.596 37.888 197.764 38.056C197.944 38.212 198.244 38.29 198.664 38.29H199.924V40H198.304C197.38 40 196.672 39.784 196.18 39.352C195.688 38.92 195.442 38.218 195.442 37.246V31.756H194.272V30.082H195.442V27.616H197.512V30.082H199.924V31.756H197.512ZM206.189 26.536C207.413 26.536 208.391 26.872 209.123 27.544C209.867 28.216 210.239 29.134 210.239 30.298C210.239 31.594 209.885 32.524 209.177 33.088C208.469 33.652 207.419 33.94 206.027 33.952V36.148H204.083V32.548H204.947C205.691 32.56 206.297 32.506 206.765 32.386C207.245 32.266 207.617 32.044 207.881 31.72C208.145 31.396 208.277 30.922 208.277 30.298C208.277 29.662 208.091 29.164 207.719 28.804C207.359 28.444 206.855 28.264 206.207 28.264C205.559 28.264 205.049 28.438 204.677 28.786C204.305 29.134 204.119 29.62 204.119 30.244H202.193C202.193 29.524 202.355 28.882 202.679 28.318C203.003 27.754 203.465 27.316 204.065 27.004C204.677 26.692 205.385 26.536 206.189 26.536ZM205.091 37.624C205.439 37.624 205.733 37.744 205.973 37.984C206.213 38.224 206.333 38.518 206.333 38.866C206.333 39.214 206.213 39.508 205.973 39.748C205.733 39.988 205.439 40.108 205.091 40.108C204.755 40.108 204.467 39.988 204.227 39.748C203.987 39.508 203.867 39.214 203.867 38.866C203.867 38.518 203.987 38.224 204.227 37.984C204.467 37.744 204.755 37.624 205.091 37.624Z" fill="black"/>
</svg>
