<svg width="263" height="209" viewBox="0 0 263 209" fill="none" xmlns="http://www.w3.org/2000/svg">
<path fill-rule="evenodd" clip-rule="evenodd" d="M147.4 31.8C139.9 39.3 127.73 39.3 120.22 31.8C112.72 24.3 112.72 12.13 120.22 4.62C122.38 2.46 124.93 0.92 127.65 0C123.81 0.78 120.15 2.66 117.17 5.64C109.1 13.71 109.1 26.79 117.17 34.85C120.44 38.12 124.53 40.06 128.78 40.68L128.59 45.94C128.29 46.12 128.08 46.45 128.08 46.83C128.08 47.18 128.26 47.49 128.52 47.68L128.24 55.45C127.73 55.75 127.38 56.31 127.38 56.95C127.38 57.54 127.68 58.07 128.13 58.38L128.11 58.9L127.5 60.46C126.61 62.73 125.42 64.75 123.83 66.54C122.25 68.33 120.32 69.93 118.32 71.5C114.3 74.63 110.1 77.72 106.07 80.98C104.05 82.61 102.06 84.27 100.08 85.95C98.0196 87.7 96.1296 89.73 94.6796 92.11C94.3196 92.71 93.9596 93.31 93.6796 93.95C93.3496 94.57 93.1196 95.24 92.8696 95.9C92.4396 97.24 92.0896 98.63 92.0096 100.04C91.7596 102.87 92.3196 105.69 93.2996 108.25L94.6096 106.37L88.2696 106.45L86.9396 106.47L86.9596 107.77L87.0096 111.84L88.2796 110.58L80.5096 110.68L79.3296 110.7L79.3496 111.85L79.5696 124.41C79.6296 128.6 79.7396 132.78 79.8396 136.97L80.1396 149.53C80.2296 153.72 80.3796 157.9 80.5096 162.09C80.6396 157.9 80.7996 153.72 80.8796 149.53L81.1796 136.97C81.2796 132.78 81.3896 128.6 81.4496 124.41L81.6696 111.85L80.5096 113.01L88.2796 113.11L89.5296 113.13L89.5496 111.85L89.5996 107.78L88.2796 109.1L94.6196 109.18L96.5996 109.2L95.9296 107.29C95.1296 105.02 94.7496 102.64 94.9796 100.31C95.0596 99.15 95.3796 98.01 95.7396 96.91C95.9596 96.37 96.1496 95.82 96.4396 95.3C96.6796 94.77 96.9996 94.26 97.3096 93.76C98.5796 91.75 100.27 89.97 102.16 88.41C104.14 86.79 106.14 85.17 108.16 83.59C112.18 80.39 116.31 77.38 120.44 74.2C122.49 72.6 124.58 70.92 126.43 68.84C128.29 66.78 129.76 64.3 130.75 61.76L127.54 61.8C128.6 64.32 130.16 66.74 132.03 68.75C133.89 70.77 135.95 72.45 137.98 74.08C142.07 77.3 146.15 80.38 150.16 83.59C152.17 85.18 154.17 86.8 156.14 88.43C158.03 89.99 159.72 91.77 160.98 93.77L161.45 94.53C161.6 94.78 161.72 95.05 161.86 95.31C162.15 95.83 162.34 96.38 162.56 96.92C162.92 98.02 163.24 99.15 163.32 100.32C163.55 102.64 163.17 105.02 162.37 107.29L161.7 109.19L163.67 109.17L169.07 109.1L167.75 107.78L167.8 111.85L167.82 113.14L169.08 113.12L177.79 113L176.63 111.84L176.85 124.4C176.91 128.59 177.03 132.77 177.12 136.96L177.42 149.52C177.5 153.71 177.66 157.89 177.79 162.08C177.92 157.89 178.07 153.71 178.16 149.52L178.46 136.96C178.56 132.77 178.67 128.59 178.73 124.4L178.95 111.84L178.97 110.7L177.79 110.68L169.08 110.56L170.35 111.83L170.4 107.76L170.42 106.45L169.08 106.43L163.68 106.36L164.98 108.23C165.95 105.67 166.51 102.86 166.27 100.04C166.19 98.63 165.84 97.24 165.41 95.9C165.16 95.24 164.93 94.57 164.6 93.95C164.44 93.64 164.3 93.31 164.13 93.01L163.6 92.11C162.14 89.73 160.26 87.71 158.21 85.96C156.23 84.28 154.25 82.62 152.24 80.99C148.24 77.72 144.1 74.59 140.11 71.41C138.13 69.81 136.19 68.2 134.57 66.41C132.94 64.63 131.68 62.65 130.75 60.42L130.16 59.01L130.14 58.38C130.6 58.07 130.89 57.54 130.89 56.95C130.89 56.31 130.54 55.75 130.03 55.45L129.75 47.67C130.02 47.48 130.19 47.17 130.19 46.82C130.19 46.44 129.99 46.11 129.69 45.93L129.5 40.76C135.53 41.44 141.8 39.47 146.43 34.84C149.41 31.86 151.29 28.2 152.06 24.36C151.15 27.07 149.61 29.62 147.44 31.79L147.4 31.8Z" fill="url(#paint0_linear_10_2247)"/>
<path fill-rule="evenodd" clip-rule="evenodd" d="M135.35 24.5L141.02 23.38L140.43 22.52C140.17 22.2 140.35 22.03 140.74 21.63L142.59 19.73L140.09 18.97C139.82 18.82 139.76 18.6 139.83 18.47L140.06 17.27L137.17 18.33C136.71 18.51 136.24 18.25 136.78 17.58L139.85 13.79L138.53 13.77C138.19 13.76 137.93 13.26 137.93 13.26L138 9.76001L135.08 11.69C134.75 11.96 134.52 11.74 134.26 11.41L133.54 10.31L132.03 14.96C131.76 15.78 131.21 15.48 131.2 15.03L130.49 11.98L129.66 12.85C129.59 12.98 129.3 13.01 129.1 12.9L127.12 11.18L126.5 13.76C126.37 14.31 126.33 14.55 125.91 14.5L124.87 14.46L126.94 19.85C127 20.06 127.02 20.34 126.84 20.51L125.86 21.48C127.22 22.06 128.52 22.6 129.95 23.21C130.02 23.25 130.18 23.43 130.11 23.56L128.92 25.39L129.53 25.73L130.51 23.79C130.58 23.66 130.76 23.66 130.89 23.74C132.17 24.63 133.25 25.4 134.53 26.28L134.83 24.94C134.87 24.7 135.05 24.53 135.33 24.51L135.35 24.5Z" fill="#EC262A"/>
<path fill-rule="evenodd" clip-rule="evenodd" d="M134.11 17.93L131.29 23.04L129.83 22.2299L131.15 19.84C131.4 19.39 131.54 19.11 131.57 19C131.6 18.9 131.57 18.79 131.51 18.69C131.44 18.59 131.23 18.44 130.9 18.26L130.75 18.18L131.13 17.5C131.92 17.74 132.63 17.72 133.26 17.45L134.12 17.92L134.11 17.93Z" fill="#EC262A"/>
<path fill-rule="evenodd" clip-rule="evenodd" d="M134.73 18.73L134.47 18.59L134.51 18.51C134.51 18.51 134.54 18.45 134.54 18.43C134.54 18.42 134.54 18.41 134.52 18.4C134.5 18.4 134.49 18.39 134.47 18.4C134.45 18.4 134.44 18.43 134.42 18.46C134.4 18.5 134.39 18.53 134.39 18.55C134.39 18.57 134.4 18.61 134.43 18.66C134.51 18.8 134.56 18.91 134.56 18.97C134.56 19.03 134.54 19.12 134.48 19.23C134.44 19.31 134.4 19.36 134.36 19.38C134.32 19.41 134.27 19.42 134.2 19.41C134.14 19.41 134.07 19.39 134 19.35C133.93 19.31 133.87 19.26 133.83 19.2C133.79 19.14 133.78 19.09 133.79 19.03C133.79 18.98 133.82 18.91 133.87 18.83L133.91 18.76L134.17 18.9L134.1 19.03C134.1 19.03 134.07 19.1 134.07 19.11C134.07 19.12 134.08 19.14 134.1 19.15C134.12 19.15 134.14 19.15 134.15 19.15C134.17 19.15 134.18 19.12 134.2 19.09C134.24 19.03 134.25 18.98 134.24 18.95C134.24 18.92 134.21 18.87 134.16 18.78C134.12 18.7 134.09 18.64 134.08 18.61C134.08 18.58 134.07 18.54 134.08 18.49C134.08 18.45 134.1 18.39 134.14 18.33C134.18 18.25 134.23 18.19 134.27 18.17C134.31 18.14 134.36 18.13 134.42 18.14C134.48 18.14 134.54 18.16 134.61 18.2C134.68 18.24 134.73 18.29 134.77 18.34C134.81 18.39 134.83 18.44 134.82 18.49C134.82 18.53 134.79 18.6 134.74 18.69L134.72 18.73H134.73ZM135.61 18.79L135 18.45L134.88 18.67L135.05 18.76L134.57 19.62L134.85 19.77L135.33 18.91L135.49 19L135.61 18.78V18.79Z" fill="#EC262A"/>
<path fill-rule="evenodd" clip-rule="evenodd" d="M129.109 154.03C151.609 154.03 171.569 159.34 183.989 167.53C183.449 167.36 182.909 167.2 182.359 167.04C169.279 161.47 150.269 157.96 129.109 157.96C107.949 157.96 88.9395 161.47 75.8595 167.04C75.3095 167.2 74.7695 167.37 74.2295 167.53C86.6495 159.34 106.609 154.03 129.109 154.03ZM115.999 146.5C108.369 146.5 101.919 150.09 99.8195 155.01H99.2495V150.37H93.4195V155.01H92.4095V158.62C94.6595 157.93 96.9495 157.31 99.2595 156.77C109.299 154.42 119.769 153.45 129.099 153.45C129.839 153.45 130.589 153.45 131.339 153.47C128.669 149.36 122.799 146.5 115.979 146.5H115.999ZM103.139 154.25C104.139 152.76 105.549 151.52 107.069 150.58C110.239 148.61 114.109 147.73 117.819 147.73C120.549 147.73 123.329 148.2 125.869 149.23C125.769 149.18 125.659 149.13 125.559 149.08C122.779 147.79 119.669 147.2 116.619 147.2C112.909 147.2 109.039 148.09 105.869 150.05C104.049 151.18 102.389 152.73 101.389 154.64C101.959 154.51 102.539 154.38 103.129 154.26L103.139 154.25ZM145.809 142.61V154.46C147.729 154.69 149.669 154.97 151.599 155.3V142.61H145.809ZM150.509 143.57V144.6H149.479V143.57H150.509ZM148.959 143.57V144.6H147.929V143.57H148.959ZM149.479 145.12H150.509V146.15H149.479V145.12ZM147.559 145.84V146.88H146.529V145.84H147.559ZM147.929 148.08H148.959V149.12H147.929V148.08ZM155.209 147.43V155.96C158.799 156.67 162.359 157.55 165.819 158.62V147.43H155.209ZM156.179 148.39H157.209V149.42H156.179V148.39ZM157.729 148.39H158.759V149.42H157.729V148.39ZM157.209 149.94V150.97H156.179V149.94H157.209ZM159.129 150.66H160.159V151.7H159.129V150.66ZM158.759 152.9V153.93H157.729V152.9H158.759ZM164.999 150.17V151.28H163.889V150.17H164.999ZM163.889 149.61V148.5H164.999V149.61H163.889ZM148.459 121.24V142.02H152.189V155.39C152.999 155.53 153.819 155.68 154.629 155.84V146.85H158.179V125.91L148.459 121.25V121.24ZM153.419 134.88V135.91H152.379V134.88H153.419ZM151.869 134.88V135.91H150.839V134.88H151.869ZM152.389 136.43H153.429V137.47H152.389V136.43ZM150.469 137.15V138.19H149.439V137.15H150.469ZM150.839 139.39H151.869V140.43H150.839V139.39ZM149.659 124.46H150.769V125.57H149.659V124.46ZM150.769 126.11V127.22H149.659V126.11H150.769ZM154.379 127.98V126.94H155.409V127.98H154.379ZM155.929 126.94H156.959V127.98H155.929V126.94ZM156.959 128.49V129.53H155.929V128.49H156.959ZM155.409 129.53H154.379V128.49H155.409V129.53ZM156.959 130.54V131.57H155.929V130.54H156.959ZM155.409 132.94H154.379V131.9H155.409V132.94ZM156.959 133.69V134.73H155.929V133.69H156.959ZM155.999 135.55V136.59H154.969V135.55H155.999ZM152.819 131.58V130.54H153.859V131.58H152.819ZM140.359 132.07L137.859 134.65V149.22H136.539C136.189 137.54 135.829 125.92 135.409 114.18V113.79C136.429 113.59 137.139 113.16 137.139 112.66C137.139 112.43 136.989 112.21 136.719 112.02C137.079 111.63 137.299 111.15 137.299 110.63C137.299 109.83 136.799 109.13 136.019 108.68C136.069 108.59 136.099 108.5 136.099 108.4C136.099 108.05 135.739 107.75 135.179 107.57L134.849 98.24C135.429 98.03 135.829 97.58 135.829 97.06C135.829 96.6 135.519 96.2 135.049 95.97C135.119 95.9 135.159 95.83 135.159 95.75C135.159 95.59 134.999 95.44 134.749 95.35L134.229 80.59H133.999L133.479 95.35C133.229 95.44 133.069 95.59 133.069 95.75C133.069 95.83 133.109 95.91 133.179 95.97C132.709 96.2 132.399 96.61 132.399 97.06C132.399 97.58 132.799 98.03 133.379 98.24L133.049 107.53C132.429 107.7 132.009 108.03 132.009 108.4C132.009 108.52 132.049 108.63 132.129 108.73C131.399 109.17 130.939 109.86 130.939 110.62C130.939 111.14 131.149 111.62 131.519 112.01C131.249 112.2 131.099 112.41 131.099 112.65C131.099 113.15 131.809 113.58 132.839 113.78V114.17C132.479 124.9 132.169 135.55 131.859 146.23H128.829V138.39H126.519V136.08H122.669V138.39H120.359V146.29C121.389 146.48 122.409 146.74 123.409 147.07L123.469 147.09H123.509L123.529 147.11L123.589 147.13H123.609L123.619 147.14L123.709 147.17L123.819 147.21H123.829L123.919 147.24H123.929L123.959 147.25L124.019 147.27H124.039L124.139 147.31L124.249 147.35H124.269L124.329 147.37H124.359L124.389 147.39L124.449 147.41H124.459L124.509 147.43L124.569 147.45C124.629 147.47 124.689 147.5 124.749 147.52H124.769L124.809 147.55L124.869 147.58L124.919 147.61L124.969 147.63L125.029 147.66L125.069 147.68H125.089L125.149 147.72H125.169L125.269 147.77L125.329 147.8L125.379 147.82H125.389C125.449 147.85 125.509 147.88 125.569 147.91H125.589L125.629 147.94L125.689 147.97L125.749 148L125.789 148.02H125.809L125.869 148.06H125.899V148.08L125.989 148.12H125.999L126.049 148.15L126.109 148.18C126.179 148.22 126.239 148.25 126.309 148.29L126.399 148.34L126.449 148.37L126.499 148.4L126.559 148.44L126.589 148.46H126.609C126.669 148.5 126.729 148.54 126.789 148.57C126.859 148.61 126.919 148.65 126.989 148.68L127.089 148.74L127.129 148.76L127.189 148.79H127.219V148.81H127.239L127.249 148.83H127.259C127.659 149.08 128.049 149.34 128.419 149.62H128.429L128.439 149.64L128.509 149.69L128.549 149.73H128.569V149.75L128.639 149.8H128.649L128.659 149.82H128.679V149.84L128.699 149.86C128.829 149.96 128.949 150.06 129.069 150.16C129.149 150.23 129.229 150.29 129.309 150.36L129.349 150.39L129.419 150.45L129.499 150.52L129.589 150.61L129.749 150.75L129.769 150.77L129.839 150.84H129.849L129.939 150.93H129.949L130.019 151.01L130.059 151.05L130.099 151.09L130.159 151.16L130.179 151.18L130.259 151.26L130.329 151.34L130.399 151.42L130.459 151.49L130.479 151.51L130.559 151.6L130.579 151.63L130.649 151.71L130.699 151.78L130.749 151.84L130.819 151.93L130.839 151.96L130.919 152.05L130.939 152.08L130.989 152.14L131.009 152.16L131.059 152.23L131.129 152.32L131.199 152.42L131.249 152.5V152.52L131.299 152.57V152.59L131.359 152.66L131.389 152.69L131.459 152.8V152.81V152.82V152.84V152.86V152.88V152.89V152.91V152.93V152.94V152.95L131.509 153.03V153.05L131.529 153.08V153.1V153.12V153.14V153.16L131.579 153.24V153.26V153.28L131.629 153.36V153.38V153.4V153.41L131.649 153.44H131.719H131.759H131.789H131.859H131.929H131.979H131.999H132.069H132.089H132.139H132.209H132.279H132.319H132.359H132.429H132.499H132.549H132.569H132.639H132.659H132.709H132.849H132.879H132.919H132.989H133.059H133.099H133.129H133.199H133.209H133.269H133.319H133.339H133.409H133.429H133.479H133.539H133.609H133.639H133.679H133.749H133.819H133.869H133.899H133.969H133.989H134.049H134.109H134.129H134.199H134.229H134.279H134.349H134.429H134.469H134.499H134.569H134.629H134.679H134.699H134.769H134.789H134.839H134.899H134.969H134.999H135.039H135.109H135.179H135.219H135.249H135.319H135.329H135.389H135.439H135.459H135.529H135.549H135.599H135.669H135.739H135.889L136.169 153.46C136.689 153.49 137.209 153.52 137.729 153.55H137.809H137.849L138.079 153.57H138.149H138.189H138.259H138.309H138.379H138.429H138.499H138.549H138.619H138.669H138.729H138.779H138.839H138.889C140.819 153.71 142.779 153.9 144.749 154.13V141.77H146.509V131.82H139.849L140.359 132.07ZM121.469 139.71H122.499V140.74H121.469V139.71ZM123.019 139.71H124.049V140.74H123.019V139.71ZM122.499 141.26V142.29H121.469V141.26H122.499ZM124.419 141.98H125.449V143.02H124.419V141.98ZM124.049 144.22V145.26H123.019V144.22H124.049ZM140.159 140.16V139.12H141.189V140.16H140.159ZM141.709 139.12H142.739V140.16H141.709V139.12ZM142.739 140.67V141.71H141.709V140.67H142.739ZM141.189 141.71H140.159V140.67H141.189V141.71ZM142.739 142.72V143.75H141.709V142.72H142.739ZM141.189 145.12H140.159V144.08H141.189V145.12ZM142.739 145.87V146.91H141.709V145.87H142.739ZM138.599 143.76V142.73H139.629V143.76H138.599ZM145.839 133.2V134.24H144.799V133.2H145.839ZM144.289 133.2V134.24H143.259V133.2H144.289ZM144.809 134.75H145.849V135.78H144.809V134.75ZM142.889 135.47V136.51H141.849V135.47H142.889ZM143.259 137.71H144.289V138.75H143.259V137.71Z" fill="#00B900"/>
<mask id="mask0_10_2247" style="mask-type:luminance" maskUnits="userSpaceOnUse" x="74" y="80" width="110" height="88">
<path d="M129.109 154.03C151.609 154.03 171.569 159.34 183.989 167.53C183.449 167.36 182.909 167.2 182.359 167.04C169.279 161.47 150.269 157.96 129.109 157.96C107.949 157.96 88.9395 161.47 75.8595 167.04C75.3095 167.2 74.7695 167.37 74.2295 167.53C86.6495 159.34 106.609 154.03 129.109 154.03ZM115.999 146.5C108.369 146.5 101.919 150.09 99.8195 155.01H99.2495V150.37H93.4195V155.01H92.4095V158.62C94.6595 157.93 96.9495 157.31 99.2595 156.77C109.299 154.42 119.769 153.45 129.099 153.45C129.839 153.45 130.589 153.45 131.339 153.47C128.669 149.36 122.799 146.5 115.979 146.5H115.999ZM103.139 154.25C104.139 152.76 105.549 151.52 107.069 150.58C110.239 148.61 114.109 147.73 117.819 147.73C120.549 147.73 123.329 148.2 125.869 149.23C125.769 149.18 125.659 149.13 125.559 149.08C122.779 147.79 119.669 147.2 116.619 147.2C112.909 147.2 109.039 148.09 105.869 150.05C104.049 151.18 102.389 152.73 101.389 154.64C101.959 154.51 102.539 154.38 103.129 154.26L103.139 154.25ZM145.809 142.61V154.46C147.729 154.69 149.669 154.97 151.599 155.3V142.61H145.809ZM150.509 143.57V144.6H149.479V143.57H150.509ZM148.959 143.57V144.6H147.929V143.57H148.959ZM149.479 145.12H150.509V146.15H149.479V145.12ZM147.559 145.84V146.88H146.529V145.84H147.559ZM147.929 148.08H148.959V149.12H147.929V148.08ZM155.209 147.43V155.96C158.799 156.67 162.359 157.55 165.819 158.62V147.43H155.209ZM156.179 148.39H157.209V149.42H156.179V148.39ZM157.729 148.39H158.759V149.42H157.729V148.39ZM157.209 149.94V150.97H156.179V149.94H157.209ZM159.129 150.66H160.159V151.7H159.129V150.66ZM158.759 152.9V153.93H157.729V152.9H158.759ZM164.999 150.17V151.28H163.889V150.17H164.999ZM163.889 149.61V148.5H164.999V149.61H163.889ZM148.459 121.24V142.02H152.189V155.39C152.999 155.53 153.819 155.68 154.629 155.84V146.85H158.179V125.91L148.459 121.25V121.24ZM153.419 134.88V135.91H152.379V134.88H153.419ZM151.869 134.88V135.91H150.839V134.88H151.869ZM152.389 136.43H153.429V137.47H152.389V136.43ZM150.469 137.15V138.19H149.439V137.15H150.469ZM150.839 139.39H151.869V140.43H150.839V139.39ZM149.659 124.46H150.769V125.57H149.659V124.46ZM150.769 126.11V127.22H149.659V126.11H150.769ZM154.379 127.98V126.94H155.409V127.98H154.379ZM155.929 126.94H156.959V127.98H155.929V126.94ZM156.959 128.49V129.53H155.929V128.49H156.959ZM155.409 129.53H154.379V128.49H155.409V129.53ZM156.959 130.54V131.57H155.929V130.54H156.959ZM155.409 132.94H154.379V131.9H155.409V132.94ZM156.959 133.69V134.73H155.929V133.69H156.959ZM155.999 135.55V136.59H154.969V135.55H155.999ZM152.819 131.58V130.54H153.859V131.58H152.819ZM140.359 132.07L137.859 134.65V149.22H136.539C136.189 137.54 135.829 125.92 135.409 114.18V113.79C136.429 113.59 137.139 113.16 137.139 112.66C137.139 112.43 136.989 112.21 136.719 112.02C137.079 111.63 137.299 111.15 137.299 110.63C137.299 109.83 136.799 109.13 136.019 108.68C136.069 108.59 136.099 108.5 136.099 108.4C136.099 108.05 135.739 107.75 135.179 107.57L134.849 98.24C135.429 98.03 135.829 97.58 135.829 97.06C135.829 96.6 135.519 96.2 135.049 95.97C135.119 95.9 135.159 95.83 135.159 95.75C135.159 95.59 134.999 95.44 134.749 95.35L134.229 80.59H133.999L133.479 95.35C133.229 95.44 133.069 95.59 133.069 95.75C133.069 95.83 133.109 95.91 133.179 95.97C132.709 96.2 132.399 96.61 132.399 97.06C132.399 97.58 132.799 98.03 133.379 98.24L133.049 107.53C132.429 107.7 132.009 108.03 132.009 108.4C132.009 108.52 132.049 108.63 132.129 108.73C131.399 109.17 130.939 109.86 130.939 110.62C130.939 111.14 131.149 111.62 131.519 112.01C131.249 112.2 131.099 112.41 131.099 112.65C131.099 113.15 131.809 113.58 132.839 113.78V114.17C132.479 124.9 132.169 135.55 131.859 146.23H128.829V138.39H126.519V136.08H122.669V138.39H120.359V146.29C121.389 146.48 122.409 146.74 123.409 147.07L123.469 147.09H123.509L123.529 147.11L123.589 147.13H123.609L123.619 147.14L123.709 147.17L123.819 147.21H123.829L123.919 147.24H123.929L123.959 147.25L124.019 147.27H124.039L124.139 147.31L124.249 147.35H124.269L124.329 147.37H124.359L124.389 147.39L124.449 147.41H124.459L124.509 147.43L124.569 147.45C124.629 147.47 124.689 147.5 124.749 147.52H124.769L124.809 147.55L124.869 147.58L124.919 147.61L124.969 147.63L125.029 147.66L125.069 147.68H125.089L125.149 147.72H125.169L125.269 147.77L125.329 147.8L125.379 147.82H125.389C125.449 147.85 125.509 147.88 125.569 147.91H125.589L125.629 147.94L125.689 147.97L125.749 148L125.789 148.02H125.809L125.869 148.06H125.899V148.08L125.989 148.12H125.999L126.049 148.15L126.109 148.18C126.179 148.22 126.239 148.25 126.309 148.29L126.399 148.34L126.449 148.37L126.499 148.4L126.559 148.44L126.589 148.46H126.609C126.669 148.5 126.729 148.54 126.789 148.57C126.859 148.61 126.919 148.65 126.989 148.68L127.089 148.74L127.129 148.76L127.189 148.79H127.219V148.81H127.239L127.249 148.83H127.259C127.659 149.08 128.049 149.34 128.419 149.62H128.429L128.439 149.64L128.509 149.69L128.549 149.73H128.569V149.75L128.639 149.8H128.649L128.659 149.82H128.679V149.84L128.699 149.86C128.829 149.96 128.949 150.06 129.069 150.16C129.149 150.23 129.229 150.29 129.309 150.36L129.349 150.39L129.419 150.45L129.499 150.52L129.589 150.61L129.749 150.75L129.769 150.77L129.839 150.84H129.849L129.939 150.93H129.949L130.019 151.01L130.059 151.05L130.099 151.09L130.159 151.16L130.179 151.18L130.259 151.26L130.329 151.34L130.399 151.42L130.459 151.49L130.479 151.51L130.559 151.6L130.579 151.63L130.649 151.71L130.699 151.78L130.749 151.84L130.819 151.93L130.839 151.96L130.919 152.05L130.939 152.08L130.989 152.14L131.009 152.16L131.059 152.23L131.129 152.32L131.199 152.42L131.249 152.5V152.52L131.299 152.57V152.59L131.359 152.66L131.389 152.69L131.459 152.8V152.81V152.82V152.84V152.86V152.88V152.89V152.91V152.93V152.94V152.95L131.509 153.03V153.05L131.529 153.08V153.1V153.12V153.14V153.16L131.579 153.24V153.26V153.28L131.629 153.36V153.38V153.4V153.41L131.649 153.44H131.719H131.759H131.789H131.859H131.929H131.979H131.999H132.069H132.089H132.139H132.209H132.279H132.319H132.359H132.429H132.499H132.549H132.569H132.639H132.659H132.709H132.849H132.879H132.919H132.989H133.059H133.099H133.129H133.199H133.209H133.269H133.319H133.339H133.409H133.429H133.479H133.539H133.609H133.639H133.679H133.749H133.819H133.869H133.899H133.969H133.989H134.049H134.109H134.129H134.199H134.229H134.279H134.349H134.429H134.469H134.499H134.569H134.629H134.679H134.699H134.769H134.789H134.839H134.899H134.969H134.999H135.039H135.109H135.179H135.219H135.249H135.319H135.329H135.389H135.439H135.459H135.529H135.549H135.599H135.669H135.739H135.889L136.169 153.46C136.689 153.49 137.209 153.52 137.729 153.55H137.809H137.849L138.079 153.57H138.149H138.189H138.259H138.309H138.379H138.429H138.499H138.549H138.619H138.669H138.729H138.779H138.839H138.889C140.819 153.71 142.779 153.9 144.749 154.13V141.77H146.509V131.82H139.849L140.359 132.07ZM121.469 139.71H122.499V140.74H121.469V139.71ZM123.019 139.71H124.049V140.74H123.019V139.71ZM122.499 141.26V142.29H121.469V141.26H122.499ZM124.419 141.98H125.449V143.02H124.419V141.98ZM124.049 144.22V145.26H123.019V144.22H124.049ZM140.159 140.16V139.12H141.189V140.16H140.159ZM141.709 139.12H142.739V140.16H141.709V139.12ZM142.739 140.67V141.71H141.709V140.67H142.739ZM141.189 141.71H140.159V140.67H141.189V141.71ZM142.739 142.72V143.75H141.709V142.72H142.739ZM141.189 145.12H140.159V144.08H141.189V145.12ZM142.739 145.87V146.91H141.709V145.87H142.739ZM138.599 143.76V142.73H139.629V143.76H138.599ZM145.839 133.2V134.24H144.799V133.2H145.839ZM144.289 133.2V134.24H143.259V133.2H144.289ZM144.809 134.75H145.849V135.78H144.809V134.75ZM142.889 135.47V136.51H141.849V135.47H142.889ZM143.259 137.71H144.289V138.75H143.259V137.71Z" fill="white"/>
</mask>
<g mask="url(#mask0_10_2247)">
<path opacity="0.33" fill-rule="evenodd" clip-rule="evenodd" d="M103.379 113.48C138.399 127.42 159.049 128.79 190.099 146.24C122.969 159.95 181.639 143.03 103.379 113.48Z" fill="white"/>
</g>
<path fill-rule="evenodd" clip-rule="evenodd" d="M5.8699 186.94C5.7699 187.61 5.6099 188.39 5.0599 188.51C4.7599 188.57 4.6199 188.57 4.4699 188.57C4.2699 188.57 4.1499 188.61 4.1499 188.71C4.1499 188.89 4.3099 188.93 4.5099 188.93C5.1399 188.93 6.0999 188.87 6.4699 188.87C6.8299 188.87 7.7199 188.93 8.5499 188.93C8.8499 188.93 9.0299 188.89 9.0299 188.71C9.0299 188.61 8.8899 188.57 8.7299 188.57C8.5299 188.57 8.2499 188.55 7.8999 188.47C7.5599 188.39 7.3099 188.21 7.3099 187.84C7.3099 187.52 7.3299 187.27 7.3699 186.91L8.3999 179.02H8.4799C9.1699 180.51 10.3599 183 10.5399 183.42C10.7799 183.97 12.3399 187.01 12.8199 187.92C13.1399 188.51 13.3299 188.91 13.5099 188.91C13.6899 188.91 13.7899 188.73 14.2399 187.8L18.5599 178.8H18.6399L19.8299 187.52C19.9099 188.07 19.8499 188.33 19.7299 188.37C19.5899 188.43 19.5099 188.49 19.5099 188.59C19.5099 188.71 19.6299 188.77 20.0799 188.81C20.8699 188.87 23.6099 188.93 24.0999 188.93C24.3799 188.93 24.6199 188.87 24.6199 188.71C24.6199 188.59 24.4799 188.57 24.2999 188.57C24.0399 188.57 23.6499 188.55 23.0699 188.37C22.4799 188.19 22.2799 187.62 22.0999 186.37L20.2999 174.12C20.2399 173.7 20.1199 173.51 19.9399 173.51C19.7599 173.51 19.6599 173.67 19.4999 173.99L14.1099 185.31L8.6999 174.13C8.4399 173.61 8.3199 173.52 8.1599 173.52C7.9999 173.52 7.8799 173.7 7.8199 174.04L5.8599 186.96L5.8699 186.94Z" fill="url(#paint1_linear_10_2247)"/>
<path fill-rule="evenodd" clip-rule="evenodd" d="M27.3698 184.03C27.3698 185.58 27.3698 186.9 27.2898 187.62C27.2298 188.12 27.1298 188.43 26.7698 188.51C26.6098 188.55 26.4098 188.57 26.1598 188.57C25.9398 188.57 25.8798 188.67 25.8798 188.75C25.8798 188.87 25.9998 188.93 26.2198 188.93C26.5798 188.93 27.0098 188.91 27.4298 188.89C27.8498 188.89 28.2198 188.87 28.4198 188.87C28.9398 188.87 29.5898 188.89 30.4398 188.91C31.2898 188.95 32.3398 188.97 33.6498 188.97C34.2998 188.97 34.4598 188.97 34.5798 188.53C34.6798 188.19 34.8198 187.04 34.8198 186.67C34.8198 186.49 34.7998 186.27 34.6598 186.27C34.5398 186.27 34.4998 186.35 34.4598 186.53C34.3398 187.22 34.1398 187.58 33.7098 187.78C33.2498 187.98 32.5198 188 32.0598 188C30.2798 188 29.7398 187.74 29.6998 186.59C29.6798 186.09 29.6998 184.67 29.6998 184.09V182.74C29.6998 182.64 29.7198 182.56 29.7998 182.56C30.2398 182.56 32.2198 182.6 32.5298 182.64C33.1798 182.7 33.3998 182.96 33.4998 183.29C33.5398 183.51 33.5398 183.73 33.5598 183.9C33.5598 183.98 33.5998 184.04 33.7198 184.04C33.8798 184.04 33.8998 183.8 33.8998 183.66C33.8998 183.54 33.9398 182.87 33.9798 182.53C34.0798 181.68 34.1198 181.4 34.1198 181.3C34.1198 181.2 34.0598 181.12 33.9798 181.12C33.8998 181.12 33.8398 181.22 33.6998 181.34C33.5398 181.52 33.2798 181.56 32.8698 181.6C32.4698 181.64 30.2098 181.64 29.8198 181.64C29.7198 181.64 29.6998 181.56 29.6998 181.46V177.3C29.6998 177.2 29.7398 177.14 29.8198 177.14C30.1798 177.14 32.2598 177.18 32.5498 177.22C33.4198 177.3 33.5598 177.54 33.6998 177.83C33.7998 178.03 33.8198 178.33 33.8198 178.44C33.8198 178.58 33.8398 178.66 33.9598 178.66C34.0998 178.66 34.1398 178.46 34.1598 178.38C34.1998 178.18 34.2398 177.45 34.2598 177.27C34.2998 176.5 34.3998 176.3 34.3998 176.18C34.3998 176.1 34.3798 176.02 34.2798 176.02C34.1998 176.02 34.0998 176.08 33.9998 176.1C33.8598 176.12 33.5798 176.18 33.2698 176.2C32.9298 176.22 29.0698 176.2 28.5098 176.2C28.0098 176.2 26.8998 176.16 25.9898 176.16C25.7298 176.16 25.5898 176.2 25.5898 176.32C25.5898 176.44 25.7098 176.5 25.8898 176.5C26.1498 176.5 26.4398 176.52 26.5798 176.56C27.1298 176.72 27.2898 176.9 27.3298 177.47C27.3498 178.01 27.3498 178.48 27.3498 181.04V184.01L27.3698 184.03Z" fill="url(#paint2_linear_10_2247)"/>
<path fill-rule="evenodd" clip-rule="evenodd" d="M45.0499 189.14C46.1799 189.14 47.5099 189.04 48.1999 188.76C48.4999 188.64 48.5799 188.56 48.6599 188.26C48.8399 187.69 49.0399 186.22 49.0399 186.02C49.0399 185.88 48.9599 185.72 48.8399 185.72C48.6999 185.72 48.6599 185.8 48.6199 186.06C48.5599 186.38 48.3199 186.85 48.0299 187.19C47.3399 187.96 46.4799 188.08 44.9399 188.08C42.5999 188.08 39.5099 186.18 39.5099 182.17C39.5099 180.53 39.8299 178.9 41.1199 177.79C41.9099 177.12 42.8799 176.84 44.4099 176.84C46.0199 176.84 47.1799 177.26 47.7799 177.83C48.2199 178.27 48.4299 178.86 48.4499 179.4C48.4499 179.62 48.4899 179.76 48.6299 179.76C48.7899 179.76 48.8499 179.58 48.8699 179.34C48.8899 179 48.8899 178.07 48.9299 177.52C48.9699 176.93 49.0099 176.73 49.0099 176.59C49.0099 176.49 48.9499 176.41 48.7499 176.39C48.2299 176.33 47.6599 176.21 47.0099 176.11C46.2199 176.01 45.5599 175.93 44.4699 175.93C41.8699 175.93 40.2099 176.6 38.9399 177.71C37.2799 179.2 36.8999 181.18 36.8999 182.33C36.8999 183.95 37.3599 185.86 39.0799 187.3C40.6699 188.63 42.6899 189.12 45.0699 189.12L45.0499 189.14Z" fill="url(#paint3_linear_10_2247)"/>
<path fill-rule="evenodd" clip-rule="evenodd" d="M59.0196 189.14C60.1496 189.14 61.4796 189.04 62.1696 188.76C62.4696 188.64 62.5496 188.56 62.6296 188.26C62.8096 187.69 63.0096 186.22 63.0096 186.02C63.0096 185.88 62.9296 185.72 62.8096 185.72C62.6696 185.72 62.6296 185.8 62.5896 186.06C62.5296 186.38 62.2896 186.85 61.9996 187.19C61.3096 187.96 60.4496 188.08 58.9096 188.08C56.5696 188.08 53.4796 186.18 53.4796 182.17C53.4796 180.53 53.7996 178.9 55.0896 177.79C55.8796 177.12 56.8496 176.84 58.3796 176.84C59.9896 176.84 61.1496 177.26 61.7496 177.83C62.1896 178.27 62.3996 178.86 62.4196 179.4C62.4196 179.62 62.4596 179.76 62.5996 179.76C62.7596 179.76 62.8196 179.58 62.8396 179.34C62.8596 179 62.8596 178.07 62.8996 177.52C62.9396 176.93 62.9796 176.73 62.9796 176.59C62.9796 176.49 62.9196 176.41 62.7196 176.39C62.1996 176.33 61.6296 176.21 60.9796 176.11C60.1896 176.01 59.5296 175.93 58.4396 175.93C55.8396 175.93 54.1796 176.6 52.9096 177.71C51.2496 179.2 50.8696 181.18 50.8696 182.33C50.8696 183.95 51.3296 185.86 53.0496 187.3C54.6396 188.63 56.6596 189.12 59.0396 189.12L59.0196 189.14Z" fill="url(#paint4_linear_10_2247)"/>
<path fill-rule="evenodd" clip-rule="evenodd" d="M71.5895 184.68C71.6695 184.68 71.7295 184.7 71.7695 184.8L73.1195 188.19C73.1995 188.39 73.0795 188.55 72.9595 188.57C72.7795 188.59 72.7395 188.65 72.7395 188.75C72.7395 188.87 72.9395 188.87 73.2595 188.89C74.7295 188.93 75.9895 188.93 76.6095 188.93C77.2595 188.93 77.3595 188.89 77.3595 188.75C77.3595 188.63 77.2795 188.57 77.1195 188.57C76.9195 188.57 76.7195 188.55 76.4695 188.51C76.1495 188.45 75.6595 188.23 74.9795 186.71C73.8695 184.15 70.9595 177.26 70.5395 176.33C70.3595 175.95 70.2795 175.79 70.0195 175.79C69.8395 175.79 69.6995 175.99 69.4995 176.46L64.9395 187.06C64.5795 187.91 64.2895 188.43 63.4895 188.55C63.3295 188.55 63.1295 188.57 62.9695 188.57C62.8295 188.57 62.7695 188.65 62.7695 188.75C62.7695 188.89 62.8695 188.93 63.0895 188.93C63.9995 188.93 64.9295 188.87 65.1095 188.87C65.6595 188.87 66.4795 188.93 67.0495 188.93C67.2295 188.93 67.3295 188.89 67.3295 188.75C67.3295 188.65 67.2895 188.57 67.0695 188.57H66.8095C66.2695 188.57 66.1195 188.39 66.1195 188.09C66.1195 187.89 66.1995 187.48 66.3795 187.06L67.3095 184.8C67.3495 184.7 67.3695 184.68 67.4695 184.68H71.5695H71.5895ZM67.8395 183.75C67.7795 183.75 67.7395 183.71 67.7795 183.63L69.4595 179.37C69.4795 179.31 69.4995 179.21 69.5595 179.21C69.5995 179.21 69.6195 179.31 69.6395 179.37L71.2795 183.65C71.2995 183.71 71.2795 183.75 71.1995 183.75H67.8295H67.8395Z" fill="url(#paint5_linear_10_2247)"/>
<path fill-rule="evenodd" clip-rule="evenodd" d="M85.5996 183.17C85.5996 185.09 85.5996 186.66 85.4996 187.49C85.4396 188.06 85.3196 188.4 84.9296 188.48C84.7496 188.52 84.5096 188.56 84.2196 188.56C83.9796 188.56 83.8996 188.62 83.8996 188.72C83.8996 188.86 84.0396 188.92 84.2996 188.92C85.0896 188.92 86.3396 188.86 86.7996 188.86C87.3296 188.86 88.5796 188.92 89.8896 188.92C90.1096 188.92 90.2696 188.86 90.2696 188.72C90.2696 188.62 90.1696 188.56 89.9496 188.56C89.6496 188.56 89.2196 188.52 88.9396 188.48C88.3496 188.4 88.2096 188.04 88.1496 187.51C88.0696 186.66 88.0696 185.09 88.0696 183.17V179.68C88.0696 176.67 88.0696 176.11 88.1096 175.48C88.1496 174.79 88.3096 174.45 88.8396 174.35C89.0796 174.31 89.2396 174.29 89.4296 174.29C89.6196 174.29 89.7496 174.25 89.7496 174.09C89.7496 173.97 89.5896 173.93 89.3296 173.93C88.5796 173.93 87.4096 173.99 86.9096 173.99C86.3396 173.99 85.0896 173.93 84.3296 173.93C84.0096 173.93 83.8496 173.97 83.8496 174.09C83.8496 174.25 83.9696 174.29 84.1696 174.29C84.4096 174.29 84.6696 174.31 84.8796 174.37C85.3196 174.47 85.5096 174.81 85.5496 175.48C85.5896 176.11 85.5896 176.67 85.5896 179.68V183.17H85.5996Z" fill="url(#paint6_linear_10_2247)"/>
<path fill-rule="evenodd" clip-rule="evenodd" d="M96.0399 189.14C96.9699 189.14 98.1199 189.04 98.9499 188.45C100.22 187.56 100.69 186.55 100.69 185.3C100.69 183.77 99.9799 182.49 97.6799 181.22L96.9699 180.82C95.3999 179.95 95.1299 179.35 95.1299 178.6C95.1299 177.45 96.2599 176.8 97.5099 176.8C98.6399 176.8 99.1899 177.28 99.4499 177.59C99.8299 178.03 99.9099 178.54 99.9099 178.7C99.9099 178.9 99.9699 179 100.09 179C100.23 179 100.31 178.82 100.31 178.47C100.31 177.14 100.37 176.67 100.37 176.45C100.37 176.33 100.29 176.27 100.13 176.23C99.6699 176.11 98.7799 175.95 97.6499 175.95C95.2299 175.95 93.2499 177.28 93.2499 179.34C93.2499 180.83 93.9199 181.96 95.9799 183.16L96.9899 183.75C98.5399 184.66 98.7099 185.39 98.7099 186.13C98.7099 187.32 97.7999 188.27 96.2899 188.27C95.1999 188.27 93.8899 187.85 93.5199 186.61C93.4199 186.31 93.3599 185.96 93.3599 185.74C93.3599 185.62 93.3399 185.46 93.1799 185.46C93.0399 185.46 92.9599 185.64 92.9599 185.9C92.9399 186.18 92.8599 187.23 92.8599 188.14C92.8599 188.52 92.9199 188.6 93.1999 188.71C93.9499 189.05 95.0199 189.15 96.0299 189.15L96.0399 189.14Z" fill="url(#paint7_linear_10_2247)"/>
<path fill-rule="evenodd" clip-rule="evenodd" d="M106.8 181.05C106.8 178.49 106.8 178.02 106.84 177.48C106.88 176.89 107.02 176.65 107.49 176.57C107.69 176.53 107.97 176.51 108.16 176.51C108.38 176.51 108.48 176.45 108.48 176.33C108.48 176.21 108.36 176.17 108.1 176.17C107.43 176.17 106 176.21 105.58 176.21C105.1 176.21 103.99 176.17 103.18 176.17C102.92 176.17 102.8 176.21 102.8 176.33C102.8 176.45 102.9 176.51 103.1 176.51C103.32 176.51 103.54 176.53 103.67 176.57C104.22 176.73 104.38 176.91 104.42 177.48C104.44 178.02 104.44 178.49 104.44 181.05V184.02C104.44 185.57 104.44 186.89 104.36 187.61C104.3 188.11 104.2 188.42 103.84 188.5C103.68 188.54 103.48 188.56 103.23 188.56C103.01 188.56 102.95 188.66 102.95 188.74C102.95 188.86 103.07 188.92 103.29 188.92C103.65 188.92 104.08 188.9 104.5 188.88C104.92 188.88 105.29 188.86 105.49 188.86C106.2 188.86 106.94 188.88 107.81 188.9C108.68 188.94 109.69 188.96 110.94 188.96C111.85 188.96 111.93 188.88 112.05 188.5C112.19 188 112.31 186.76 112.31 186.56C112.31 186.36 112.27 186.18 112.15 186.18C112.01 186.18 111.97 186.28 111.95 186.44C111.91 186.76 111.73 187.23 111.51 187.45C111.07 187.91 110.4 187.93 109.47 187.93C108.12 187.93 107.45 187.83 107.15 187.57C106.77 187.25 106.77 186.18 106.77 184.02V181.05H106.8Z" fill="url(#paint8_linear_10_2247)"/>
<path fill-rule="evenodd" clip-rule="evenodd" d="M120.66 184.68C120.74 184.68 120.8 184.7 120.84 184.8L122.19 188.19C122.27 188.39 122.15 188.55 122.03 188.57C121.85 188.59 121.81 188.65 121.81 188.75C121.81 188.87 122.01 188.87 122.33 188.89C123.8 188.93 125.06 188.93 125.68 188.93C126.33 188.93 126.43 188.89 126.43 188.75C126.43 188.63 126.35 188.57 126.19 188.57C125.99 188.57 125.79 188.55 125.54 188.51C125.22 188.45 124.73 188.23 124.05 186.71C122.94 184.15 120.03 177.26 119.61 176.33C119.43 175.95 119.35 175.79 119.09 175.79C118.91 175.79 118.77 175.99 118.57 176.46L114.01 187.06C113.65 187.91 113.36 188.43 112.56 188.55C112.4 188.55 112.2 188.57 112.04 188.57C111.9 188.57 111.84 188.65 111.84 188.75C111.84 188.89 111.94 188.93 112.16 188.93C113.07 188.93 114 188.87 114.18 188.87C114.73 188.87 115.55 188.93 116.12 188.93C116.3 188.93 116.4 188.89 116.4 188.75C116.4 188.65 116.36 188.57 116.14 188.57H115.88C115.34 188.57 115.19 188.39 115.19 188.09C115.19 187.89 115.27 187.48 115.45 187.06L116.38 184.8C116.42 184.7 116.44 184.68 116.54 184.68H120.64H120.66ZM116.91 183.75C116.85 183.75 116.81 183.71 116.85 183.63L118.53 179.37C118.55 179.31 118.57 179.21 118.63 179.21C118.67 179.21 118.69 179.31 118.71 179.37L120.35 183.65C120.37 183.71 120.35 183.75 120.27 183.75H116.9H116.91Z" fill="url(#paint9_linear_10_2247)"/>
<path fill-rule="evenodd" clip-rule="evenodd" d="M127.65 187.24C127.57 187.8 127.41 188.47 126.94 188.53C126.66 188.57 126.54 188.57 126.41 188.57C126.23 188.57 126.13 188.65 126.13 188.73C126.13 188.89 126.27 188.93 126.45 188.93C127.01 188.93 127.84 188.87 128.17 188.87C128.49 188.87 129.28 188.93 130.01 188.93C130.27 188.93 130.43 188.89 130.43 188.73C130.43 188.65 130.31 188.57 130.15 188.57C129.99 188.57 129.83 188.55 129.54 188.49C129.24 188.43 129 188.31 129 187.99C129 187.71 129.02 187.49 129.06 187.2L129.89 180.62H129.95C130.52 181.79 131.56 183.91 131.69 184.23C131.89 184.71 133.28 187.28 133.69 188.05C133.97 188.57 134.17 188.9 134.38 188.9C134.58 188.9 134.68 188.74 135.07 187.95L138.82 180.42H138.88L139.85 187.71C139.91 188.19 139.87 188.38 139.77 188.42C139.65 188.46 139.57 188.52 139.57 188.6C139.57 188.7 139.67 188.78 140.09 188.8C140.78 188.84 143.26 188.92 143.7 188.92C143.96 188.92 144.16 188.86 144.16 188.72C144.16 188.62 144.04 188.56 143.88 188.56C143.66 188.56 143.38 188.54 142.89 188.4C142.36 188.24 142.2 187.79 142.04 186.74L140.45 176.34C140.39 175.98 140.19 175.8 140.05 175.8C139.89 175.8 139.73 175.94 139.59 176.22L134.91 185.73L130.23 176.34C129.99 175.88 129.87 175.8 129.69 175.8C129.55 175.8 129.39 175.96 129.35 176.24L127.63 187.24H127.65Z" fill="url(#paint10_linear_10_2247)"/>
<path fill-rule="evenodd" clip-rule="evenodd" d="M147.009 184.03C147.009 185.66 147.009 187 146.929 187.7C146.869 188.2 146.77 188.43 146.41 188.51C146.25 188.55 146.049 188.57 145.799 188.57C145.579 188.57 145.52 188.67 145.52 188.75C145.52 188.87 145.639 188.93 145.859 188.93C146.549 188.93 147.739 188.87 148.139 188.87C148.619 188.87 149.799 188.93 150.949 188.93C151.149 188.93 151.289 188.87 151.289 188.75C151.289 188.67 151.209 188.57 151.009 188.57C150.749 188.57 150.359 188.55 150.119 188.51C149.599 188.43 149.489 188.17 149.429 187.72C149.349 187.01 149.35 185.66 149.35 184.03V181.06C149.35 178.5 149.349 178.03 149.389 177.49C149.429 176.9 149.569 176.66 150.039 176.58C150.239 176.54 150.379 176.52 150.559 176.52C150.739 176.52 150.839 176.48 150.839 176.32C150.839 176.22 150.699 176.18 150.479 176.18C149.809 176.18 148.68 176.22 148.24 176.22C147.74 176.22 146.559 176.18 145.899 176.18C145.619 176.18 145.479 176.22 145.479 176.32C145.479 176.48 145.579 176.52 145.759 176.52C145.979 176.52 146.199 176.54 146.389 176.6C146.769 176.72 146.939 176.92 146.979 177.49C146.999 178.03 146.999 178.5 146.999 181.06V184.03H147.009Z" fill="url(#paint11_linear_10_2247)"/>
<path fill-rule="evenodd" clip-rule="evenodd" d="M161.14 189.14C162.27 189.14 163.6 189.04 164.29 188.76C164.59 188.64 164.67 188.56 164.75 188.26C164.93 187.69 165.13 186.22 165.13 186.02C165.13 185.88 165.05 185.72 164.93 185.72C164.79 185.72 164.75 185.8 164.71 186.06C164.65 186.38 164.41 186.85 164.12 187.19C163.43 187.96 162.57 188.08 161.03 188.08C158.69 188.08 155.6 186.18 155.6 182.17C155.6 180.53 155.92 178.9 157.21 177.79C158 177.12 158.97 176.84 160.5 176.84C162.11 176.84 163.27 177.26 163.87 177.83C164.31 178.27 164.52 178.86 164.54 179.4C164.54 179.62 164.58 179.76 164.72 179.76C164.88 179.76 164.94 179.58 164.96 179.34C164.98 179 164.98 178.07 165.02 177.52C165.06 176.93 165.1 176.73 165.1 176.59C165.1 176.49 165.04 176.41 164.84 176.39C164.32 176.33 163.75 176.21 163.1 176.11C162.31 176.01 161.65 175.93 160.56 175.93C157.96 175.93 156.3 176.6 155.03 177.71C153.37 179.2 152.99 181.18 152.99 182.33C152.99 183.95 153.45 185.86 155.17 187.3C156.76 188.63 158.78 189.12 161.16 189.12L161.14 189.14Z" fill="url(#paint12_linear_10_2247)"/>
<path fill-rule="evenodd" clip-rule="evenodd" d="M182.29 189.2C183.56 189.2 185.06 189.06 185.86 188.74C186.2 188.6 186.28 188.5 186.38 188.17C186.58 187.5 186.82 185.77 186.82 185.53C186.82 185.37 186.78 185.23 186.64 185.23C186.48 185.23 186.44 185.31 186.38 185.63C186.3 185.99 186.04 186.56 185.71 186.94C184.92 187.85 183.85 188.05 182.08 188.05C179.42 188.05 175.84 185.71 175.84 180.99C175.84 179.07 176.22 177.18 177.66 175.86C178.53 175.07 179.66 174.63 181.39 174.63C183.21 174.63 184.76 175.17 185.41 175.86C185.91 176.38 186.16 177.07 186.18 177.68C186.18 177.96 186.22 178.12 186.38 178.12C186.56 178.12 186.6 177.96 186.62 177.66C186.66 177.26 186.64 176.17 186.68 175.52C186.72 174.83 186.78 174.59 186.78 174.43C186.78 174.31 186.7 174.21 186.48 174.19C185.89 174.13 185.25 173.95 184.5 173.85C183.59 173.73 182.86 173.65 181.63 173.65C178.68 173.65 176.79 174.44 175.37 175.75C173.47 177.49 173.05 179.83 173.05 181.18C173.05 183.1 173.57 185.32 175.51 187.03C177.31 188.6 179.59 189.19 182.31 189.19L182.29 189.2Z" fill="url(#paint13_linear_10_2247)"/>
<path fill-rule="evenodd" clip-rule="evenodd" d="M190.65 184.03C190.65 185.58 190.65 186.9 190.57 187.62C190.51 188.12 190.41 188.43 190.05 188.51C189.89 188.55 189.69 188.57 189.44 188.57C189.22 188.57 189.16 188.67 189.16 188.75C189.16 188.87 189.28 188.93 189.5 188.93C189.86 188.93 190.29 188.91 190.71 188.89C191.13 188.89 191.5 188.87 191.7 188.87C192.22 188.87 192.87 188.89 193.72 188.91C194.57 188.95 195.62 188.97 196.93 188.97C197.58 188.97 197.74 188.97 197.86 188.53C197.96 188.19 198.1 187.04 198.1 186.67C198.1 186.49 198.08 186.27 197.94 186.27C197.82 186.27 197.78 186.35 197.74 186.53C197.62 187.22 197.42 187.58 196.99 187.78C196.53 187.98 195.8 188 195.35 188C193.57 188 193.03 187.74 192.99 186.59C192.97 186.09 192.99 184.67 192.99 184.09V182.74C192.99 182.64 193.01 182.56 193.09 182.56C193.53 182.56 195.51 182.6 195.82 182.64C196.47 182.7 196.69 182.96 196.79 183.29C196.83 183.51 196.83 183.73 196.85 183.9C196.85 183.98 196.89 184.04 197.01 184.04C197.17 184.04 197.19 183.8 197.19 183.66C197.19 183.54 197.23 182.87 197.27 182.53C197.37 181.68 197.41 181.4 197.41 181.3C197.41 181.2 197.35 181.12 197.27 181.12C197.19 181.12 197.13 181.22 196.99 181.34C196.83 181.52 196.57 181.56 196.16 181.6C195.76 181.64 193.5 181.64 193.11 181.64C193.01 181.64 192.99 181.56 192.99 181.46V177.3C192.99 177.2 193.03 177.14 193.11 177.14C193.47 177.14 195.55 177.18 195.84 177.22C196.71 177.3 196.85 177.54 196.99 177.83C197.09 178.03 197.11 178.33 197.11 178.44C197.11 178.58 197.13 178.66 197.25 178.66C197.39 178.66 197.43 178.46 197.45 178.38C197.49 178.18 197.53 177.45 197.55 177.27C197.59 176.5 197.69 176.3 197.69 176.18C197.69 176.1 197.67 176.02 197.57 176.02C197.49 176.02 197.39 176.08 197.29 176.1C197.15 176.12 196.87 176.18 196.56 176.2C196.22 176.22 192.36 176.2 191.8 176.2C191.3 176.2 190.19 176.16 189.28 176.16C189.02 176.16 188.88 176.2 188.88 176.32C188.88 176.44 189 176.5 189.18 176.5C189.44 176.5 189.73 176.52 189.87 176.56C190.42 176.72 190.58 176.9 190.62 177.47C190.64 178.01 190.64 178.48 190.64 181.04V184.01L190.65 184.03Z" fill="url(#paint14_linear_10_2247)"/>
<path fill-rule="evenodd" clip-rule="evenodd" d="M202.56 179.75H202.62C202.96 180.05 204.8 182.09 206.7 183.91C208.52 185.67 210.7 187.75 211.79 188.77C211.97 188.95 212.21 189.13 212.5 189.13C212.64 189.13 212.78 188.97 212.78 188.59L212.98 177.97C213 177.02 213.14 176.72 213.61 176.58C213.83 176.52 213.97 176.52 214.15 176.52C214.35 176.52 214.45 176.44 214.45 176.34C214.45 176.2 214.29 176.18 214.05 176.18C213.2 176.18 212.54 176.22 212.35 176.22C211.97 176.22 211.04 176.18 210.13 176.18C209.87 176.18 209.69 176.2 209.69 176.34C209.69 176.44 209.75 176.52 209.97 176.52C210.21 176.52 210.62 176.52 210.88 176.62C211.3 176.78 211.45 177.08 211.47 178.11L211.65 185.6H211.57C211.31 185.36 208.99 182.98 207.8 181.81C205.26 179.33 202.65 176.66 202.43 176.44C202.13 176.14 201.89 175.88 201.68 175.88C201.5 175.88 201.38 176.12 201.38 176.45L201.22 186.44C201.2 187.91 201.14 188.36 200.69 188.48C200.45 188.54 200.13 188.56 199.9 188.56C199.74 188.56 199.62 188.64 199.62 188.74C199.62 188.9 199.78 188.92 200.02 188.92C200.91 188.92 201.74 188.86 201.9 188.86C202.22 188.86 203.03 188.92 204.16 188.92C204.4 188.92 204.56 188.88 204.56 188.74C204.56 188.64 204.46 188.56 204.26 188.56C203.98 188.56 203.65 188.54 203.35 188.44C203.01 188.32 202.8 187.92 202.76 186.62L202.56 179.74V179.75Z" fill="url(#paint15_linear_10_2247)"/>
<path fill-rule="evenodd" clip-rule="evenodd" d="M220.66 184.03C220.66 185.58 220.659 186.9 220.579 187.62C220.519 188.12 220.419 188.43 220.059 188.51C219.919 188.55 219.699 188.57 219.449 188.57C219.229 188.57 219.169 188.67 219.169 188.75C219.169 188.87 219.289 188.93 219.509 188.93C220.199 188.93 221.389 188.87 221.789 188.87C222.289 188.87 223.45 188.93 224.6 188.93C224.8 188.93 224.939 188.87 224.939 188.75C224.939 188.67 224.86 188.57 224.66 188.57C224.4 188.57 224.01 188.55 223.77 188.51C223.25 188.43 223.16 188.11 223.1 187.64C223.02 186.91 222.999 185.58 222.999 184.03V177.21L225.199 177.25C226.769 177.27 227.219 177.79 227.259 178.22L227.279 178.4C227.299 178.66 227.339 178.74 227.479 178.74C227.579 178.74 227.619 178.64 227.639 178.46C227.639 178.02 227.679 176.78 227.679 176.42C227.679 176.16 227.659 176.06 227.539 176.06C227.479 176.06 227.339 176.1 227.059 176.14C226.799 176.18 226.429 176.22 225.869 176.22H218.799C218.229 176.22 217.569 176.2 217.059 176.14C216.619 176.08 216.449 175.94 216.309 175.94C216.209 175.94 216.149 176.04 216.109 176.26C216.069 176.4 215.729 178.02 215.729 178.3C215.729 178.48 215.769 178.58 215.889 178.58C216.009 178.58 216.049 178.5 216.089 178.36C216.129 178.24 216.209 178.02 216.389 177.79C216.649 177.41 217.06 177.29 218.07 177.27L220.669 177.21V184.03H220.66Z" fill="url(#paint16_linear_10_2247)"/>
<path fill-rule="evenodd" clip-rule="evenodd" d="M230.879 184.03C230.879 185.58 230.879 186.9 230.799 187.62C230.739 188.12 230.639 188.43 230.279 188.51C230.119 188.55 229.919 188.57 229.669 188.57C229.449 188.57 229.389 188.67 229.389 188.75C229.389 188.87 229.509 188.93 229.729 188.93C230.089 188.93 230.519 188.91 230.939 188.89C231.359 188.89 231.729 188.87 231.929 188.87C232.449 188.87 233.099 188.89 233.949 188.91C234.799 188.95 235.849 188.97 237.159 188.97C237.809 188.97 237.969 188.97 238.089 188.53C238.189 188.19 238.329 187.04 238.329 186.67C238.329 186.49 238.309 186.27 238.169 186.27C238.049 186.27 238.009 186.35 237.969 186.53C237.849 187.22 237.649 187.58 237.219 187.78C236.759 187.98 236.029 188 235.579 188C233.799 188 233.259 187.74 233.219 186.59C233.199 186.09 233.219 184.67 233.219 184.09V182.74C233.219 182.64 233.239 182.56 233.319 182.56C233.759 182.56 235.739 182.6 236.049 182.64C236.699 182.7 236.919 182.96 237.019 183.29C237.059 183.51 237.059 183.73 237.079 183.9C237.079 183.98 237.119 184.04 237.239 184.04C237.399 184.04 237.419 183.8 237.419 183.66C237.419 183.54 237.459 182.87 237.499 182.53C237.599 181.68 237.639 181.4 237.639 181.3C237.639 181.2 237.579 181.12 237.499 181.12C237.419 181.12 237.359 181.22 237.219 181.34C237.059 181.52 236.799 181.56 236.389 181.6C235.989 181.64 233.729 181.64 233.339 181.64C233.239 181.64 233.219 181.56 233.219 181.46V177.3C233.219 177.2 233.259 177.14 233.339 177.14C233.699 177.14 235.779 177.18 236.069 177.22C236.939 177.3 237.079 177.54 237.219 177.83C237.319 178.03 237.339 178.33 237.339 178.44C237.339 178.58 237.359 178.66 237.479 178.66C237.619 178.66 237.659 178.46 237.679 178.38C237.719 178.18 237.759 177.45 237.779 177.27C237.819 176.5 237.919 176.3 237.919 176.18C237.919 176.1 237.899 176.02 237.799 176.02C237.719 176.02 237.619 176.08 237.519 176.1C237.379 176.12 237.099 176.18 236.789 176.2C236.449 176.22 232.589 176.2 232.029 176.2C231.529 176.2 230.419 176.16 229.509 176.16C229.249 176.16 229.109 176.2 229.109 176.32C229.109 176.44 229.229 176.5 229.409 176.5C229.669 176.5 229.959 176.52 230.099 176.56C230.649 176.72 230.809 176.9 230.849 177.47C230.869 178.01 230.869 178.48 230.869 181.04V184.01L230.879 184.03Z" fill="url(#paint17_linear_10_2247)"/>
<path fill-rule="evenodd" clip-rule="evenodd" d="M241.9 184.03C241.9 185.58 241.9 186.9 241.82 187.62C241.76 188.12 241.66 188.43 241.3 188.51C241.14 188.55 240.94 188.57 240.69 188.57C240.47 188.57 240.41 188.67 240.41 188.75C240.41 188.87 240.53 188.93 240.75 188.93C241.44 188.93 242.55 188.87 242.89 188.87C243.15 188.87 244.59 188.93 245.61 188.93C245.83 188.93 245.97 188.87 245.97 188.75C245.97 188.67 245.89 188.57 245.75 188.57C245.53 188.57 245.16 188.55 244.9 188.51C244.37 188.43 244.29 188.11 244.23 187.62C244.15 186.91 244.13 185.6 244.13 184.03V183.79C244.13 183.69 244.19 183.65 244.27 183.65L245.84 183.69C245.96 183.69 246.06 183.71 246.16 183.81C246.38 184.07 247.11 185.2 247.8 186.11C248.77 187.42 249.42 188.21 250.18 188.59C250.64 188.83 251.11 188.93 252.08 188.93H253.74C253.96 188.93 254.08 188.89 254.08 188.75C254.08 188.67 254 188.57 253.86 188.57C253.72 188.57 253.62 188.57 253.44 188.53C253.16 188.47 252.55 188.39 251.58 187.42C250.53 186.37 249.3 184.84 247.76 182.94C249.46 181.57 250.18 180.46 250.18 179.21C250.18 178.08 249.45 177.23 248.95 176.89C248.02 176.28 246.75 176.18 245.64 176.18C245.1 176.18 243.52 176.22 242.92 176.22C242.56 176.22 241.45 176.18 240.54 176.18C240.28 176.18 240.14 176.22 240.14 176.34C240.14 176.46 240.26 176.52 240.44 176.52C240.7 176.52 240.99 176.54 241.13 176.58C241.68 176.74 241.84 176.92 241.88 177.49C241.9 178.03 241.9 178.5 241.9 181.06V184.03ZM244.12 177.35C244.12 177.21 244.16 177.15 244.28 177.11C244.46 177.07 244.87 177.05 245.31 177.05C246.34 177.05 247.97 177.66 247.97 180.04C247.97 181.43 247.38 182.16 246.84 182.54C246.54 182.76 246.3 182.82 245.61 182.82C245.17 182.82 244.66 182.78 244.28 182.66C244.16 182.6 244.12 182.54 244.12 182.36V177.35Z" fill="url(#paint18_linear_10_2247)"/>
<path fill-rule="evenodd" clip-rule="evenodd" d="M141.56 207.26C142.21 206.82 143.17 205.73 143.67 205.01C143.69 204.99 143.71 204.95 143.72 204.93C143.74 204.91 143.76 204.87 143.77 204.85C143.92 204.63 143.79 204.79 143.94 204.62C143.82 206.1 141.7 207.91 139.97 208.06C140.77 206.87 140.56 207.73 141.55 205.68C141.97 204.81 142.49 203.93 143.67 203.83C143.54 205.34 141.72 206.64 141.55 207.27L141.56 207.26ZM118.29 204.75L118.74 205.35C119.17 205.92 119.82 206.84 120.4 206.99C119.76 206.04 118.71 205.08 118.42 203.82C120.31 203.98 120.36 205.58 121.27 206.92C121.62 207.43 121.94 207.59 122.25 208.05C120.69 208.02 118.4 206.15 118.28 204.74L118.29 204.75ZM101.75 200.79H100.82C101.21 200.45 101.51 200.43 102.01 199.86C102.4 199.41 102.62 199.2 103.47 199.2C103.23 199.55 102.99 199.79 102.6 200.05C102.37 200.2 102.18 200.28 102.02 200.4L101.75 200.79ZM157.69 198.68C157.31 198.59 157.49 198.7 157.29 198.42C157.67 198.51 157.49 198.4 157.69 198.68ZM158.08 199.08C158.4 199.31 158.51 199.56 158.61 200.01C157.05 198.97 156.76 199.54 156.1 198.29C156.72 198.34 157.55 198.81 157.82 199.22L158.08 199.09V199.08ZM114.7 198.02C114.32 197.93 114.5 198.04 114.3 197.76C114.69 197.85 114.49 197.74 114.7 198.02ZM135.33 199.47C134.65 198.54 132.24 198.03 131.76 197.62C133.72 197.62 135.29 198.7 136.42 199.97C136.83 200.42 137.03 200.92 137.31 201.46C136.33 201.2 136.88 200.73 133.81 200.2C133.11 200.08 132.51 199.9 132.04 199.59C131.36 199.16 131.33 198.84 130.96 198.15C132.93 198.19 134.42 199.26 135.32 199.47H135.33ZM145.91 198.68C146.83 198.6 147.23 198.07 148.03 197.89C147.73 198.34 146.98 198.67 146.36 198.87C145.13 199.26 145.03 198.97 143.93 198.95C144.34 198.67 144.74 198.69 145.65 198.03C146.19 197.64 146.44 197.17 147.19 196.92C147.44 196.83 148.07 196.7 148.19 197C148.26 197.17 147.85 197.5 147.65 197.66L145.91 198.69V198.68ZM114.7 198.02C115.62 199.4 118.12 198.96 118.67 198.95L118.13 198.7C116.22 197.97 116.3 197.05 115.06 196.85C113.35 196.58 114.73 197.56 115.15 197.84C116 198.4 116.67 198.57 116.95 198.82C115.98 198.74 115.46 198.2 114.7 198.03V198.02ZM126.87 194.19C127.43 194.96 129.3 195.54 130.3 195.92L130.57 196.04C127.97 196.04 125.43 193.97 125.02 192.21C127.76 194.04 128.97 193.23 130.26 194.11C130.86 194.52 131.05 194.9 131.37 195.51C129.02 195.51 127.96 194.44 126.87 194.19ZM113.65 200.27C113.32 200.05 113.12 199.81 112.82 199.51C112.47 199.16 112.4 198.99 112.09 198.65C110.18 196.5 109.02 195.03 105.84 195.77C106.33 195.03 106.47 194.06 106.11 193.12C105.78 192.26 105.19 191.79 104.39 191.4C102.74 190.59 100.62 190.61 98.1697 190.61H70.2697C65.5897 190.61 61.1597 190.74 56.3897 190.74C46.9897 190.74 38.0197 190.87 28.6197 190.87C26.2597 190.87 24.1997 191 21.7397 191C19.2797 191 17.0697 191 14.7297 191C13.4397 191 12.6897 191.14 11.4197 191.13L0.969727 191.39C5.86973 191.39 10.3397 191.52 15.2497 191.52C16.5597 191.52 17.5297 191.66 18.6897 191.65H29.6697C32.1497 191.65 34.1797 191.78 36.6797 191.78L90.8997 191.91C92.2497 191.91 93.0997 192.04 94.4697 192.04C96.6997 192.04 99.5797 191.88 101.74 192.04C102.65 192.11 103.93 192.4 104.49 192.86C106.62 194.6 103.36 197.43 102.41 195.33C101.95 194.32 102.93 193.25 103.99 193.76C103.75 193.18 102.89 193.35 102.51 193.6C100.58 194.86 102.6 197.59 104.25 196.8C104.1 197.36 103.59 197.61 103.59 198.92C101.39 198.92 102.33 200.16 100.28 200.64V200.9C101.26 200.9 101.23 201.12 102.21 200.85C102.88 200.66 103.15 200.26 103.72 200.11C103.92 202.53 108.61 204.01 108.61 200.24H108.48C108.48 203.33 104.69 202.54 104.06 200.16C103.03 196.28 107.86 194.47 110.52 197.93C112.24 200.16 114.88 203.48 117.73 203.54C117.73 204.65 117.71 204.93 118.13 205.65C119.09 207.32 120.9 208.25 123.02 208.43C122.79 207.8 122.01 207.9 121.21 206.27C120.97 205.79 120.84 205.36 120.62 204.88C120.33 204.26 120.05 204.16 119.72 203.67C122.47 203.67 123.71 203.28 126.03 201.91C127.93 200.78 129.81 198.58 130.57 198.38C131.15 200.88 134.26 200.3 136.17 201.11C136.86 201.41 137.29 201.84 137.85 202.21C137.8 201.64 137.3 200.67 137.03 200.25C135.93 198.54 134.15 197.24 131.9 197.05C132.47 196.2 136.19 192.97 137.65 192.22C141.35 190.34 145.81 190.44 147.69 193.81C148.06 194.47 148.48 195.64 148.56 196.51C145.96 195.9 146.63 197.98 143.27 198.76C143.46 198.93 143.46 198.94 143.77 199.05C144.99 199.46 146.33 199.28 147.46 198.72C148.11 198.4 148.08 198.28 148.56 197.97C148.17 199.65 147.66 200.93 146.11 201.99C142.26 204.63 137.93 200.75 139.8 197.67C140.44 196.61 141.89 196.01 143.12 196.4C143.71 196.59 143.76 196.75 144.2 197.04C143.74 195.31 139.41 195.64 138.94 198.52C138.47 201.36 140.58 203.34 142.75 203.52C140.63 205.36 141.53 206.3 139.66 207.84C139.35 208.1 139.29 207.98 139.18 208.41C139.92 208.24 140.53 208.24 141.24 207.96C143.11 207.22 145.05 205.01 144.33 203.52C146.41 203.35 148.07 201.6 148.92 199.91C150.48 196.8 148.81 194.25 148.57 193.21C149.16 193.6 149.62 194.15 150.08 194.74C150.89 195.77 152.05 197.11 153.24 197.66C154.19 198.1 154.52 198.1 155.84 198.1C155.96 199.52 157.25 199.3 158.07 199.84C158.39 200.05 158.58 200.28 158.88 200.48C158.88 199.27 157.88 198.06 156.9 197.84C157.54 196.97 158.28 197.2 158.75 195.2C158.77 195.22 158.8 195.23 158.81 195.28L159.33 196.08C160.7 197.81 164.05 196.52 163.03 194.24C162.77 193.66 161.77 192.96 161 193.62C162.11 193.62 163.02 194.09 162.51 195.39C162.07 196.51 159.56 196.22 159.82 194.03C159.99 192.58 161.89 192.1 163.25 192.03C165.5 191.92 168.11 192.03 170.39 192.03C171.65 192.03 172.49 191.9 173.83 191.9L227.12 191.77C229.62 191.77 231.66 191.64 234.13 191.64H244.84C246.05 191.64 246.95 191.51 248.28 191.51C253.15 191.51 257.58 191.38 262.43 191.38L252.64 191.12C251.35 191.12 250.52 190.98 249.33 190.99H239.28C238.05 190.99 237.27 190.86 235.97 190.86C228.31 190.86 166.21 190.23 162.63 190.78C161.39 190.97 159.89 191.38 159.21 192.39C159.04 192.64 159.06 192.61 158.92 192.89C158.86 193 158.85 193.05 158.79 193.16L158.61 193.51C157.86 190.28 153.36 190.8 153.74 193.08C153.79 193.38 153.74 193.21 153.85 193.37C153.85 189.93 158.65 191.38 158.46 194.54C158.28 197.7 154.83 198.46 152.69 196.64C151.51 195.64 150.67 194.28 149.58 193.14C148.41 191.92 147.73 191.04 145.8 190.44C142.09 189.29 137.4 190.34 134.57 193C134.21 193.34 133.98 193.48 133.64 193.79C133.04 194.34 132.55 194.9 131.89 195.35C131.11 193.88 130.49 193.35 128.56 193.12C127.57 193 127.09 192.95 126.29 192.61C125.47 192.26 125.16 191.87 124.48 191.51C124.74 192.63 125.79 194.36 126.57 194.97C127.78 195.92 128.95 196.53 130.56 196.53L127.08 199.8C120.86 205.04 114.37 202.25 114.03 198.12C116.37 199.69 117.04 199.41 119.19 198.91C118.74 198.52 118.48 198.64 117.82 198.29C116.55 197.61 115.67 195.65 113.77 196.66C113.77 194.26 114.69 193.01 115.98 191.87C117.34 190.67 119.72 190.51 121.3 191.51C123.99 193.21 123.3 197.25 120.11 197.34C119.25 197.36 118.71 197.19 118.24 196.56L117.87 196.01C117.99 197.45 119.51 197.7 120.78 197.6C124.22 197.33 124.88 191.3 119.98 190.2C117.53 189.65 115.1 190.93 113.86 192.93C112.81 194.62 112.58 196.39 113.06 198.45C113.24 199.24 113.48 199.55 113.64 200.25L113.65 200.27Z" fill="url(#paint19_linear_10_2247)"/>
<defs>
<linearGradient id="paint0_linear_10_2247" x1="75.6796" y1="81.03" x2="187.98" y2="81.03" gradientUnits="userSpaceOnUse">
<stop stop-color="#7D441C"/>
<stop offset="0.03" stop-color="#F7E683"/>
<stop offset="0.07" stop-color="#895422"/>
<stop offset="0.08" stop-color="#895422"/>
<stop offset="0.16" stop-color="#E8B75B"/>
<stop offset="0.31" stop-color="#F7E683"/>
<stop offset="0.72" stop-color="#E8B55B"/>
<stop offset="1" stop-color="#503010"/>
</linearGradient>
<linearGradient id="paint1_linear_10_2247" x1="4.7799" y1="181.18" x2="265.83" y2="182.2" gradientUnits="userSpaceOnUse">
<stop stop-color="#B26828"/>
<stop offset="0.1" stop-color="#DEA845"/>
<stop offset="0.14" stop-color="#B26828"/>
<stop offset="0.35" stop-color="#DEA845"/>
<stop offset="0.42" stop-color="#DEA845"/>
<stop offset="0.56" stop-color="#DEA845"/>
<stop offset="0.75" stop-color="#B26828"/>
<stop offset="0.88" stop-color="#DEA845"/>
<stop offset="0.91" stop-color="#B26828"/>
<stop offset="1" stop-color="#B26828"/>
</linearGradient>
<linearGradient id="paint2_linear_10_2247" x1="4.73984" y1="182.39" x2="266.27" y2="183.41" gradientUnits="userSpaceOnUse">
<stop stop-color="#B26828"/>
<stop offset="0.1" stop-color="#DEA845"/>
<stop offset="0.14" stop-color="#B26828"/>
<stop offset="0.35" stop-color="#DEA845"/>
<stop offset="0.42" stop-color="#DEA845"/>
<stop offset="0.56" stop-color="#DEA845"/>
<stop offset="0.75" stop-color="#B26828"/>
<stop offset="0.88" stop-color="#DEA845"/>
<stop offset="0.91" stop-color="#B26828"/>
<stop offset="1" stop-color="#B26828"/>
</linearGradient>
<linearGradient id="paint3_linear_10_2247" x1="4.8399" y1="182.39" x2="265.86" y2="183.4" gradientUnits="userSpaceOnUse">
<stop stop-color="#B26828"/>
<stop offset="0.1" stop-color="#DEA845"/>
<stop offset="0.14" stop-color="#B26828"/>
<stop offset="0.35" stop-color="#DEA845"/>
<stop offset="0.42" stop-color="#DEA845"/>
<stop offset="0.56" stop-color="#DEA845"/>
<stop offset="0.75" stop-color="#B26828"/>
<stop offset="0.88" stop-color="#DEA845"/>
<stop offset="0.91" stop-color="#B26828"/>
<stop offset="1" stop-color="#B26828"/>
</linearGradient>
<linearGradient id="paint4_linear_10_2247" x1="4.87963" y1="182.33" x2="265.91" y2="183.35" gradientUnits="userSpaceOnUse">
<stop stop-color="#B26828"/>
<stop offset="0.1" stop-color="#DEA845"/>
<stop offset="0.14" stop-color="#B26828"/>
<stop offset="0.35" stop-color="#DEA845"/>
<stop offset="0.42" stop-color="#DEA845"/>
<stop offset="0.56" stop-color="#DEA845"/>
<stop offset="0.75" stop-color="#B26828"/>
<stop offset="0.88" stop-color="#DEA845"/>
<stop offset="0.91" stop-color="#B26828"/>
<stop offset="1" stop-color="#B26828"/>
</linearGradient>
<linearGradient id="paint5_linear_10_2247" x1="4.96953" y1="182.11" x2="265.87" y2="183.13" gradientUnits="userSpaceOnUse">
<stop stop-color="#B26828"/>
<stop offset="0.1" stop-color="#DEA845"/>
<stop offset="0.14" stop-color="#B26828"/>
<stop offset="0.35" stop-color="#DEA845"/>
<stop offset="0.42" stop-color="#DEA845"/>
<stop offset="0.56" stop-color="#DEA845"/>
<stop offset="0.75" stop-color="#B26828"/>
<stop offset="0.88" stop-color="#DEA845"/>
<stop offset="0.91" stop-color="#B26828"/>
<stop offset="1" stop-color="#B26828"/>
</linearGradient>
<linearGradient id="paint6_linear_10_2247" x1="4.73963" y1="181.11" x2="266.51" y2="182.13" gradientUnits="userSpaceOnUse">
<stop stop-color="#B26828"/>
<stop offset="0.1" stop-color="#DEA845"/>
<stop offset="0.14" stop-color="#B26828"/>
<stop offset="0.35" stop-color="#DEA845"/>
<stop offset="0.42" stop-color="#DEA845"/>
<stop offset="0.56" stop-color="#DEA845"/>
<stop offset="0.75" stop-color="#B26828"/>
<stop offset="0.88" stop-color="#DEA845"/>
<stop offset="0.91" stop-color="#B26828"/>
<stop offset="1" stop-color="#B26828"/>
</linearGradient>
<linearGradient id="paint7_linear_10_2247" x1="5.45985" y1="182.18" x2="265.21" y2="183.2" gradientUnits="userSpaceOnUse">
<stop stop-color="#B26828"/>
<stop offset="0.1" stop-color="#DEA845"/>
<stop offset="0.14" stop-color="#B26828"/>
<stop offset="0.35" stop-color="#DEA845"/>
<stop offset="0.42" stop-color="#DEA845"/>
<stop offset="0.56" stop-color="#DEA845"/>
<stop offset="0.75" stop-color="#B26828"/>
<stop offset="0.88" stop-color="#DEA845"/>
<stop offset="0.91" stop-color="#B26828"/>
<stop offset="1" stop-color="#B26828"/>
</linearGradient>
<linearGradient id="paint8_linear_10_2247" x1="4.81986" y1="182.16" x2="266.37" y2="183.18" gradientUnits="userSpaceOnUse">
<stop stop-color="#B26828"/>
<stop offset="0.1" stop-color="#DEA845"/>
<stop offset="0.14" stop-color="#B26828"/>
<stop offset="0.35" stop-color="#DEA845"/>
<stop offset="0.42" stop-color="#DEA845"/>
<stop offset="0.56" stop-color="#DEA845"/>
<stop offset="0.75" stop-color="#B26828"/>
<stop offset="0.88" stop-color="#DEA845"/>
<stop offset="0.91" stop-color="#B26828"/>
<stop offset="1" stop-color="#B26828"/>
</linearGradient>
<linearGradient id="paint9_linear_10_2247" x1="5.13982" y1="181.92" x2="266.05" y2="182.94" gradientUnits="userSpaceOnUse">
<stop stop-color="#B26828"/>
<stop offset="0.1" stop-color="#DEA845"/>
<stop offset="0.14" stop-color="#B26828"/>
<stop offset="0.35" stop-color="#DEA845"/>
<stop offset="0.42" stop-color="#DEA845"/>
<stop offset="0.56" stop-color="#DEA845"/>
<stop offset="0.75" stop-color="#B26828"/>
<stop offset="0.88" stop-color="#DEA845"/>
<stop offset="0.91" stop-color="#B26828"/>
<stop offset="1" stop-color="#B26828"/>
</linearGradient>
<linearGradient id="paint10_linear_10_2247" x1="5.10984" y1="181.86" x2="266.19" y2="182.88" gradientUnits="userSpaceOnUse">
<stop stop-color="#B26828"/>
<stop offset="0.1" stop-color="#DEA845"/>
<stop offset="0.14" stop-color="#B26828"/>
<stop offset="0.35" stop-color="#DEA845"/>
<stop offset="0.42" stop-color="#DEA845"/>
<stop offset="0.56" stop-color="#DEA845"/>
<stop offset="0.75" stop-color="#B26828"/>
<stop offset="0.88" stop-color="#DEA845"/>
<stop offset="0.91" stop-color="#B26828"/>
<stop offset="1" stop-color="#B26828"/>
</linearGradient>
<linearGradient id="paint11_linear_10_2247" x1="4.74955" y1="181.99" x2="266.509" y2="183.01" gradientUnits="userSpaceOnUse">
<stop stop-color="#B26828"/>
<stop offset="0.1" stop-color="#DEA845"/>
<stop offset="0.14" stop-color="#B26828"/>
<stop offset="0.35" stop-color="#DEA845"/>
<stop offset="0.42" stop-color="#DEA845"/>
<stop offset="0.56" stop-color="#DEA845"/>
<stop offset="0.75" stop-color="#B26828"/>
<stop offset="0.88" stop-color="#DEA845"/>
<stop offset="0.91" stop-color="#B26828"/>
<stop offset="1" stop-color="#B26828"/>
</linearGradient>
<linearGradient id="paint12_linear_10_2247" x1="5.18976" y1="181.93" x2="266.22" y2="182.95" gradientUnits="userSpaceOnUse">
<stop stop-color="#B26828"/>
<stop offset="0.1" stop-color="#DEA845"/>
<stop offset="0.14" stop-color="#B26828"/>
<stop offset="0.35" stop-color="#DEA845"/>
<stop offset="0.42" stop-color="#DEA845"/>
<stop offset="0.56" stop-color="#DEA845"/>
<stop offset="0.75" stop-color="#B26828"/>
<stop offset="0.88" stop-color="#DEA845"/>
<stop offset="0.91" stop-color="#B26828"/>
<stop offset="1" stop-color="#B26828"/>
</linearGradient>
<linearGradient id="paint13_linear_10_2247" x1="5.27976" y1="180.74" x2="266.28" y2="181.76" gradientUnits="userSpaceOnUse">
<stop stop-color="#B26828"/>
<stop offset="0.1" stop-color="#DEA845"/>
<stop offset="0.14" stop-color="#B26828"/>
<stop offset="0.35" stop-color="#DEA845"/>
<stop offset="0.42" stop-color="#DEA845"/>
<stop offset="0.56" stop-color="#DEA845"/>
<stop offset="0.75" stop-color="#B26828"/>
<stop offset="0.88" stop-color="#DEA845"/>
<stop offset="0.91" stop-color="#B26828"/>
<stop offset="1" stop-color="#B26828"/>
</linearGradient>
<linearGradient id="paint14_linear_10_2247" x1="4.91986" y1="181.75" x2="266.45" y2="182.77" gradientUnits="userSpaceOnUse">
<stop stop-color="#B26828"/>
<stop offset="0.1" stop-color="#DEA845"/>
<stop offset="0.14" stop-color="#B26828"/>
<stop offset="0.35" stop-color="#DEA845"/>
<stop offset="0.42" stop-color="#DEA845"/>
<stop offset="0.56" stop-color="#DEA845"/>
<stop offset="0.75" stop-color="#B26828"/>
<stop offset="0.88" stop-color="#DEA845"/>
<stop offset="0.91" stop-color="#B26828"/>
<stop offset="1" stop-color="#B26828"/>
</linearGradient>
<linearGradient id="paint15_linear_10_2247" x1="6.0796" y1="181.72" x2="266.14" y2="182.73" gradientUnits="userSpaceOnUse">
<stop stop-color="#B26828"/>
<stop offset="0.1" stop-color="#DEA845"/>
<stop offset="0.14" stop-color="#B26828"/>
<stop offset="0.35" stop-color="#DEA845"/>
<stop offset="0.42" stop-color="#DEA845"/>
<stop offset="0.56" stop-color="#DEA845"/>
<stop offset="0.75" stop-color="#B26828"/>
<stop offset="0.88" stop-color="#DEA845"/>
<stop offset="0.91" stop-color="#B26828"/>
<stop offset="1" stop-color="#B26828"/>
</linearGradient>
<linearGradient id="paint16_linear_10_2247" x1="5.74956" y1="181.61" x2="266.299" y2="182.62" gradientUnits="userSpaceOnUse">
<stop stop-color="#B26828"/>
<stop offset="0.1" stop-color="#DEA845"/>
<stop offset="0.14" stop-color="#B26828"/>
<stop offset="0.35" stop-color="#DEA845"/>
<stop offset="0.42" stop-color="#DEA845"/>
<stop offset="0.56" stop-color="#DEA845"/>
<stop offset="0.75" stop-color="#B26828"/>
<stop offset="0.88" stop-color="#DEA845"/>
<stop offset="0.91" stop-color="#B26828"/>
<stop offset="1" stop-color="#B26828"/>
</linearGradient>
<linearGradient id="paint17_linear_10_2247" x1="4.96934" y1="181.6" x2="266.499" y2="182.61" gradientUnits="userSpaceOnUse">
<stop stop-color="#B26828"/>
<stop offset="0.1" stop-color="#DEA845"/>
<stop offset="0.14" stop-color="#B26828"/>
<stop offset="0.35" stop-color="#DEA845"/>
<stop offset="0.42" stop-color="#DEA845"/>
<stop offset="0.56" stop-color="#DEA845"/>
<stop offset="0.75" stop-color="#B26828"/>
<stop offset="0.88" stop-color="#DEA845"/>
<stop offset="0.91" stop-color="#B26828"/>
<stop offset="1" stop-color="#B26828"/>
</linearGradient>
<linearGradient id="paint18_linear_10_2247" x1="4.73961" y1="181.62" x2="266.54" y2="182.64" gradientUnits="userSpaceOnUse">
<stop stop-color="#B26828"/>
<stop offset="0.1" stop-color="#DEA845"/>
<stop offset="0.14" stop-color="#B26828"/>
<stop offset="0.35" stop-color="#DEA845"/>
<stop offset="0.42" stop-color="#DEA845"/>
<stop offset="0.56" stop-color="#DEA845"/>
<stop offset="0.75" stop-color="#B26828"/>
<stop offset="0.88" stop-color="#DEA845"/>
<stop offset="0.91" stop-color="#B26828"/>
<stop offset="1" stop-color="#B26828"/>
</linearGradient>
<linearGradient id="paint19_linear_10_2247" x1="1.61973" y1="198.65" x2="275.41" y2="199.85" gradientUnits="userSpaceOnUse">
<stop stop-color="#B26828"/>
<stop offset="0.1" stop-color="#DEA845"/>
<stop offset="0.14" stop-color="#B26828"/>
<stop offset="0.35" stop-color="#DEA845"/>
<stop offset="0.42" stop-color="#DEA845"/>
<stop offset="0.56" stop-color="#DEA845"/>
<stop offset="0.75" stop-color="#B26828"/>
<stop offset="0.88" stop-color="#DEA845"/>
<stop offset="0.91" stop-color="#B26828"/>
<stop offset="1" stop-color="#B26828"/>
</linearGradient>
</defs>
</svg>
