<svg width="267" height="124" viewBox="0 0 267 124" fill="none" xmlns="http://www.w3.org/2000/svg">
<path d="M51.2771 13.446C51.2771 14.2587 51.0548 15.0253 50.6101 15.746C50.1808 16.4667 49.5445 17.0493 48.7011 17.494C47.8578 17.9387 46.8688 18.161 45.7341 18.161C44.0935 18.161 42.7518 17.77 41.7091 16.988C40.6665 16.206 40.1451 15.125 40.1451 13.745H42.9511C43.0125 14.4503 43.2731 15.01 43.7331 15.424C44.1931 15.838 44.8601 16.045 45.7341 16.045C46.6388 16.045 47.3441 15.815 47.8501 15.355C48.3715 14.895 48.6321 14.3047 48.6321 13.584C48.6321 13.0167 48.4711 12.572 48.1491 12.25C47.8425 11.9127 47.4515 11.6597 46.9761 11.491C46.5008 11.307 45.8491 11.1153 45.0211 10.916C43.9785 10.6707 43.1351 10.4177 42.4911 10.157C41.8471 9.881 41.2951 9.45167 40.8351 8.869C40.3751 8.271 40.1451 7.466 40.1451 6.454C40.1451 5.534 40.3751 4.72133 40.8351 4.016C41.2951 3.31067 41.9391 2.76633 42.7671 2.383C43.5951 1.99967 44.5458 1.808 45.6191 1.808C47.1831 1.808 48.4405 2.176 49.3911 2.912C50.3571 3.648 50.8938 4.71367 51.0011 6.109H48.1031C48.0418 5.49567 47.7811 4.982 47.3211 4.568C46.8611 4.154 46.2478 3.947 45.4811 3.947C44.6838 3.947 44.0398 4.14633 43.5491 4.545C43.0585 4.94367 42.8131 5.534 42.8131 6.316C42.8131 6.88333 42.9665 7.34333 43.2731 7.696C43.5951 8.03333 43.9938 8.294 44.4691 8.478C44.9445 8.64667 45.6038 8.83067 46.4471 9.03C47.4745 9.27533 48.3101 9.536 48.9541 9.812C49.5981 10.0727 50.1425 10.4943 50.5871 11.077C51.0471 11.6443 51.2771 12.434 51.2771 13.446ZM65.986 11.307C65.986 11.7517 65.9553 12.1657 65.894 12.549H56.188C56.2493 13.607 56.602 14.4503 57.246 15.079C57.9053 15.6923 58.7257 15.999 59.707 15.999C61.133 15.999 62.1373 15.4087 62.72 14.228H65.549C65.1657 15.3933 64.468 16.3517 63.456 17.103C62.444 17.839 61.1943 18.207 59.707 18.207C58.4957 18.207 57.4223 17.9387 56.487 17.402C55.5517 16.85 54.8157 16.0833 54.279 15.102C53.7577 14.1053 53.497 12.9553 53.497 11.652C53.497 10.3487 53.7577 9.20633 54.279 8.225C54.8157 7.22833 55.5593 6.46167 56.51 5.925C57.476 5.38833 58.58 5.12 59.822 5.12C61.018 5.12 62.0837 5.38067 63.019 5.902C63.9543 6.42333 64.6827 7.15167 65.204 8.087C65.7253 9.02233 65.986 10.0957 65.986 11.307ZM63.249 10.755C63.2337 9.71233 62.8887 8.88433 62.214 8.271C61.5393 7.64233 60.7037 7.328 59.707 7.328C58.7717 7.328 57.9743 7.64233 57.315 8.271C56.671 8.88433 56.303 9.71233 56.211 10.755H63.249ZM73.6723 5.12C74.669 5.12 75.543 5.35 76.2943 5.81C77.061 6.25467 77.6513 6.845 78.0653 7.581V5.327H80.7103V18H78.0653V15.631C77.636 16.413 77.0456 17.0417 76.2943 17.517C75.543 17.977 74.669 18.207 73.6723 18.207C72.5683 18.207 71.5563 17.931 70.6363 17.379C69.7316 16.8117 69.011 16.0297 68.4743 15.033C67.953 14.021 67.6923 12.8787 67.6923 11.606C67.6923 10.3333 67.953 9.20633 68.4743 8.225C69.011 7.24367 69.7316 6.48467 70.6363 5.948C71.5563 5.396 72.5683 5.12 73.6723 5.12ZM74.2243 7.397C73.5496 7.397 72.921 7.56567 72.3383 7.903C71.7556 8.225 71.2803 8.708 70.9123 9.352C70.5596 9.98067 70.3833 10.732 70.3833 11.606C70.3833 12.48 70.5596 13.2467 70.9123 13.906C71.2803 14.5653 71.7556 15.0713 72.3383 15.424C72.9363 15.7613 73.565 15.93 74.2243 15.93C74.899 15.93 75.5276 15.7613 76.1103 15.424C76.693 15.0867 77.1606 14.596 77.5133 13.952C77.8813 13.2927 78.0653 12.526 78.0653 11.652C78.0653 10.778 77.8813 10.019 77.5133 9.375C77.1606 8.731 76.693 8.24033 76.1103 7.903C75.5276 7.56567 74.899 7.397 74.2243 7.397ZM86.7762 7.535C87.1595 6.76833 87.6655 6.178 88.2942 5.764C88.9382 5.33467 89.6972 5.12 90.5712 5.12V7.834H89.9042C88.8769 7.834 88.0949 8.09467 87.5582 8.616C87.0369 9.13733 86.7762 10.042 86.7762 11.33V18H84.1542V5.327H86.7762V7.535ZM98.3173 5.12C99.8507 5.12 101.116 5.488 102.112 6.224C103.124 6.94467 103.807 7.97967 104.159 9.329H101.33C101.1 8.70033 100.732 8.20967 100.226 7.857C99.7203 7.50433 99.084 7.328 98.3173 7.328C97.244 7.328 96.3853 7.71133 95.7413 8.478C95.1127 9.22933 94.7983 10.2873 94.7983 11.652C94.7983 13.0167 95.1127 14.0823 95.7413 14.849C96.3853 15.6157 97.244 15.999 98.3173 15.999C99.8353 15.999 100.84 15.332 101.33 13.998H104.159C103.791 15.286 103.101 16.3133 102.089 17.08C101.077 17.8313 99.82 18.207 98.3173 18.207C97.106 18.207 96.0327 17.9387 95.0973 17.402C94.162 16.85 93.426 16.0833 92.8893 15.102C92.368 14.1053 92.1073 12.9553 92.1073 11.652C92.1073 10.3487 92.368 9.20633 92.8893 8.225C93.426 7.22833 94.162 6.46167 95.0973 5.925C96.0327 5.38833 97.106 5.12 98.3173 5.12ZM113.442 5.12C114.362 5.12 115.19 5.327 115.926 5.741C116.678 6.155 117.268 6.76833 117.697 7.581C118.142 8.39367 118.364 9.375 118.364 10.525V18H115.765V10.916C115.765 9.78133 115.482 8.915 114.914 8.317C114.347 7.70367 113.573 7.397 112.591 7.397C111.61 7.397 110.828 7.70367 110.245 8.317C109.678 8.915 109.394 9.78133 109.394 10.916V18H106.772V0.98H109.394V7.328C109.808 6.60733 110.36 6.063 111.05 5.695C111.756 5.31167 112.553 5.12 113.442 5.12ZM133.917 7.466H131.571V18H128.926V7.466H127.431V5.327H128.926V4.43C128.926 2.97333 129.31 1.91533 130.076 1.256C130.858 0.581333 132.077 0.244 133.733 0.244V2.429C132.936 2.429 132.376 2.58233 132.054 2.889C131.732 3.18033 131.571 3.694 131.571 4.43V5.327H133.917V7.466ZM138.863 7.535C139.246 6.76833 139.752 6.178 140.381 5.764C141.025 5.33467 141.784 5.12 142.658 5.12V7.834H141.991C140.964 7.834 140.182 8.09467 139.645 8.616C139.124 9.13733 138.863 10.042 138.863 11.33V18H136.241V5.327H138.863V7.535ZM150.68 5.12C151.892 5.12 152.988 5.38833 153.969 5.925C154.951 6.46167 155.725 7.22833 156.292 8.225C156.86 9.22167 157.143 10.364 157.143 11.652C157.143 12.94 156.852 14.0823 156.269 15.079C155.687 16.0757 154.889 16.85 153.877 17.402C152.881 17.9387 151.777 18.207 150.565 18.207C149.369 18.207 148.288 17.9387 147.322 17.402C146.356 16.85 145.597 16.0833 145.045 15.102C144.493 14.1053 144.217 12.9553 144.217 11.652C144.217 10.364 144.501 9.22167 145.068 8.225C145.636 7.22833 146.41 6.46167 147.391 5.925C148.373 5.38833 149.469 5.12 150.68 5.12ZM150.634 7.328C149.96 7.328 149.339 7.49667 148.771 7.834C148.204 8.156 147.744 8.64667 147.391 9.306C147.054 9.95 146.885 10.732 146.885 11.652C146.885 12.572 147.046 13.3617 147.368 14.021C147.706 14.6803 148.15 15.1787 148.702 15.516C149.27 15.838 149.891 15.999 150.565 15.999C151.24 15.999 151.869 15.8303 152.451 15.493C153.049 15.1557 153.532 14.665 153.9 14.021C154.268 13.3617 154.452 12.572 154.452 11.652C154.452 10.732 154.276 9.95 153.923 9.306C153.571 8.64667 153.103 8.156 152.52 7.834C151.938 7.49667 151.309 7.328 150.634 7.328ZM175.306 5.12C176.257 5.12 177.108 5.327 177.859 5.741C178.611 6.155 179.201 6.76833 179.63 7.581C180.075 8.39367 180.297 9.375 180.297 10.525V18H177.675V10.916C177.675 9.78133 177.392 8.915 176.824 8.317C176.257 7.70367 175.483 7.397 174.501 7.397C173.52 7.397 172.746 7.70367 172.178 8.317C171.611 8.915 171.327 9.78133 171.327 10.916V18H168.728V10.916C168.728 9.78133 168.445 8.915 167.877 8.317C167.31 7.70367 166.536 7.397 165.554 7.397C164.573 7.397 163.791 7.70367 163.208 8.317C162.641 8.915 162.357 9.78133 162.357 10.916V18H159.735V5.327H162.357V7.328C162.771 6.60733 163.323 6.063 164.013 5.695C164.719 5.31167 165.516 5.12 166.405 5.12C167.387 5.12 168.261 5.35 169.027 5.81C169.794 6.27 170.377 6.937 170.775 7.811C171.22 6.96767 171.833 6.30833 172.615 5.833C173.413 5.35767 174.31 5.12 175.306 5.12ZM196.141 5.12C197.353 5.12 198.449 5.38833 199.43 5.925C200.412 6.46167 201.186 7.22833 201.753 8.225C202.321 9.22167 202.604 10.364 202.604 11.652C202.604 12.94 202.313 14.0823 201.73 15.079C201.148 16.0757 200.35 16.85 199.338 17.402C198.342 17.9387 197.238 18.207 196.026 18.207C194.83 18.207 193.749 17.9387 192.783 17.402C191.817 16.85 191.058 16.0833 190.506 15.102C189.954 14.1053 189.678 12.9553 189.678 11.652C189.678 10.364 189.962 9.22167 190.529 8.225C191.097 7.22833 191.871 6.46167 192.852 5.925C193.834 5.38833 194.93 5.12 196.141 5.12ZM196.095 7.328C195.421 7.328 194.8 7.49667 194.232 7.834C193.665 8.156 193.205 8.64667 192.852 9.306C192.515 9.95 192.346 10.732 192.346 11.652C192.346 12.572 192.507 13.3617 192.829 14.021C193.167 14.6803 193.611 15.1787 194.163 15.516C194.731 15.838 195.352 15.999 196.026 15.999C196.701 15.999 197.33 15.8303 197.912 15.493C198.51 15.1557 198.993 14.665 199.361 14.021C199.729 13.3617 199.913 12.572 199.913 11.652C199.913 10.732 199.737 9.95 199.384 9.306C199.032 8.64667 198.564 8.156 197.981 7.834C197.399 7.49667 196.77 7.328 196.095 7.328ZM216.673 5.327V18H214.051V15.999C213.637 16.7197 213.078 17.264 212.372 17.632C211.682 18 210.893 18.184 210.003 18.184C209.083 18.184 208.248 17.977 207.496 17.563C206.76 17.149 206.17 16.5433 205.725 15.746C205.296 14.9333 205.081 13.952 205.081 12.802V5.327H207.68V12.411C207.68 13.5457 207.964 14.4197 208.531 15.033C209.099 15.631 209.873 15.93 210.854 15.93C211.836 15.93 212.61 15.631 213.177 15.033C213.76 14.4197 214.051 13.5457 214.051 12.411V5.327H216.673ZM222.755 7.535C223.138 6.76833 223.644 6.178 224.273 5.764C224.917 5.33467 225.676 5.12 226.55 5.12V7.834H225.883C224.855 7.834 224.073 8.09467 223.537 8.616C223.015 9.13733 222.755 10.042 222.755 11.33V18H220.133V5.327H222.755V7.535ZM12.6862 46.307C12.6862 46.7517 12.6555 47.1657 12.5942 47.549H2.88819C2.94952 48.607 3.30219 49.4503 3.94619 50.079C4.60553 50.6923 5.42586 50.999 6.40719 50.999C7.83319 50.999 8.83753 50.4087 9.42019 49.228H12.2492C11.8659 50.3933 11.1682 51.3517 10.1562 52.103C9.14419 52.839 7.89453 53.207 6.40719 53.207C5.19586 53.207 4.12253 52.9387 3.18719 52.402C2.25186 51.85 1.51586 51.0833 0.979191 50.102C0.457858 49.1053 0.197191 47.9553 0.197191 46.652C0.197191 45.3487 0.457858 44.2063 0.979191 43.225C1.51586 42.2283 2.25952 41.4617 3.21019 40.925C4.17619 40.3883 5.28019 40.12 6.52219 40.12C7.71819 40.12 8.78386 40.3807 9.71919 40.902C10.6545 41.4233 11.3829 42.1517 11.9042 43.087C12.4255 44.0223 12.6862 45.0957 12.6862 46.307ZM9.94919 45.755C9.93386 44.7123 9.58886 43.8843 8.91419 43.271C8.23952 42.6423 7.40386 42.328 6.40719 42.328C5.47186 42.328 4.67452 42.6423 4.01519 43.271C3.37119 43.8843 3.00319 44.7123 2.91119 45.755H9.94919ZM21.9365 40.12C22.8565 40.12 23.6845 40.327 24.4205 40.741C25.1718 41.155 25.7622 41.7683 26.1915 42.581C26.6362 43.3937 26.8585 44.375 26.8585 45.525V53H24.2595V45.916C24.2595 44.7813 23.9758 43.915 23.4085 43.317C22.8412 42.7037 22.0668 42.397 21.0855 42.397C20.1042 42.397 19.3222 42.7037 18.7395 43.317C18.1722 43.915 17.8885 44.7813 17.8885 45.916V53H15.2665V40.327H17.8885V42.328C18.3025 41.6073 18.8545 41.063 19.5445 40.695C20.2498 40.3117 21.0472 40.12 21.9365 40.12ZM35.815 40.12C37.0264 40.12 38.1227 40.3883 39.104 40.925C40.0854 41.4617 40.8597 42.2283 41.427 43.225C41.9944 44.2217 42.278 45.364 42.278 46.652C42.278 47.94 41.9867 49.0823 41.404 50.079C40.8214 51.0757 40.024 51.85 39.012 52.402C38.0154 52.9387 36.9114 53.207 35.7 53.207C34.504 53.207 33.423 52.9387 32.457 52.402C31.491 51.85 30.732 51.0833 30.18 50.102C29.628 49.1053 29.352 47.9553 29.352 46.652C29.352 45.364 29.6357 44.2217 30.203 43.225C30.7704 42.2283 31.5447 41.4617 32.526 40.925C33.5074 40.3883 34.6037 40.12 35.815 40.12ZM35.769 42.328C35.0944 42.328 34.4734 42.4967 33.906 42.834C33.3387 43.156 32.8787 43.6467 32.526 44.306C32.1887 44.95 32.02 45.732 32.02 46.652C32.02 47.572 32.181 48.3617 32.503 49.021C32.8404 49.6803 33.285 50.1787 33.837 50.516C34.4044 50.838 35.0254 50.999 35.7 50.999C36.3747 50.999 37.0034 50.8303 37.586 50.493C38.184 50.1557 38.667 49.665 39.035 49.021C39.403 48.3617 39.587 47.572 39.587 46.652C39.587 45.732 39.4107 44.95 39.058 44.306C38.7054 43.6467 38.2377 43.156 37.655 42.834C37.0724 42.4967 36.4437 42.328 35.769 42.328ZM47.492 42.535C47.8754 41.7683 48.3814 41.178 49.01 40.764C49.654 40.3347 50.413 40.12 51.287 40.12V42.834H50.62C49.5927 42.834 48.8107 43.0947 48.274 43.616C47.7527 44.1373 47.492 45.042 47.492 46.33V53H44.87V40.327H47.492V42.535ZM69.2682 40.12C70.2188 40.12 71.0698 40.327 71.8212 40.741C72.5725 41.155 73.1628 41.7683 73.5922 42.581C74.0368 43.3937 74.2592 44.375 74.2592 45.525V53H71.6372V45.916C71.6372 44.7813 71.3535 43.915 70.7862 43.317C70.2188 42.7037 69.4445 42.397 68.4632 42.397C67.4818 42.397 66.7075 42.7037 66.1402 43.317C65.5728 43.915 65.2892 44.7813 65.2892 45.916V53H62.6902V45.916C62.6902 44.7813 62.4065 43.915 61.8392 43.317C61.2718 42.7037 60.4975 42.397 59.5162 42.397C58.5348 42.397 57.7528 42.7037 57.1702 43.317C56.6028 43.915 56.3192 44.7813 56.3192 45.916V53H53.6972V40.327H56.3192V42.328C56.7332 41.6073 57.2852 41.063 57.9752 40.695C58.6805 40.3117 59.4778 40.12 60.3672 40.12C61.3485 40.12 62.2225 40.35 62.9892 40.81C63.7558 41.27 64.3385 41.937 64.7372 42.811C65.1818 41.9677 65.7952 41.3083 66.5772 40.833C67.3745 40.3577 68.2715 40.12 69.2682 40.12ZM83.2076 40.12C84.4189 40.12 85.5153 40.3883 86.4966 40.925C87.4779 41.4617 88.2523 42.2283 88.8196 43.225C89.3869 44.2217 89.6706 45.364 89.6706 46.652C89.6706 47.94 89.3793 49.0823 88.7966 50.079C88.2139 51.0757 87.4166 51.85 86.4046 52.402C85.4079 52.9387 84.3039 53.207 83.0926 53.207C81.8966 53.207 80.8156 52.9387 79.8496 52.402C78.8836 51.85 78.1246 51.0833 77.5726 50.102C77.0206 49.1053 76.7446 47.9553 76.7446 46.652C76.7446 45.364 77.0283 44.2217 77.5956 43.225C78.1629 42.2283 78.9373 41.4617 79.9186 40.925C80.8999 40.3883 81.9963 40.12 83.2076 40.12ZM83.1616 42.328C82.4869 42.328 81.8659 42.4967 81.2986 42.834C80.7313 43.156 80.2713 43.6467 79.9186 44.306C79.5813 44.95 79.4126 45.732 79.4126 46.652C79.4126 47.572 79.5736 48.3617 79.8956 49.021C80.2329 49.6803 80.6776 50.1787 81.2296 50.516C81.7969 50.838 82.4179 50.999 83.0926 50.999C83.7673 50.999 84.3959 50.8303 84.9786 50.493C85.5766 50.1557 86.0596 49.665 86.4276 49.021C86.7956 48.3617 86.9796 47.572 86.9796 46.652C86.9796 45.732 86.8033 44.95 86.4506 44.306C86.0979 43.6467 85.6303 43.156 85.0476 42.834C84.4649 42.4967 83.8363 42.328 83.1616 42.328ZM103.74 40.327V53H101.118V50.999C100.704 51.7197 100.144 52.264 99.4386 52.632C98.7486 53 97.9589 53.184 97.0696 53.184C96.1496 53.184 95.3139 52.977 94.5626 52.563C93.8266 52.149 93.2363 51.5433 92.7916 50.746C92.3623 49.9333 92.1476 48.952 92.1476 47.802V40.327H94.7466V47.411C94.7466 48.5457 95.0303 49.4197 95.5976 50.033C96.1649 50.631 96.9393 50.93 97.9206 50.93C98.9019 50.93 99.6763 50.631 100.244 50.033C100.826 49.4197 101.118 48.5457 101.118 47.411V40.327H103.74ZM111.638 40.12C113.049 40.12 114.183 40.488 115.042 41.224C115.916 41.9447 116.384 42.9337 116.445 44.191H113.754C113.708 43.5623 113.486 43.0717 113.087 42.719C112.704 42.3663 112.159 42.19 111.454 42.19C110.749 42.19 110.197 42.351 109.798 42.673C109.399 42.9797 109.2 43.3783 109.2 43.869C109.2 44.2677 109.33 44.5897 109.591 44.835C109.852 45.0803 110.181 45.272 110.58 45.41C110.994 45.5327 111.546 45.6707 112.236 45.824C113.171 46.0387 113.923 46.2533 114.49 46.468C115.073 46.6827 115.571 47.0353 115.985 47.526C116.399 48.0013 116.606 48.653 116.606 49.481C116.606 50.2017 116.391 50.8457 115.962 51.413C115.548 51.9803 114.965 52.425 114.214 52.747C113.463 53.0537 112.612 53.207 111.661 53.207C110.189 53.207 109.001 52.8543 108.096 52.149C107.191 51.4437 106.693 50.4393 106.601 49.136H109.315C109.361 49.7647 109.591 50.2553 110.005 50.608C110.419 50.9607 110.971 51.137 111.661 51.137C112.397 51.137 112.972 50.9837 113.386 50.677C113.815 50.355 114.03 49.941 114.03 49.435C114.03 49.021 113.892 48.6913 113.616 48.446C113.355 48.2007 113.018 48.0167 112.604 47.894C112.19 47.756 111.63 47.6103 110.925 47.457C110.005 47.2423 109.261 47.0353 108.694 46.836C108.127 46.6213 107.636 46.284 107.222 45.824C106.823 45.364 106.624 44.743 106.624 43.961C106.624 43.2557 106.823 42.6117 107.222 42.029C107.621 41.4463 108.196 40.9863 108.947 40.649C109.714 40.2963 110.611 40.12 111.638 40.12ZM131.717 40.12C133.25 40.12 134.515 40.488 135.512 41.224C136.524 41.9447 137.206 42.9797 137.559 44.329H134.73C134.5 43.7003 134.132 43.2097 133.626 42.857C133.12 42.5043 132.483 42.328 131.717 42.328C130.643 42.328 129.785 42.7113 129.141 43.478C128.512 44.2293 128.198 45.2873 128.198 46.652C128.198 48.0167 128.512 49.0823 129.141 49.849C129.785 50.6157 130.643 50.999 131.717 50.999C133.235 50.999 134.239 50.332 134.73 48.998H137.559C137.191 50.286 136.501 51.3133 135.489 52.08C134.477 52.8313 133.219 53.207 131.717 53.207C130.505 53.207 129.432 52.9387 128.497 52.402C127.561 51.85 126.825 51.0833 126.289 50.102C125.767 49.1053 125.507 47.9553 125.507 46.652C125.507 45.3487 125.767 44.2063 126.289 43.225C126.825 42.2283 127.561 41.4617 128.497 40.925C129.432 40.3883 130.505 40.12 131.717 40.12ZM145.784 40.12C146.995 40.12 148.091 40.3883 149.073 40.925C150.054 41.4617 150.828 42.2283 151.396 43.225C151.963 44.2217 152.247 45.364 152.247 46.652C152.247 47.94 151.955 49.0823 151.373 50.079C150.79 51.0757 149.993 51.85 148.981 52.402C147.984 52.9387 146.88 53.207 145.669 53.207C144.473 53.207 143.392 52.9387 142.426 52.402C141.46 51.85 140.701 51.0833 140.149 50.102C139.597 49.1053 139.321 47.9553 139.321 46.652C139.321 45.364 139.604 44.2217 140.172 43.225C140.739 42.2283 141.513 41.4617 142.495 40.925C143.476 40.3883 144.572 40.12 145.784 40.12ZM145.738 42.328C145.063 42.328 144.442 42.4967 143.875 42.834C143.307 43.156 142.847 43.6467 142.495 44.306C142.157 44.95 141.989 45.732 141.989 46.652C141.989 47.572 142.15 48.3617 142.472 49.021C142.809 49.6803 143.254 50.1787 143.806 50.516C144.373 50.838 144.994 50.999 145.669 50.999C146.343 50.999 146.972 50.8303 147.555 50.493C148.153 50.1557 148.636 49.665 149.004 49.021C149.372 48.3617 149.556 47.572 149.556 46.652C149.556 45.732 149.379 44.95 149.027 44.306C148.674 43.6467 148.206 43.156 147.624 42.834C147.041 42.4967 146.412 42.328 145.738 42.328ZM157.461 35.98V53H154.839V35.98H157.461ZM163.525 35.98V53H160.903V35.98H163.525ZM178.583 46.307C178.583 46.7517 178.552 47.1657 178.491 47.549H168.785C168.846 48.607 169.199 49.4503 169.843 50.079C170.502 50.6923 171.322 50.999 172.304 50.999C173.73 50.999 174.734 50.4087 175.317 49.228H178.146C177.762 50.3933 177.065 51.3517 176.053 52.103C175.041 52.839 173.791 53.207 172.304 53.207C171.092 53.207 170.019 52.9387 169.084 52.402C168.148 51.85 167.412 51.0833 166.876 50.102C166.354 49.1053 166.094 47.9553 166.094 46.652C166.094 45.3487 166.354 44.2063 166.876 43.225C167.412 42.2283 168.156 41.4617 169.107 40.925C170.073 40.3883 171.177 40.12 172.419 40.12C173.615 40.12 174.68 40.3807 175.616 40.902C176.551 41.4233 177.279 42.1517 177.801 43.087C178.322 44.0223 178.583 45.0957 178.583 46.307ZM175.846 45.755C175.83 44.7123 175.485 43.8843 174.811 43.271C174.136 42.6423 173.3 42.328 172.304 42.328C171.368 42.328 170.571 42.6423 169.912 43.271C169.268 43.8843 168.9 44.7123 168.808 45.755H175.846ZM186.499 40.12C188.032 40.12 189.297 40.488 190.294 41.224C191.306 41.9447 191.988 42.9797 192.341 44.329H189.512C189.282 43.7003 188.914 43.2097 188.408 42.857C187.902 42.5043 187.266 42.328 186.499 42.328C185.426 42.328 184.567 42.7113 183.923 43.478C183.294 44.2293 182.98 45.2873 182.98 46.652C182.98 48.0167 183.294 49.0823 183.923 49.849C184.567 50.6157 185.426 50.999 186.499 50.999C188.017 50.999 189.021 50.332 189.512 48.998H192.341C191.973 50.286 191.283 51.3133 190.271 52.08C189.259 52.8313 188.002 53.207 186.499 53.207C185.288 53.207 184.214 52.9387 183.279 52.402C182.344 51.85 181.608 51.0833 181.071 50.102C180.55 49.1053 180.289 47.9553 180.289 46.652C180.289 45.3487 180.55 44.2063 181.071 43.225C181.608 42.2283 182.344 41.4617 183.279 40.925C184.214 40.3883 185.288 40.12 186.499 40.12ZM198.013 42.466V49.481C198.013 49.9563 198.12 50.3013 198.335 50.516C198.565 50.7153 198.948 50.815 199.485 50.815H201.095V53H199.025C197.844 53 196.94 52.724 196.311 52.172C195.682 51.62 195.368 50.723 195.368 49.481V42.466H193.873V40.327H195.368V37.176H198.013V40.327H201.095V42.466H198.013ZM203.167 36.969C203.167 36.4937 203.328 36.095 203.65 35.773C203.972 35.451 204.37 35.29 204.846 35.29C205.306 35.29 205.697 35.451 206.019 35.773C206.341 36.095 206.502 36.4937 206.502 36.969C206.502 37.4443 206.341 37.843 206.019 38.165C205.697 38.487 205.306 38.648 204.846 38.648C204.37 38.648 203.972 38.487 203.65 38.165C203.328 37.843 203.167 37.4443 203.167 36.969ZM206.134 40.327V53H203.512V40.327H206.134ZM215.188 40.12C216.399 40.12 217.496 40.3883 218.477 40.925C219.458 41.4617 220.233 42.2283 220.8 43.225C221.367 44.2217 221.651 45.364 221.651 46.652C221.651 47.94 221.36 49.0823 220.777 50.079C220.194 51.0757 219.397 51.85 218.385 52.402C217.388 52.9387 216.284 53.207 215.073 53.207C213.877 53.207 212.796 52.9387 211.83 52.402C210.864 51.85 210.105 51.0833 209.553 50.102C209.001 49.1053 208.725 47.9553 208.725 46.652C208.725 45.364 209.009 44.2217 209.576 43.225C210.143 42.2283 210.918 41.4617 211.899 40.925C212.88 40.3883 213.977 40.12 215.188 40.12ZM215.142 42.328C214.467 42.328 213.846 42.4967 213.279 42.834C212.712 43.156 212.252 43.6467 211.899 44.306C211.562 44.95 211.393 45.732 211.393 46.652C211.393 47.572 211.554 48.3617 211.876 49.021C212.213 49.6803 212.658 50.1787 213.21 50.516C213.777 50.838 214.398 50.999 215.073 50.999C215.748 50.999 216.376 50.8303 216.959 50.493C217.557 50.1557 218.04 49.665 218.408 49.021C218.776 48.3617 218.96 47.572 218.96 46.652C218.96 45.732 218.784 44.95 218.431 44.306C218.078 43.6467 217.611 43.156 217.028 42.834C216.445 42.4967 215.817 42.328 215.142 42.328ZM230.913 40.12C231.833 40.12 232.661 40.327 233.397 40.741C234.148 41.155 234.739 41.7683 235.168 42.581C235.613 43.3937 235.835 44.375 235.835 45.525V53H233.236V45.916C233.236 44.7813 232.952 43.915 232.385 43.317C231.818 42.7037 231.043 42.397 230.062 42.397C229.081 42.397 228.299 42.7037 227.716 43.317C227.149 43.915 226.865 44.7813 226.865 45.916V53H224.243V40.327H226.865V42.328C227.279 41.6073 227.831 41.063 228.521 40.695C229.226 40.3117 230.024 40.12 230.913 40.12ZM251.687 40.12C252.898 40.12 253.995 40.3883 254.976 40.925C255.957 41.4617 256.732 42.2283 257.299 43.225C257.866 44.2217 258.15 45.364 258.15 46.652C258.15 47.94 257.859 49.0823 257.276 50.079C256.693 51.0757 255.896 51.85 254.884 52.402C253.887 52.9387 252.783 53.207 251.572 53.207C250.376 53.207 249.295 52.9387 248.329 52.402C247.363 51.85 246.604 51.0833 246.052 50.102C245.5 49.1053 245.224 47.9553 245.224 46.652C245.224 45.364 245.508 44.2217 246.075 43.225C246.642 42.2283 247.417 41.4617 248.398 40.925C249.379 40.3883 250.476 40.12 251.687 40.12ZM251.641 42.328C250.966 42.328 250.345 42.4967 249.778 42.834C249.211 43.156 248.751 43.6467 248.398 44.306C248.061 44.95 247.892 45.732 247.892 46.652C247.892 47.572 248.053 48.3617 248.375 49.021C248.712 49.6803 249.157 50.1787 249.709 50.516C250.276 50.838 250.897 50.999 251.572 50.999C252.247 50.999 252.875 50.8303 253.458 50.493C254.056 50.1557 254.539 49.665 254.907 49.021C255.275 48.3617 255.459 47.572 255.459 46.652C255.459 45.732 255.283 44.95 254.93 44.306C254.577 43.6467 254.11 43.156 253.527 42.834C252.944 42.4967 252.316 42.328 251.641 42.328ZM266.055 42.466H263.709V53H261.064V42.466H259.569V40.327H261.064V39.43C261.064 37.9733 261.447 36.9153 262.214 36.256C262.996 35.5813 264.215 35.244 265.871 35.244V37.429C265.074 37.429 264.514 37.5823 264.192 37.889C263.87 38.1803 263.709 38.694 263.709 39.43V40.327H266.055V42.466ZM6.37727 72.015V88H3.75527V72.015H6.37727ZM14.2587 75.12C15.6694 75.12 16.8041 75.488 17.6627 76.224C18.5367 76.9447 19.0044 77.9337 19.0657 79.191H16.3747C16.3287 78.5623 16.1064 78.0717 15.7077 77.719C15.3244 77.3663 14.7801 77.19 14.0747 77.19C13.3694 77.19 12.8174 77.351 12.4187 77.673C12.0201 77.9797 11.8207 78.3783 11.8207 78.869C11.8207 79.2677 11.9511 79.5897 12.2117 79.835C12.4724 80.0803 12.8021 80.272 13.2007 80.41C13.6147 80.5327 14.1667 80.6707 14.8567 80.824C15.7921 81.0387 16.5434 81.2533 17.1107 81.468C17.6934 81.6827 18.1917 82.0353 18.6057 82.526C19.0197 83.0013 19.2267 83.653 19.2267 84.481C19.2267 85.2017 19.0121 85.8457 18.5827 86.413C18.1687 86.9803 17.5861 87.425 16.8347 87.747C16.0834 88.0537 15.2324 88.207 14.2817 88.207C12.8097 88.207 11.6214 87.8543 10.7167 87.149C9.81206 86.4437 9.31373 85.4393 9.22173 84.136H11.9357C11.9817 84.7647 12.2117 85.2553 12.6257 85.608C13.0397 85.9607 13.5917 86.137 14.2817 86.137C15.0177 86.137 15.5927 85.9837 16.0067 85.677C16.4361 85.355 16.6507 84.941 16.6507 84.435C16.6507 84.021 16.5127 83.6913 16.2367 83.446C15.9761 83.2007 15.6387 83.0167 15.2247 82.894C14.8107 82.756 14.2511 82.6103 13.5457 82.457C12.6257 82.2423 11.8821 82.0353 11.3147 81.836C10.7474 81.6213 10.2567 81.284 9.84273 80.824C9.44406 80.364 9.24473 79.743 9.24473 78.961C9.24473 78.2557 9.44406 77.6117 9.84273 77.029C10.2414 76.4463 10.8164 75.9863 11.5677 75.649C12.3344 75.2963 13.2314 75.12 14.2587 75.12ZM24.7279 70.98V88H22.1059V70.98H24.7279ZM33.2763 75.12C34.273 75.12 35.147 75.35 35.8983 75.81C36.665 76.2547 37.2553 76.845 37.6693 77.581V75.327H40.3143V88H37.6693V85.631C37.24 86.413 36.6496 87.0417 35.8983 87.517C35.147 87.977 34.273 88.207 33.2763 88.207C32.1723 88.207 31.1603 87.931 30.2403 87.379C29.3356 86.8117 28.615 86.0297 28.0783 85.033C27.557 84.021 27.2963 82.8787 27.2963 81.606C27.2963 80.3333 27.557 79.2063 28.0783 78.225C28.615 77.2437 29.3356 76.4847 30.2403 75.948C31.1603 75.396 32.1723 75.12 33.2763 75.12ZM33.8283 77.397C33.1536 77.397 32.525 77.5657 31.9423 77.903C31.3596 78.225 30.8843 78.708 30.5163 79.352C30.1636 79.9807 29.9873 80.732 29.9873 81.606C29.9873 82.48 30.1636 83.2467 30.5163 83.906C30.8843 84.5653 31.3596 85.0713 31.9423 85.424C32.5403 85.7613 33.169 85.93 33.8283 85.93C34.503 85.93 35.1316 85.7613 35.7143 85.424C36.297 85.0867 36.7646 84.596 37.1173 83.952C37.4853 83.2927 37.6693 82.526 37.6693 81.652C37.6693 80.778 37.4853 80.019 37.1173 79.375C36.7646 78.731 36.297 78.2403 35.7143 77.903C35.1316 77.5657 34.503 77.397 33.8283 77.397ZM59.3292 75.12C60.2799 75.12 61.1309 75.327 61.8822 75.741C62.6335 76.155 63.2239 76.7683 63.6532 77.581C64.0979 78.3937 64.3202 79.375 64.3202 80.525V88H61.6982V80.916C61.6982 79.7813 61.4145 78.915 60.8472 78.317C60.2799 77.7037 59.5055 77.397 58.5242 77.397C57.5429 77.397 56.7685 77.7037 56.2012 78.317C55.6339 78.915 55.3502 79.7813 55.3502 80.916V88H52.7512V80.916C52.7512 79.7813 52.4675 78.915 51.9002 78.317C51.3329 77.7037 50.5585 77.397 49.5772 77.397C48.5959 77.397 47.8139 77.7037 47.2312 78.317C46.6639 78.915 46.3802 79.7813 46.3802 80.916V88H43.7582V75.327H46.3802V77.328C46.7942 76.6073 47.3462 76.063 48.0362 75.695C48.7415 75.3117 49.5389 75.12 50.4282 75.12C51.4095 75.12 52.2835 75.35 53.0502 75.81C53.8169 76.27 54.3995 76.937 54.7982 77.811C55.2429 76.9677 55.8562 76.3083 56.6382 75.833C57.4355 75.3577 58.3325 75.12 59.3292 75.12ZM67.3116 71.969C67.3116 71.4937 67.4726 71.095 67.7946 70.773C68.1166 70.451 68.5153 70.29 68.9906 70.29C69.4506 70.29 69.8416 70.451 70.1636 70.773C70.4856 71.095 70.6466 71.4937 70.6466 71.969C70.6466 72.4443 70.4856 72.843 70.1636 73.165C69.8416 73.487 69.4506 73.648 68.9906 73.648C68.5153 73.648 68.1166 73.487 67.7946 73.165C67.4726 72.843 67.3116 72.4443 67.3116 71.969ZM70.2786 75.327V88H67.6566V75.327H70.2786ZM79.0571 75.12C80.5904 75.12 81.8554 75.488 82.8521 76.224C83.8641 76.9447 84.5464 77.9797 84.8991 79.329H82.0701C81.8401 78.7003 81.4721 78.2097 80.9661 77.857C80.4601 77.5043 79.8238 77.328 79.0571 77.328C77.9838 77.328 77.1251 77.7113 76.4811 78.478C75.8524 79.2293 75.5381 80.2873 75.5381 81.652C75.5381 83.0167 75.8524 84.0823 76.4811 84.849C77.1251 85.6157 77.9838 85.999 79.0571 85.999C80.5751 85.999 81.5794 85.332 82.0701 83.998H84.8991C84.5311 85.286 83.8411 86.3133 82.8291 87.08C81.8171 87.8313 80.5598 88.207 79.0571 88.207C77.8458 88.207 76.7724 87.9387 75.8371 87.402C74.9018 86.85 74.1658 86.0833 73.6291 85.102C73.1078 84.1053 72.8471 82.9553 72.8471 81.652C72.8471 80.3487 73.1078 79.2063 73.6291 78.225C74.1658 77.2283 74.9018 76.4617 75.8371 75.925C76.7724 75.3883 77.8458 75.12 79.0571 75.12ZM101.446 75.12C102.55 75.12 103.554 75.396 104.459 75.948C105.379 76.4847 106.099 77.2437 106.621 78.225C107.142 79.2063 107.403 80.3333 107.403 81.606C107.403 82.8787 107.142 84.021 106.621 85.033C106.099 86.0297 105.379 86.8117 104.459 87.379C103.554 87.931 102.55 88.207 101.446 88.207C100.449 88.207 99.575 87.977 98.8236 87.517C98.0723 87.0417 97.4743 86.413 97.0296 85.631V88H94.4076V70.98H97.0296V77.581C97.459 76.845 98.0493 76.2547 98.8006 75.81C99.5673 75.35 100.449 75.12 101.446 75.12ZM100.871 77.397C100.211 77.397 99.5826 77.5657 98.9846 77.903C98.402 78.2403 97.9266 78.731 97.5586 79.375C97.206 80.019 97.0296 80.778 97.0296 81.652C97.0296 82.526 97.206 83.2927 97.5586 83.952C97.9266 84.596 98.402 85.0867 98.9846 85.424C99.5826 85.7613 100.211 85.93 100.871 85.93C101.545 85.93 102.174 85.7613 102.757 85.424C103.355 85.0713 103.83 84.5653 104.183 83.906C104.551 83.2467 104.735 82.48 104.735 81.606C104.735 80.732 104.551 79.9807 104.183 79.352C103.83 78.708 103.355 78.225 102.757 77.903C102.174 77.5657 101.545 77.397 100.871 77.397ZM115.608 75.12C116.819 75.12 117.915 75.3883 118.897 75.925C119.878 76.4617 120.652 77.2283 121.22 78.225C121.787 79.2217 122.071 80.364 122.071 81.652C122.071 82.94 121.779 84.0823 121.197 85.079C120.614 86.0757 119.817 86.85 118.805 87.402C117.808 87.9387 116.704 88.207 115.493 88.207C114.297 88.207 113.216 87.9387 112.25 87.402C111.284 86.85 110.525 86.0833 109.973 85.102C109.421 84.1053 109.145 82.9553 109.145 81.652C109.145 80.364 109.428 79.2217 109.996 78.225C110.563 77.2283 111.337 76.4617 112.319 75.925C113.3 75.3883 114.396 75.12 115.608 75.12ZM115.562 77.328C114.887 77.328 114.266 77.4967 113.699 77.834C113.131 78.156 112.671 78.6467 112.319 79.306C111.981 79.95 111.813 80.732 111.813 81.652C111.813 82.572 111.974 83.3617 112.296 84.021C112.633 84.6803 113.078 85.1787 113.63 85.516C114.197 85.838 114.818 85.999 115.493 85.999C116.167 85.999 116.796 85.8303 117.379 85.493C117.977 85.1557 118.46 84.665 118.828 84.021C119.196 83.3617 119.38 82.572 119.38 81.652C119.38 80.732 119.203 79.95 118.851 79.306C118.498 78.6467 118.03 78.156 117.448 77.834C116.865 77.4967 116.236 77.328 115.562 77.328ZM130.275 75.12C131.486 75.12 132.582 75.3883 133.564 75.925C134.545 76.4617 135.319 77.2283 135.887 78.225C136.454 79.2217 136.738 80.364 136.738 81.652C136.738 82.94 136.446 84.0823 135.864 85.079C135.281 86.0757 134.484 86.85 133.472 87.402C132.475 87.9387 131.371 88.207 130.16 88.207C128.964 88.207 127.883 87.9387 126.917 87.402C125.951 86.85 125.192 86.0833 124.64 85.102C124.088 84.1053 123.812 82.9553 123.812 81.652C123.812 80.364 124.095 79.2217 124.663 78.225C125.23 77.2283 126.004 76.4617 126.986 75.925C127.967 75.3883 129.063 75.12 130.275 75.12ZM130.229 77.328C129.554 77.328 128.933 77.4967 128.366 77.834C127.798 78.156 127.338 78.6467 126.986 79.306C126.648 79.95 126.48 80.732 126.48 81.652C126.48 82.572 126.641 83.3617 126.963 84.021C127.3 84.6803 127.745 85.1787 128.297 85.516C128.864 85.838 129.485 85.999 130.16 85.999C130.834 85.999 131.463 85.8303 132.046 85.493C132.644 85.1557 133.127 84.665 133.495 84.021C133.863 83.3617 134.047 82.572 134.047 81.652C134.047 80.732 133.87 79.95 133.518 79.306C133.165 78.6467 132.697 78.156 132.115 77.834C131.532 77.4967 130.903 77.328 130.229 77.328ZM144.343 81.675L150.185 88H146.643L141.951 82.549V88H139.329V70.98H141.951V80.87L146.551 75.327H150.185L144.343 81.675ZM156.504 75.12C157.915 75.12 159.049 75.488 159.908 76.224C160.782 76.9447 161.25 77.9337 161.311 79.191H158.62C158.574 78.5623 158.352 78.0717 157.953 77.719C157.57 77.3663 157.025 77.19 156.32 77.19C155.615 77.19 155.063 77.351 154.664 77.673C154.265 77.9797 154.066 78.3783 154.066 78.869C154.066 79.2677 154.196 79.5897 154.457 79.835C154.718 80.0803 155.047 80.272 155.446 80.41C155.86 80.5327 156.412 80.6707 157.102 80.824C158.037 81.0387 158.789 81.2533 159.356 81.468C159.939 81.6827 160.437 82.0353 160.851 82.526C161.265 83.0013 161.472 83.653 161.472 84.481C161.472 85.2017 161.257 85.8457 160.828 86.413C160.414 86.9803 159.831 87.425 159.08 87.747C158.329 88.0537 157.478 88.207 156.527 88.207C155.055 88.207 153.867 87.8543 152.962 87.149C152.057 86.4437 151.559 85.4393 151.467 84.136H154.181C154.227 84.7647 154.457 85.2553 154.871 85.608C155.285 85.9607 155.837 86.137 156.527 86.137C157.263 86.137 157.838 85.9837 158.252 85.677C158.681 85.355 158.896 84.941 158.896 84.435C158.896 84.021 158.758 83.6913 158.482 83.446C158.221 83.2007 157.884 83.0167 157.47 82.894C157.056 82.756 156.496 82.6103 155.791 82.457C154.871 82.2423 154.127 82.0353 153.56 81.836C152.993 81.6213 152.502 81.284 152.088 80.824C151.689 80.364 151.49 79.743 151.49 78.961C151.49 78.2557 151.689 77.6117 152.088 77.029C152.487 76.4463 153.062 75.9863 153.813 75.649C154.58 75.2963 155.477 75.12 156.504 75.12ZM165.938 86.206C166.214 87.1873 166.352 88.0077 166.352 88.667C166.352 89.587 166.13 90.3 165.685 90.806C165.24 91.312 164.566 91.565 163.661 91.565V90.415C164.044 90.415 164.32 90.323 164.489 90.139C164.673 89.955 164.765 89.6483 164.765 89.219V88.736H163.454V86.206H165.938ZM181.002 75.12C181.999 75.12 182.873 75.35 183.624 75.81C184.391 76.2547 184.981 76.845 185.395 77.581V75.327H188.04V88H185.395V85.631C184.966 86.413 184.375 87.0417 183.624 87.517C182.873 87.977 181.999 88.207 181.002 88.207C179.898 88.207 178.886 87.931 177.966 87.379C177.061 86.8117 176.341 86.0297 175.804 85.033C175.283 84.021 175.022 82.8787 175.022 81.606C175.022 80.3333 175.283 79.2063 175.804 78.225C176.341 77.2437 177.061 76.4847 177.966 75.948C178.886 75.396 179.898 75.12 181.002 75.12ZM181.554 77.397C180.879 77.397 180.251 77.5657 179.668 77.903C179.085 78.225 178.61 78.708 178.242 79.352C177.889 79.9807 177.713 80.732 177.713 81.606C177.713 82.48 177.889 83.2467 178.242 83.906C178.61 84.5653 179.085 85.0713 179.668 85.424C180.266 85.7613 180.895 85.93 181.554 85.93C182.229 85.93 182.857 85.7613 183.44 85.424C184.023 85.0867 184.49 84.596 184.843 83.952C185.211 83.2927 185.395 82.526 185.395 81.652C185.395 80.778 185.211 80.019 184.843 79.375C184.49 78.731 184.023 78.2403 183.44 77.903C182.857 77.5657 182.229 77.397 181.554 77.397ZM202.961 75.327V88H200.339V85.999C199.925 86.7197 199.365 87.264 198.66 87.632C197.97 88 197.18 88.184 196.291 88.184C195.371 88.184 194.535 87.977 193.784 87.563C193.048 87.149 192.457 86.5433 192.013 85.746C191.583 84.9333 191.369 83.952 191.369 82.802V75.327H193.968V82.411C193.968 83.5457 194.251 84.4197 194.819 85.033C195.386 85.631 196.16 85.93 197.142 85.93C198.123 85.93 198.897 85.631 199.465 85.033C200.047 84.4197 200.339 83.5457 200.339 82.411V75.327H202.961ZM209.479 77.466V84.481C209.479 84.9563 209.587 85.3013 209.801 85.516C210.031 85.7153 210.415 85.815 210.951 85.815H212.561V88H210.491C209.311 88 208.406 87.724 207.777 87.172C207.149 86.62 206.834 85.723 206.834 84.481V77.466H205.339V75.327H206.834V72.176H209.479V75.327H212.561V77.466H209.479ZM221.648 75.12C222.568 75.12 223.396 75.327 224.132 75.741C224.883 76.155 225.474 76.7683 225.903 77.581C226.348 78.3937 226.57 79.375 226.57 80.525V88H223.971V80.916C223.971 79.7813 223.687 78.915 223.12 78.317C222.553 77.7037 221.778 77.397 220.797 77.397C219.816 77.397 219.034 77.7037 218.451 78.317C217.884 78.915 217.6 79.7813 217.6 80.916V88H214.978V70.98H217.6V77.328C218.014 76.6073 218.566 76.063 219.256 75.695C219.961 75.3117 220.759 75.12 221.648 75.12ZM235.526 75.12C236.738 75.12 237.834 75.3883 238.815 75.925C239.797 76.4617 240.571 77.2283 241.138 78.225C241.706 79.2217 241.989 80.364 241.989 81.652C241.989 82.94 241.698 84.0823 241.115 85.079C240.533 86.0757 239.735 86.85 238.723 87.402C237.727 87.9387 236.623 88.207 235.411 88.207C234.215 88.207 233.134 87.9387 232.168 87.402C231.202 86.85 230.443 86.0833 229.891 85.102C229.339 84.1053 229.063 82.9553 229.063 81.652C229.063 80.364 229.347 79.2217 229.914 78.225C230.482 77.2283 231.256 76.4617 232.237 75.925C233.219 75.3883 234.315 75.12 235.526 75.12ZM235.48 77.328C234.806 77.328 234.185 77.4967 233.617 77.834C233.05 78.156 232.59 78.6467 232.237 79.306C231.9 79.95 231.731 80.732 231.731 81.652C231.731 82.572 231.892 83.3617 232.214 84.021C232.552 84.6803 232.996 85.1787 233.548 85.516C234.116 85.838 234.737 85.999 235.411 85.999C236.086 85.999 236.715 85.8303 237.297 85.493C237.895 85.1557 238.378 84.665 238.746 84.021C239.114 83.3617 239.298 82.572 239.298 81.652C239.298 80.732 239.122 79.95 238.769 79.306C238.417 78.6467 237.949 78.156 237.366 77.834C236.784 77.4967 236.155 77.328 235.48 77.328ZM247.203 77.535C247.587 76.7683 248.093 76.178 248.721 75.764C249.365 75.3347 250.124 75.12 250.998 75.12V77.834H250.331C249.304 77.834 248.522 78.0947 247.985 78.616C247.464 79.1373 247.203 80.042 247.203 81.33V88H244.581V75.327H247.203V77.535ZM257.848 75.12C259.258 75.12 260.393 75.488 261.252 76.224C262.126 76.9447 262.593 77.9337 262.655 79.191H259.964C259.918 78.5623 259.695 78.0717 259.297 77.719C258.913 77.3663 258.369 77.19 257.664 77.19C256.958 77.19 256.406 77.351 256.008 77.673C255.609 77.9797 255.41 78.3783 255.41 78.869C255.41 79.2677 255.54 79.5897 255.801 79.835C256.061 80.0803 256.391 80.272 256.79 80.41C257.204 80.5327 257.756 80.6707 258.446 80.824C259.381 81.0387 260.132 81.2533 260.7 81.468C261.282 81.6827 261.781 82.0353 262.195 82.526C262.609 83.0013 262.816 83.653 262.816 84.481C262.816 85.2017 262.601 85.8457 262.172 86.413C261.758 86.9803 261.175 87.425 260.424 87.747C259.672 88.0537 258.821 88.207 257.871 88.207C256.399 88.207 255.21 87.8543 254.306 87.149C253.401 86.4437 252.903 85.4393 252.811 84.136H255.525C255.571 84.7647 255.801 85.2553 256.215 85.608C256.629 85.9607 257.181 86.137 257.871 86.137C258.607 86.137 259.182 85.9837 259.596 85.677C260.025 85.355 260.24 84.941 260.24 84.435C260.24 84.021 260.102 83.6913 259.826 83.446C259.565 83.2007 259.228 83.0167 258.814 82.894C258.4 82.756 257.84 82.6103 257.135 82.457C256.215 82.2423 255.471 82.0353 254.904 81.836C254.336 81.6213 253.846 81.284 253.432 80.824C253.033 80.364 252.834 79.743 252.834 78.961C252.834 78.2557 253.033 77.6117 253.432 77.029C253.83 76.4463 254.405 75.9863 255.157 75.649C255.923 75.2963 256.82 75.12 257.848 75.12ZM49.2797 110.12C50.2764 110.12 51.1504 110.35 51.9017 110.81C52.6684 111.255 53.2587 111.845 53.6727 112.581V110.327H56.3177V123H53.6727V120.631C53.2434 121.413 52.6531 122.042 51.9017 122.517C51.1504 122.977 50.2764 123.207 49.2797 123.207C48.1757 123.207 47.1637 122.931 46.2437 122.379C45.3391 121.812 44.6184 121.03 44.0817 120.033C43.5604 119.021 43.2997 117.879 43.2997 116.606C43.2997 115.333 43.5604 114.206 44.0817 113.225C44.6184 112.244 45.3391 111.485 46.2437 110.948C47.1637 110.396 48.1757 110.12 49.2797 110.12ZM49.8317 112.397C49.1571 112.397 48.5284 112.566 47.9457 112.903C47.3631 113.225 46.8877 113.708 46.5197 114.352C46.1671 114.981 45.9907 115.732 45.9907 116.606C45.9907 117.48 46.1671 118.247 46.5197 118.906C46.8877 119.565 47.3631 120.071 47.9457 120.424C48.5437 120.761 49.1724 120.93 49.8317 120.93C50.5064 120.93 51.1351 120.761 51.7177 120.424C52.3004 120.087 52.7681 119.596 53.1207 118.952C53.4887 118.293 53.6727 117.526 53.6727 116.652C53.6727 115.778 53.4887 115.019 53.1207 114.375C52.7681 113.731 52.3004 113.24 51.7177 112.903C51.1351 112.566 50.5064 112.397 49.8317 112.397ZM66.4316 110.12C67.3516 110.12 68.1796 110.327 68.9156 110.741C69.667 111.155 70.2573 111.768 70.6866 112.581C71.1313 113.394 71.3536 114.375 71.3536 115.525V123H68.7546V115.916C68.7546 114.781 68.471 113.915 67.9036 113.317C67.3363 112.704 66.562 112.397 65.5806 112.397C64.5993 112.397 63.8173 112.704 63.2346 113.317C62.6673 113.915 62.3836 114.781 62.3836 115.916V123H59.7616V110.327H62.3836V112.328C62.7976 111.607 63.3496 111.063 64.0396 110.695C64.745 110.312 65.5423 110.12 66.4316 110.12ZM79.8041 110.12C80.8008 110.12 81.6748 110.35 82.4261 110.81C83.1928 111.255 83.7831 111.845 84.1971 112.581V105.98H86.8421V123H84.1971V120.631C83.7678 121.413 83.1775 122.042 82.4261 122.517C81.6748 122.977 80.8008 123.207 79.8041 123.207C78.7001 123.207 77.6881 122.931 76.7681 122.379C75.8635 121.812 75.1428 121.03 74.6061 120.033C74.0848 119.021 73.8241 117.879 73.8241 116.606C73.8241 115.333 74.0848 114.206 74.6061 113.225C75.1428 112.244 75.8635 111.485 76.7681 110.948C77.6881 110.396 78.7001 110.12 79.8041 110.12ZM80.3561 112.397C79.6815 112.397 79.0528 112.566 78.4701 112.903C77.8875 113.225 77.4121 113.708 77.0441 114.352C76.6915 114.981 76.5151 115.732 76.5151 116.606C76.5151 117.48 76.6915 118.247 77.0441 118.906C77.4121 119.565 77.8875 120.071 78.4701 120.424C79.0681 120.761 79.6968 120.93 80.3561 120.93C81.0308 120.93 81.6595 120.761 82.2421 120.424C82.8248 120.087 83.2925 119.596 83.6451 118.952C84.0131 118.293 84.1971 117.526 84.1971 116.652C84.1971 115.778 84.0131 115.019 83.6451 114.375C83.2925 113.731 82.8248 113.24 82.2421 112.903C81.6595 112.566 81.0308 112.397 80.3561 112.397ZM99.8035 112.535C100.187 111.768 100.693 111.178 101.322 110.764C101.966 110.335 102.725 110.12 103.599 110.12V112.834H102.932C101.904 112.834 101.122 113.095 100.586 113.616C100.064 114.137 99.8035 115.042 99.8035 116.33V123H97.1815V110.327H99.8035V112.535ZM117.624 116.307C117.624 116.752 117.593 117.166 117.532 117.549H107.826C107.887 118.607 108.24 119.45 108.884 120.079C109.543 120.692 110.363 120.999 111.345 120.999C112.771 120.999 113.775 120.409 114.358 119.228H117.187C116.803 120.393 116.106 121.352 115.094 122.103C114.082 122.839 112.832 123.207 111.345 123.207C110.133 123.207 109.06 122.939 108.125 122.402C107.189 121.85 106.453 121.083 105.917 120.102C105.395 119.105 105.135 117.955 105.135 116.652C105.135 115.349 105.395 114.206 105.917 113.225C106.453 112.228 107.197 111.462 108.148 110.925C109.114 110.388 110.218 110.12 111.46 110.12C112.656 110.12 113.721 110.381 114.657 110.902C115.592 111.423 116.32 112.152 116.842 113.087C117.363 114.022 117.624 115.096 117.624 116.307ZM114.887 115.755C114.871 114.712 114.526 113.884 113.852 113.271C113.177 112.642 112.341 112.328 111.345 112.328C110.409 112.328 109.612 112.642 108.953 113.271C108.309 113.884 107.941 114.712 107.849 115.755H114.887ZM125.31 110.12C126.307 110.12 127.181 110.35 127.932 110.81C128.699 111.255 129.289 111.845 129.703 112.581V110.327H132.348V123H129.703V120.631C129.274 121.413 128.683 122.042 127.932 122.517C127.181 122.977 126.307 123.207 125.31 123.207C124.206 123.207 123.194 122.931 122.274 122.379C121.369 121.812 120.649 121.03 120.112 120.033C119.591 119.021 119.33 117.879 119.33 116.606C119.33 115.333 119.591 114.206 120.112 113.225C120.649 112.244 121.369 111.485 122.274 110.948C123.194 110.396 124.206 110.12 125.31 110.12ZM125.862 112.397C125.187 112.397 124.559 112.566 123.976 112.903C123.393 113.225 122.918 113.708 122.55 114.352C122.197 114.981 122.021 115.732 122.021 116.606C122.021 117.48 122.197 118.247 122.55 118.906C122.918 119.565 123.393 120.071 123.976 120.424C124.574 120.761 125.203 120.93 125.862 120.93C126.537 120.93 127.165 120.761 127.748 120.424C128.331 120.087 128.798 119.596 129.151 118.952C129.519 118.293 129.703 117.526 129.703 116.652C129.703 115.778 129.519 115.019 129.151 114.375C128.798 113.731 128.331 113.24 127.748 112.903C127.165 112.566 126.537 112.397 125.862 112.397ZM140.898 110.12C141.895 110.12 142.769 110.35 143.52 110.81C144.287 111.255 144.877 111.845 145.291 112.581V105.98H147.936V123H145.291V120.631C144.862 121.413 144.271 122.042 143.52 122.517C142.769 122.977 141.895 123.207 140.898 123.207C139.794 123.207 138.782 122.931 137.862 122.379C136.957 121.812 136.237 121.03 135.7 120.033C135.179 119.021 134.918 117.879 134.918 116.606C134.918 115.333 135.179 114.206 135.7 113.225C136.237 112.244 136.957 111.485 137.862 110.948C138.782 110.396 139.794 110.12 140.898 110.12ZM141.45 112.397C140.775 112.397 140.147 112.566 139.564 112.903C138.981 113.225 138.506 113.708 138.138 114.352C137.785 114.981 137.609 115.732 137.609 116.606C137.609 117.48 137.785 118.247 138.138 118.906C138.506 119.565 138.981 120.071 139.564 120.424C140.162 120.761 140.791 120.93 141.45 120.93C142.125 120.93 142.753 120.761 143.336 120.424C143.919 120.087 144.386 119.596 144.739 118.952C145.107 118.293 145.291 117.526 145.291 116.652C145.291 115.778 145.107 115.019 144.739 114.375C144.386 113.731 143.919 113.24 143.336 112.903C142.753 112.566 142.125 112.397 141.45 112.397ZM161.334 112.466V119.481C161.334 119.956 161.442 120.301 161.656 120.516C161.886 120.715 162.27 120.815 162.806 120.815H164.416V123H162.346C161.166 123 160.261 122.724 159.632 122.172C159.004 121.62 158.689 120.723 158.689 119.481V112.466H157.194V110.327H158.689V107.176H161.334V110.327H164.416V112.466H161.334ZM173.503 110.12C174.423 110.12 175.251 110.327 175.987 110.741C176.738 111.155 177.329 111.768 177.758 112.581C178.203 113.394 178.425 114.375 178.425 115.525V123H175.826V115.916C175.826 114.781 175.542 113.915 174.975 113.317C174.408 112.704 173.633 112.397 172.652 112.397C171.671 112.397 170.889 112.704 170.306 113.317C169.739 113.915 169.455 114.781 169.455 115.916V123H166.833V105.98H169.455V112.328C169.869 111.607 170.421 111.063 171.111 110.695C171.816 110.312 172.614 110.12 173.503 110.12ZM193.384 116.307C193.384 116.752 193.354 117.166 193.292 117.549H183.586C183.648 118.607 184 119.45 184.644 120.079C185.304 120.692 186.124 120.999 187.105 120.999C188.531 120.999 189.536 120.409 190.118 119.228H192.947C192.564 120.393 191.866 121.352 190.854 122.103C189.842 122.839 188.593 123.207 187.105 123.207C185.894 123.207 184.821 122.939 183.885 122.402C182.95 121.85 182.214 121.083 181.677 120.102C181.156 119.105 180.895 117.955 180.895 116.652C180.895 115.349 181.156 114.206 181.677 113.225C182.214 112.228 182.958 111.462 183.908 110.925C184.874 110.388 185.978 110.12 187.22 110.12C188.416 110.12 189.482 110.381 190.417 110.902C191.353 111.423 192.081 112.152 192.602 113.087C193.124 114.022 193.384 115.096 193.384 116.307ZM190.647 115.755C190.632 114.712 190.287 113.884 189.612 113.271C188.938 112.642 188.102 112.328 187.105 112.328C186.17 112.328 185.373 112.642 184.713 113.271C184.069 113.884 183.701 114.712 183.609 115.755H190.647ZM211.536 110.12C212.486 110.12 213.337 110.327 214.089 110.741C214.84 111.155 215.43 111.768 215.86 112.581C216.304 113.394 216.527 114.375 216.527 115.525V123H213.905V115.916C213.905 114.781 213.621 113.915 213.054 113.317C212.486 112.704 211.712 112.397 210.731 112.397C209.749 112.397 208.975 112.704 208.408 113.317C207.84 113.915 207.557 114.781 207.557 115.916V123H204.958V115.916C204.958 114.781 204.674 113.915 204.107 113.317C203.539 112.704 202.765 112.397 201.784 112.397C200.802 112.397 200.02 112.704 199.438 113.317C198.87 113.915 198.587 114.781 198.587 115.916V123H195.965V110.327H198.587V112.328C199.001 111.607 199.553 111.063 200.243 110.695C200.948 110.312 201.745 110.12 202.635 110.12C203.616 110.12 204.49 110.35 205.257 110.81C206.023 111.27 206.606 111.937 207.005 112.811C207.449 111.968 208.063 111.308 208.845 110.833C209.642 110.358 210.539 110.12 211.536 110.12ZM219.265 121.436C219.265 120.991 219.411 120.616 219.702 120.309C220.009 120.002 220.385 119.849 220.829 119.849C221.274 119.849 221.65 120.002 221.956 120.309C222.263 120.616 222.416 120.991 222.416 121.436C222.416 121.881 222.263 122.256 221.956 122.563C221.65 122.854 221.274 123 220.829 123C220.4 123 220.032 122.847 219.725 122.54C219.419 122.233 219.265 121.865 219.265 121.436Z" fill="#5B4214"/>
</svg>
