<svg width="337" height="256" viewBox="0 0 337 256" fill="none" xmlns="http://www.w3.org/2000/svg">
<path fill-rule="evenodd" clip-rule="evenodd" d="M298.979 60.6816C315.274 60.6816 328.484 47.4288 328.484 31.0808C328.484 14.7328 315.274 1.48005 298.979 1.48005C282.684 1.48005 269.475 14.7328 269.475 31.0808C269.475 47.4288 282.684 60.6816 298.979 60.6816ZM298.979 62.1617C316.089 62.1617 329.959 48.2463 329.959 31.0808C329.959 13.9154 316.089 0 298.979 0C281.869 0 268 13.9154 268 31.0808C268 48.2463 281.869 62.1617 298.979 62.1617Z" fill="#ECECEC"/>
<path fill-rule="evenodd" clip-rule="evenodd" d="M298.979 47.3611C307.942 47.3611 315.207 40.0721 315.207 31.0805C315.207 22.0892 307.942 14.8002 298.979 14.8002C290.017 14.8002 282.752 22.0892 282.752 31.0805C282.752 40.0721 290.017 47.3611 298.979 47.3611ZM298.979 51.0611C309.979 51.0611 318.894 42.1156 318.894 31.0805C318.894 20.0457 309.979 11.1 298.979 11.1C287.98 11.1 279.065 20.0457 279.065 31.0805C279.065 42.1156 287.98 51.0611 298.979 51.0611Z" fill="#E2E0E5"/>
<path d="M125.006 11.4731L135.012 6.09509V17.9267L125.006 23.6634V11.4731Z" fill="#D7D7D7"/>
<path d="M125.006 11.4731L115 6.09509V17.9267L125.006 23.6634V11.4731Z" fill="#E2E2E2"/>
<path d="M115 6.09511L125.006 11.4732L135.012 6.09511L125.006 0L115 6.09511Z" fill="#ECECEC"/>
<path d="M10.1556 80.7218C7.33862 78.2987 3.09033 78.6199 0.669726 81.439C-1.74787 84.2546 -1.42715 88.4964 1.3863 90.9165L12.8476 100.775L12.9374 100.88L12.9534 100.866L12.9694 100.88L13.0592 100.775L24.5205 90.9165C27.3339 88.4964 27.6547 84.2546 25.2371 81.439C22.8165 78.6199 18.5682 78.2987 15.7513 80.7218L12.9534 83.1284L10.1556 80.7218Z" fill="#D7D7D7"/>
<g clip-path="url(#clip0_2_1640)">
<path d="M29.3023 177.199C28.6879 176.934 28.312 176.934 27.6977 177.199C25.5848 178.113 26.5797 185.889 27.4166 190.7C25.5907 186.171 22.3353 179.039 20.0584 179.377C19.3963 179.475 19.0769 179.674 18.695 180.223C17.492 181.955 21.5405 187.204 24.7255 190.876C20.9273 187.842 15.5187 184.01 13.8374 185.282C13.3036 185.686 13.1185 186.013 13.0472 186.679C12.8165 188.832 19.2279 191.583 23.8177 193.267C18.9936 192.473 12.0588 191.71 11.1992 193.698C10.9336 194.312 10.9336 194.688 11.1992 195.302C12.0588 197.29 18.9936 196.527 23.8177 195.733C19.2279 197.417 12.8164 200.168 13.0472 202.321C13.1185 202.987 13.3036 203.314 13.8374 203.718C15.5187 204.99 20.9272 201.158 24.7255 198.124C21.5404 201.796 17.492 207.045 18.6949 208.777C19.0769 209.326 19.3963 209.525 20.0584 209.623C22.3353 209.961 25.5908 202.829 27.4166 198.3C26.5797 203.111 25.5848 210.887 27.6977 211.801C28.312 212.066 28.6879 212.066 29.3023 211.801C31.4151 210.887 30.4202 203.11 29.5833 198.299C31.4091 202.828 34.6647 209.961 36.9416 209.623C37.6037 209.525 37.9232 209.326 38.3051 208.777C39.5081 207.045 35.4596 201.796 32.2746 198.124C36.0728 201.158 41.4814 204.99 43.1627 203.718C43.6964 203.314 43.8816 202.987 43.9528 202.321C44.1836 200.168 37.7722 197.417 33.1824 195.733C38.0065 196.527 44.9411 197.29 45.8007 195.302C46.0664 194.688 46.0664 194.312 45.8007 193.698C44.9411 191.71 38.0065 192.473 33.1824 193.267C37.7722 191.583 44.1836 188.832 43.9528 186.679C43.8816 186.013 43.6964 185.686 43.1627 185.282C41.4814 184.01 36.0727 187.842 32.2745 190.876C35.4595 187.204 39.5081 181.955 38.3051 180.223C37.9232 179.674 37.6037 179.475 36.9416 179.377C34.6647 179.039 31.4091 186.171 29.5833 190.7C30.4202 185.89 31.4151 178.113 29.3023 177.199Z" fill="#ECECEC"/>
</g>
<path d="M83 229H92.7639C97.8649 229 102 233.135 102 238.236V248H92.2361C87.1351 248 83 243.865 83 238.764V229Z" fill="#ECECEC"/>
<g clip-path="url(#clip1_2_1640)">
<path d="M19.2 22C28.517 22 36.07 12.598 36.07 1C36.07 12.598 43.6229 22 52.9399 22C43.6229 22 36.07 31.402 36.07 43C36.07 31.402 28.517 22 19.2 22Z" fill="white"/>
</g>
<g clip-path="url(#clip2_2_1640)">
<path d="M279.9 156.5C286.333 156.5 291.548 150.008 291.548 142C291.548 150.008 296.763 156.5 303.197 156.5C296.763 156.5 291.548 162.992 291.548 171C291.548 162.992 286.333 156.5 279.9 156.5Z" fill="white"/>
</g>
<g clip-path="url(#clip3_2_1640)">
<path fill-rule="evenodd" clip-rule="evenodd" d="M320 224.38C311.926 224.38 305.38 230.926 305.38 239C305.38 247.074 311.926 253.62 320 253.62C328.074 253.62 334.62 247.074 334.62 239C334.62 230.926 328.074 224.38 320 224.38ZM303.113 239C303.113 229.674 310.674 222.113 320 222.113C329.326 222.113 336.887 229.674 336.887 239C336.887 248.326 329.326 255.887 320 255.887C310.674 255.887 303.113 248.326 303.113 239Z" fill="#E2E0E5"/>
<path fill-rule="evenodd" clip-rule="evenodd" d="M320 228.12C313.991 228.12 309.12 232.991 309.12 239C309.12 245.009 313.991 249.88 320 249.88C326.009 249.88 330.88 245.009 330.88 239C330.88 232.991 326.009 228.12 320 228.12ZM306.854 239C306.854 231.739 312.739 225.853 320 225.853C327.261 225.853 333.147 231.739 333.147 239C333.147 246.261 327.261 252.147 320 252.147C312.739 252.147 306.854 246.261 306.854 239Z" fill="#E2E0E5"/>
<path fill-rule="evenodd" clip-rule="evenodd" d="M320 232.313C316.307 232.313 313.314 235.307 313.314 239C313.314 242.693 316.307 245.687 320 245.687C323.693 245.687 326.687 242.693 326.687 239C326.687 235.307 323.693 232.313 320 232.313ZM311.047 239C311.047 234.055 315.055 230.047 320 230.047C324.945 230.047 328.954 234.055 328.954 239C328.954 243.945 324.945 247.953 320 247.953C315.055 247.953 311.047 243.945 311.047 239Z" fill="#E2E0E5"/>
<path fill-rule="evenodd" clip-rule="evenodd" d="M320 236.507C318.623 236.507 317.507 237.623 317.507 239C317.507 240.377 318.623 241.493 320 241.493C321.377 241.493 322.494 240.377 322.494 239C322.494 237.623 321.377 236.507 320 236.507ZM315.24 239C315.24 236.371 317.371 234.24 320 234.24C322.629 234.24 324.76 236.371 324.76 239C324.76 241.629 322.629 243.76 320 243.76C317.371 243.76 315.24 241.629 315.24 239Z" fill="#E2E0E5"/>
</g>
<defs>
<clipPath id="clip0_2_1640">
<rect width="35" height="35" fill="white" transform="translate(11 177)"/>
</clipPath>
<clipPath id="clip1_2_1640">
<rect width="42" height="42" fill="white" transform="translate(15 1)"/>
</clipPath>
<clipPath id="clip2_2_1640">
<rect width="29" height="29" fill="white" transform="translate(277 142)"/>
</clipPath>
<clipPath id="clip3_2_1640">
<rect width="34" height="34" fill="white" transform="translate(303 222)"/>
</clipPath>
</defs>
</svg>
