<svg width="160" height="46" viewBox="0 0 160 46" fill="none" xmlns="http://www.w3.org/2000/svg">
<path d="M3.9825 9.54V15H0.5625V0.96H6.1025C7.19583 0.96 8.12917 1.16 8.9025 1.56C9.68917 1.96 10.2758 2.48667 10.6625 3.14C11.0625 3.79333 11.2625 4.5 11.2625 5.26C11.2625 5.9 11.1025 6.54667 10.7825 7.2C10.4758 7.84 9.93583 8.39333 9.1625 8.86C8.38917 9.31333 7.36917 9.54 6.1025 9.54H3.9825ZM6.1025 6.94C6.6225 6.94 7.02917 6.78667 7.3225 6.48C7.62917 6.17333 7.7825 5.76667 7.7825 5.26C7.7825 4.76667 7.62917 4.36 7.3225 4.04C7.01583 3.72 6.60917 3.56 6.1025 3.56H3.9825V6.94H6.1025ZM17.5764 3.72C19.0031 3.72 20.0964 4.24667 20.8564 5.3V3.84H24.2764V15H20.8564V13.38C20.0297 14.5533 18.9364 15.14 17.5764 15.14C16.6564 15.14 15.8031 14.9 15.0164 14.42C14.2431 13.94 13.6297 13.2667 13.1764 12.4C12.7231 11.5333 12.4964 10.5467 12.4964 9.44C12.4964 8.33333 12.7231 7.34667 13.1764 6.48C13.6297 5.61333 14.2431 4.94 15.0164 4.46C15.8031 3.96667 16.6564 3.72 17.5764 3.72ZM18.4164 6.68C18.0164 6.68 17.6231 6.78667 17.2364 7C16.8631 7.2 16.5564 7.50667 16.3164 7.92C16.0897 8.33333 15.9764 8.84 15.9764 9.44C15.9764 10.04 16.0897 10.5467 16.3164 10.96C16.5564 11.36 16.8631 11.6667 17.2364 11.88C17.6097 12.08 18.0031 12.18 18.4164 12.18C18.8164 12.18 19.2031 12.08 19.5764 11.88C19.9631 11.6667 20.2697 11.3533 20.4964 10.94C20.7364 10.5267 20.8564 10.02 20.8564 9.42C20.8564 8.82 20.7364 8.32 20.4964 7.92C20.2697 7.50667 19.9697 7.2 19.5964 7C19.2231 6.78667 18.8297 6.68 18.4164 6.68ZM31.3413 3.72C32.6746 3.72 33.7813 4.04667 34.6613 4.7C35.5413 5.35333 36.0079 6.24667 36.0612 7.38H32.5613C32.5213 6.99333 32.3879 6.73333 32.1613 6.6C31.9346 6.45333 31.5946 6.38 31.1413 6.38C30.7146 6.38 30.3813 6.45333 30.1413 6.6C29.9146 6.73333 29.8013 6.93333 29.8013 7.2C29.8013 7.50667 29.9679 7.73333 30.3013 7.88C30.6479 8.01333 31.2079 8.16667 31.9813 8.34C32.8213 8.51333 33.5146 8.7 34.0613 8.9C34.6213 9.08667 35.1013 9.4 35.5013 9.84C35.9013 10.2667 36.1013 10.8533 36.1013 11.6C36.1013 12.2933 35.8946 12.9067 35.4813 13.44C35.0813 13.9733 34.5213 14.3933 33.8013 14.7C33.0946 14.9933 32.3013 15.14 31.4213 15.14C30.0346 15.14 28.8879 14.8333 27.9813 14.22C27.0746 13.5933 26.5813 12.6733 26.5013 11.46H30.0013C30.0546 11.82 30.2013 12.08 30.4413 12.24C30.6813 12.4 31.0146 12.48 31.4413 12.48C31.8413 12.48 32.1679 12.3867 32.4213 12.2C32.6879 12.0133 32.8213 11.7867 32.8213 11.52C32.8213 11.2 32.6413 10.9667 32.2813 10.82C31.9213 10.66 31.3546 10.5 30.5813 10.34C29.7413 10.1667 29.0479 9.98667 28.5013 9.8C27.9679 9.61333 27.5013 9.31333 27.1012 8.9C26.7146 8.47333 26.5213 7.90667 26.5213 7.2C26.5213 6.56 26.7013 5.98 27.0613 5.46C27.4346 4.92667 27.9813 4.50667 28.7013 4.2C29.4346 3.88 30.3146 3.72 31.3413 3.72ZM42.435 3.72C43.7683 3.72 44.875 4.04667 45.755 4.7C46.635 5.35333 47.1017 6.24667 47.155 7.38H43.655C43.615 6.99333 43.4817 6.73333 43.255 6.6C43.0283 6.45333 42.6883 6.38 42.235 6.38C41.8083 6.38 41.475 6.45333 41.235 6.6C41.0083 6.73333 40.895 6.93333 40.895 7.2C40.895 7.50667 41.0617 7.73333 41.395 7.88C41.7417 8.01333 42.3017 8.16667 43.075 8.34C43.915 8.51333 44.6083 8.7 45.155 8.9C45.715 9.08667 46.195 9.4 46.595 9.84C46.995 10.2667 47.195 10.8533 47.195 11.6C47.195 12.2933 46.9883 12.9067 46.575 13.44C46.175 13.9733 45.615 14.3933 44.895 14.7C44.1883 14.9933 43.395 15.14 42.515 15.14C41.1283 15.14 39.9817 14.8333 39.075 14.22C38.1683 13.5933 37.675 12.6733 37.595 11.46H41.095C41.1483 11.82 41.295 12.08 41.535 12.24C41.775 12.4 42.1083 12.48 42.535 12.48C42.935 12.48 43.2617 12.3867 43.515 12.2C43.7817 12.0133 43.915 11.7867 43.915 11.52C43.915 11.2 43.735 10.9667 43.375 10.82C43.015 10.66 42.4483 10.5 41.675 10.34C40.835 10.1667 40.1417 9.98667 39.595 9.8C39.0617 9.61333 38.595 9.31333 38.195 8.9C37.8083 8.47333 37.615 7.90667 37.615 7.2C37.615 6.56 37.795 5.98 38.155 5.46C38.5283 4.92667 39.075 4.50667 39.795 4.2C40.5283 3.88 41.4083 3.72 42.435 3.72ZM65.2288 3.84L61.8888 15H58.2088L56.6488 8.4L55.0688 15H51.3888L48.0488 3.84H51.4688L53.2088 11.68L54.9288 3.84H58.5488L60.2688 11.68L62.0088 3.84H65.2288ZM71.833 3.72C72.8996 3.72 73.873 3.95333 74.753 4.42C75.6463 4.87333 76.353 5.53333 76.873 6.4C77.393 7.25333 77.653 8.25333 77.653 9.4C77.653 10.5467 77.393 11.5533 76.873 12.42C76.3663 13.2867 75.673 13.96 74.793 14.44C73.913 14.9067 72.933 15.14 71.853 15.14C70.773 15.14 69.7863 14.9067 68.893 14.44C67.9996 13.96 67.293 13.2867 66.773 12.42C66.253 11.5533 65.993 10.5467 65.993 9.4C65.993 8.25333 66.253 7.25333 66.773 6.4C67.293 5.53333 67.993 4.87333 68.873 4.42C69.7663 3.95333 70.753 3.72 71.833 3.72ZM71.833 6.64C71.1796 6.64 70.6196 6.88 70.153 7.36C69.6996 7.82667 69.473 8.51333 69.473 9.42C69.473 10.3267 69.7063 11.02 70.173 11.5C70.653 11.98 71.213 12.22 71.853 12.22C72.493 12.22 73.0396 11.98 73.493 11.5C73.9463 11.02 74.173 10.3267 74.173 9.42C74.173 8.51333 73.9396 7.82667 73.473 7.36C73.0063 6.88 72.4596 6.64 71.833 6.64ZM83.2794 5.92C83.6527 5.24 84.1127 4.70667 84.6594 4.32C85.206 3.92 85.8127 3.72 86.4794 3.72V7.2H85.6394C84.8527 7.2 84.2594 7.38667 83.8594 7.76C83.4727 8.13333 83.2794 8.78667 83.2794 9.72V15H79.8594V3.84H83.2794V5.92ZM92.5959 3.72C94.0226 3.72 95.1159 4.24667 95.8759 5.3V0.2H99.2959V15H95.8759V13.38C95.0493 14.5533 93.9559 15.14 92.5959 15.14C91.6759 15.14 90.8226 14.9 90.0359 14.42C89.2626 13.94 88.6493 13.2667 88.1959 12.4C87.7426 11.5333 87.5159 10.5467 87.5159 9.44C87.5159 8.33333 87.7426 7.34667 88.1959 6.48C88.6493 5.61333 89.2626 4.94 90.0359 4.46C90.8226 3.96667 91.6759 3.72 92.5959 3.72ZM93.4359 6.68C93.0359 6.68 92.6426 6.78667 92.2559 7C91.8826 7.2 91.5759 7.50667 91.3359 7.92C91.1093 8.33333 90.9959 8.84 90.9959 9.44C90.9959 10.04 91.1093 10.5467 91.3359 10.96C91.5759 11.36 91.8826 11.6667 92.2559 11.88C92.6293 12.08 93.0226 12.18 93.4359 12.18C93.8359 12.18 94.2226 12.08 94.5959 11.88C94.9826 11.6667 95.2893 11.3533 95.5159 10.94C95.7559 10.5267 95.8759 10.02 95.8759 9.42C95.8759 8.82 95.7559 8.32 95.5159 7.92C95.2893 7.50667 94.9893 7.2 94.6159 7C94.2426 6.78667 93.8493 6.68 93.4359 6.68ZM111.717 5.92C112.09 5.24 112.55 4.70667 113.097 4.32C113.644 3.92 114.25 3.72 114.917 3.72V7.2H114.077C113.29 7.2 112.697 7.38667 112.297 7.76C111.91 8.13333 111.717 8.78667 111.717 9.72V15H108.297V3.84H111.717V5.92ZM127.213 9.46C127.213 9.84667 127.187 10.2067 127.133 10.54H119.453C119.52 11.0333 119.74 11.44 120.113 11.76C120.487 12.0667 120.953 12.22 121.513 12.22C121.94 12.22 122.26 12.16 122.473 12.04C122.687 11.9067 122.913 11.6933 123.153 11.4H126.853C126.533 12.52 125.893 13.4267 124.933 14.12C123.973 14.8 122.833 15.14 121.513 15.14C120.447 15.14 119.487 14.9067 118.633 14.44C117.793 13.9733 117.133 13.3067 116.653 12.44C116.187 11.56 115.953 10.5467 115.953 9.4C115.953 8.25333 116.187 7.25333 116.653 6.4C117.133 5.53333 117.793 4.87333 118.633 4.42C119.473 3.95333 120.427 3.72 121.493 3.72C122.573 3.72 123.547 3.94667 124.413 4.4C125.28 4.84 125.96 5.49333 126.453 6.36C126.96 7.22667 127.213 8.26 127.213 9.46ZM123.653 8.4C123.6 7.88 123.373 7.46 122.973 7.14C122.573 6.80667 122.08 6.64 121.493 6.64C120.987 6.64 120.547 6.80667 120.173 7.14C119.8 7.46 119.567 7.88 119.473 8.4H123.653ZM133.47 3.72C134.803 3.72 135.91 4.04667 136.79 4.7C137.67 5.35333 138.137 6.24667 138.19 7.38H134.69C134.65 6.99333 134.517 6.73333 134.29 6.6C134.063 6.45333 133.723 6.38 133.27 6.38C132.843 6.38 132.51 6.45333 132.27 6.6C132.043 6.73333 131.93 6.93333 131.93 7.2C131.93 7.50667 132.097 7.73333 132.43 7.88C132.777 8.01333 133.337 8.16667 134.11 8.34C134.95 8.51333 135.643 8.7 136.19 8.9C136.75 9.08667 137.23 9.4 137.63 9.84C138.03 10.2667 138.23 10.8533 138.23 11.6C138.23 12.2933 138.023 12.9067 137.61 13.44C137.21 13.9733 136.65 14.3933 135.93 14.7C135.223 14.9933 134.43 15.14 133.55 15.14C132.163 15.14 131.017 14.8333 130.11 14.22C129.203 13.5933 128.71 12.6733 128.63 11.46H132.13C132.183 11.82 132.33 12.08 132.57 12.24C132.81 12.4 133.143 12.48 133.57 12.48C133.97 12.48 134.297 12.3867 134.55 12.2C134.817 12.0133 134.95 11.7867 134.95 11.52C134.95 11.2 134.77 10.9667 134.41 10.82C134.05 10.66 133.483 10.5 132.71 10.34C131.87 10.1667 131.177 9.98667 130.63 9.8C130.097 9.61333 129.63 9.31333 129.23 8.9C128.843 8.47333 128.65 7.90667 128.65 7.2C128.65 6.56 128.83 5.98 129.19 5.46C129.563 4.92667 130.11 4.50667 130.83 4.2C131.563 3.88 132.443 3.72 133.47 3.72ZM150.944 9.46C150.944 9.84667 150.917 10.2067 150.864 10.54H143.184C143.251 11.0333 143.471 11.44 143.844 11.76C144.217 12.0667 144.684 12.22 145.244 12.22C145.671 12.22 145.991 12.16 146.204 12.04C146.417 11.9067 146.644 11.6933 146.884 11.4H150.584C150.264 12.52 149.624 13.4267 148.664 14.12C147.704 14.8 146.564 15.14 145.244 15.14C144.177 15.14 143.217 14.9067 142.364 14.44C141.524 13.9733 140.864 13.3067 140.384 12.44C139.917 11.56 139.684 10.5467 139.684 9.4C139.684 8.25333 139.917 7.25333 140.384 6.4C140.864 5.53333 141.524 4.87333 142.364 4.42C143.204 3.95333 144.157 3.72 145.224 3.72C146.304 3.72 147.277 3.94667 148.144 4.4C149.011 4.84 149.691 5.49333 150.184 6.36C150.691 7.22667 150.944 8.26 150.944 9.46ZM147.384 8.4C147.331 7.88 147.104 7.46 146.704 7.14C146.304 6.80667 145.811 6.64 145.224 6.64C144.717 6.64 144.277 6.80667 143.904 7.14C143.531 7.46 143.297 7.88 143.204 8.4H147.384ZM159.101 12.1V15H157.361C156.107 15 155.134 14.7267 154.441 14.18C153.761 13.62 153.421 12.6667 153.421 11.32V6.68H152.381V3.84H153.421V1.12H156.841V3.84H159.081V6.68H156.841V11.32C156.841 11.5867 156.921 11.7867 157.081 11.92C157.241 12.04 157.507 12.1 157.881 12.1H159.101ZM31.7179 30.76C33.2779 30.76 34.6646 31.1733 35.8779 32C37.0912 32.8267 37.9379 33.9733 38.4179 35.44H34.3379C34.0579 34.8933 33.7046 34.5 33.2779 34.26C32.8512 34.02 32.3312 33.9 31.7179 33.9C30.5846 33.9 29.6779 34.2667 28.9979 35C28.3312 35.7333 27.9979 36.7133 27.9979 37.94C27.9979 39.1667 28.3312 40.1467 28.9979 40.88C29.6779 41.6133 30.5846 41.98 31.7179 41.98C32.3312 41.98 32.8512 41.86 33.2779 41.62C33.7046 41.38 34.0579 40.9867 34.3379 40.44H38.4179C37.9379 41.9067 37.0912 43.0533 35.8779 43.88C34.6646 44.7067 33.2779 45.12 31.7179 45.12C30.3979 45.12 29.1846 44.8133 28.0779 44.2C26.9846 43.5867 26.1179 42.7333 25.4779 41.64C24.8379 40.5467 24.5179 39.3133 24.5179 37.94C24.5179 36.5667 24.8379 35.3333 25.4779 34.24C26.1179 33.1467 26.9846 32.2933 28.0779 31.68C29.1846 31.0667 30.3979 30.76 31.7179 30.76ZM45.6513 33.72C46.718 33.72 47.6913 33.9533 48.5713 34.42C49.4647 34.8733 50.1713 35.5333 50.6913 36.4C51.2113 37.2533 51.4713 38.2533 51.4713 39.4C51.4713 40.5467 51.2113 41.5533 50.6913 42.42C50.1847 43.2867 49.4913 43.96 48.6113 44.44C47.7313 44.9067 46.7513 45.14 45.6713 45.14C44.5913 45.14 43.6047 44.9067 42.7113 44.44C41.818 43.96 41.1113 43.2867 40.5913 42.42C40.0713 41.5533 39.8113 40.5467 39.8113 39.4C39.8113 38.2533 40.0713 37.2533 40.5913 36.4C41.1113 35.5333 41.8113 34.8733 42.6913 34.42C43.5847 33.9533 44.5713 33.72 45.6513 33.72ZM45.6513 36.64C44.998 36.64 44.438 36.88 43.9713 37.36C43.518 37.8267 43.2913 38.5133 43.2913 39.42C43.2913 40.3267 43.5247 41.02 43.9913 41.5C44.4713 41.98 45.0313 42.22 45.6713 42.22C46.3113 42.22 46.858 41.98 47.3113 41.5C47.7647 41.02 47.9913 40.3267 47.9913 39.42C47.9913 38.5133 47.758 37.8267 47.2913 37.36C46.8247 36.88 46.278 36.64 45.6513 36.64ZM57.9377 33.72C59.3644 33.72 60.4577 34.2467 61.2177 35.3V30.2H64.6377V45H61.2177V43.38C60.3911 44.5533 59.2977 45.14 57.9377 45.14C57.0177 45.14 56.1644 44.9 55.3777 44.42C54.6044 43.94 53.9911 43.2667 53.5377 42.4C53.0844 41.5333 52.8577 40.5467 52.8577 39.44C52.8577 38.3333 53.0844 37.3467 53.5377 36.48C53.9911 35.6133 54.6044 34.94 55.3777 34.46C56.1644 33.9667 57.0177 33.72 57.9377 33.72ZM58.7777 36.68C58.3777 36.68 57.9844 36.7867 57.5977 37C57.2244 37.2 56.9177 37.5067 56.6777 37.92C56.4511 38.3333 56.3377 38.84 56.3377 39.44C56.3377 40.04 56.4511 40.5467 56.6777 40.96C56.9177 41.36 57.2244 41.6667 57.5977 41.88C57.9711 42.08 58.3644 42.18 58.7777 42.18C59.1777 42.18 59.5644 42.08 59.9377 41.88C60.3244 41.6667 60.6311 41.3533 60.8577 40.94C61.0977 40.5267 61.2177 40.02 61.2177 39.42C61.2177 38.82 61.0977 38.32 60.8577 37.92C60.6311 37.5067 60.3311 37.2 59.9577 37C59.5844 36.7867 59.1911 36.68 58.7777 36.68ZM78.0826 39.46C78.0826 39.8467 78.0559 40.2067 78.0026 40.54H70.3226C70.3892 41.0333 70.6092 41.44 70.9826 41.76C71.3559 42.0667 71.8226 42.22 72.3826 42.22C72.8092 42.22 73.1292 42.16 73.3426 42.04C73.5559 41.9067 73.7826 41.6933 74.0226 41.4H77.7226C77.4026 42.52 76.7626 43.4267 75.8026 44.12C74.8426 44.8 73.7026 45.14 72.3826 45.14C71.3159 45.14 70.3559 44.9067 69.5026 44.44C68.6626 43.9733 68.0026 43.3067 67.5226 42.44C67.0559 41.56 66.8226 40.5467 66.8226 39.4C66.8226 38.2533 67.0559 37.2533 67.5226 36.4C68.0026 35.5333 68.6626 34.8733 69.5026 34.42C70.3426 33.9533 71.2959 33.72 72.3626 33.72C73.4426 33.72 74.4159 33.9467 75.2826 34.4C76.1492 34.84 76.8292 35.4933 77.3226 36.36C77.8292 37.2267 78.0826 38.26 78.0826 39.46ZM74.5226 38.4C74.4692 37.88 74.2426 37.46 73.8426 37.14C73.4426 36.8067 72.9492 36.64 72.3626 36.64C71.8559 36.64 71.4159 36.8067 71.0426 37.14C70.6692 37.46 70.4359 37.88 70.3426 38.4H74.5226ZM96.5154 40.82C96.5154 41.5933 96.2954 42.3133 95.8554 42.98C95.4287 43.6333 94.8154 44.16 94.0154 44.56C93.2287 44.9467 92.3354 45.14 91.3354 45.14C89.6954 45.14 88.3887 44.76 87.4154 44C86.4554 43.24 85.9754 42.16 85.9754 40.76H89.6154C89.7087 41.88 90.2821 42.44 91.3354 42.44C91.8287 42.44 92.2154 42.3133 92.4954 42.06C92.7754 41.7933 92.9154 41.4467 92.9154 41.02C92.9154 40.6467 92.7954 40.34 92.5554 40.1C92.3154 39.86 92.0221 39.6733 91.6754 39.54C91.3287 39.4067 90.8287 39.2467 90.1754 39.06C89.2954 38.82 88.5754 38.5733 88.0154 38.32C87.4554 38.0667 86.9754 37.68 86.5754 37.16C86.1754 36.64 85.9754 35.9467 85.9754 35.08C85.9754 34.2133 86.2021 33.4533 86.6554 32.8C87.1087 32.1467 87.7221 31.6467 88.4954 31.3C89.2821 30.94 90.1487 30.76 91.0954 30.76C92.6554 30.76 93.9021 31.1067 94.8354 31.8C95.7687 32.48 96.2554 33.56 96.2954 35.04H92.5754C92.5221 34.5333 92.3554 34.1467 92.0754 33.88C91.8087 33.6 91.4687 33.46 91.0554 33.46C90.6154 33.46 90.2554 33.5733 89.9754 33.8C89.7087 34.0267 89.5754 34.3733 89.5754 34.84C89.5754 35.2267 89.6954 35.5467 89.9354 35.8C90.1754 36.04 90.4754 36.2333 90.8354 36.38C91.2087 36.5133 91.7087 36.66 92.3354 36.82C93.2287 37.0733 93.9487 37.32 94.4954 37.56C95.0554 37.8 95.5287 38.1867 95.9154 38.72C96.3154 39.24 96.5154 39.94 96.5154 40.82ZM109.665 39.46C109.665 39.8467 109.638 40.2067 109.585 40.54H101.905C101.971 41.0333 102.191 41.44 102.565 41.76C102.938 42.0667 103.405 42.22 103.965 42.22C104.391 42.22 104.711 42.16 104.925 42.04C105.138 41.9067 105.365 41.6933 105.605 41.4H109.305C108.985 42.52 108.345 43.4267 107.385 44.12C106.425 44.8 105.285 45.14 103.965 45.14C102.898 45.14 101.938 44.9067 101.085 44.44C100.245 43.9733 99.5846 43.3067 99.1046 42.44C98.6379 41.56 98.4046 40.5467 98.4046 39.4C98.4046 38.2533 98.6379 37.2533 99.1046 36.4C99.5846 35.5333 100.245 34.8733 101.085 34.42C101.925 33.9533 102.878 33.72 103.945 33.72C105.025 33.72 105.998 33.9467 106.865 34.4C107.731 34.84 108.411 35.4933 108.905 36.36C109.411 37.2267 109.665 38.26 109.665 39.46ZM106.105 38.4C106.051 37.88 105.825 37.46 105.425 37.14C105.025 36.8067 104.531 36.64 103.945 36.64C103.438 36.64 102.998 36.8067 102.625 37.14C102.251 37.46 102.018 37.88 101.925 38.4H106.105ZM118.661 33.72C119.501 33.72 120.241 33.9133 120.881 34.3C121.535 34.6733 122.041 35.22 122.401 35.94C122.775 36.66 122.961 37.5067 122.961 38.48V45H119.561V38.94C119.561 38.22 119.368 37.6667 118.981 37.28C118.608 36.88 118.088 36.68 117.421 36.68C116.755 36.68 116.228 36.88 115.841 37.28C115.468 37.6667 115.281 38.22 115.281 38.94V45H111.861V33.84H115.281V35.48C115.615 34.9333 116.068 34.5067 116.641 34.2C117.228 33.88 117.901 33.72 118.661 33.72ZM131.825 42.1V45H130.085C128.832 45 127.859 44.7267 127.165 44.18C126.485 43.62 126.145 42.6667 126.145 41.32V36.68H125.105V33.84H126.145V31.12H129.565V33.84H131.805V36.68H129.565V41.32C129.565 41.5867 129.645 41.7867 129.805 41.92C129.965 42.04 130.232 42.1 130.605 42.1H131.825ZM138.946 29.96L138.546 39.96H135.646L135.246 29.96H138.946ZM135.306 43.14C135.306 42.6067 135.486 42.16 135.846 41.8C136.206 41.44 136.646 41.26 137.166 41.26C137.699 41.26 138.146 41.44 138.506 41.8C138.866 42.16 139.046 42.6067 139.046 43.14C139.046 43.66 138.866 44.1 138.506 44.46C138.146 44.82 137.699 45 137.166 45C136.646 45 136.206 44.82 135.846 44.46C135.486 44.1 135.306 43.66 135.306 43.14Z" fill="#00B900"/>
</svg>
