<svg width="162" height="136" viewBox="0 0 162 136" fill="none" xmlns="http://www.w3.org/2000/svg">
<path fill-rule="evenodd" clip-rule="evenodd" d="M78.0353 14.3685C111.706 42.6174 147.049 31.7912 151.012 64.3035C155.222 98.8621 143.961 78.0632 116.841 99.6253C77.2604 131.096 17.8263 120.116 15.6251 63.9751C14.1601 26.5738 51.2847 -8.07344 78.0353 14.3685Z" fill="#F5F2FD"/>
<path d="M6.60454 90.1326C6.90128 89.4783 7.07895 88.8107 7.42896 88.2593C7.82375 87.7222 8.4876 87.3075 9.17436 87.5506C12.2485 88.5412 15.3401 88.5187 17.0038 85.992C16.9925 86.0304 16.988 86.0705 16.9904 86.1105C16.9909 86.1477 17.0356 86.1616 17.0728 86.1612C17.1109 86.2347 17.2528 86.2921 17.3275 86.3282C17.7161 86.501 18.1547 86.5179 18.5779 86.4684C19.1119 86.3806 19.5461 86.0279 20.0112 85.771C20.3114 85.5921 20.6282 85.4422 20.9571 85.3233C20.9646 85.4953 20.9467 85.6674 20.9039 85.8342C20.8952 85.8316 20.886 85.831 20.877 85.8323C20.868 85.8337 20.8595 85.8371 20.852 85.8422C20.4791 86.3495 19.7006 86.5068 19.0511 86.877C18.4969 87.1424 18.0412 87.562 17.6531 88.0399C17.2858 88.4666 16.9859 88.9464 16.7638 89.4629C16.2423 90.5857 16.1014 91.8296 16.042 93.0503C16.0373 93.2943 15.9123 94.6046 16.3259 94.3926C16.7221 93.9664 16.9311 93.4315 17.3662 93.1527C18.6263 92.2647 20.2003 92.1276 21.3166 91.0346C22.4397 89.8823 23.2525 87.6617 21.8624 86.4215C21.6566 86.2458 21.4208 86.1084 21.1661 86.0159C21.1213 86.0016 21.0913 85.9798 21.0465 85.9656C21.1099 85.7342 21.137 85.4944 21.1271 85.2548C21.3913 85.1733 21.6665 85.1326 21.9432 85.1339C22.3519 85.1289 22.7762 85.1903 23.1764 85.0967C23.8659 84.9479 24.4088 84.372 24.6013 83.6968C24.6581 83.4817 24.744 83.2145 24.7408 82.9557C25.086 83.2254 25.4607 83.4795 25.886 83.6148C26.4976 83.7849 27.2622 83.7091 27.4989 83.0112C27.6421 82.5658 27.5324 82.1013 27.4898 81.6583C27.4491 81.363 27.5403 80.9257 27.5954 80.5627C27.6254 80.7278 27.6879 80.8854 27.7794 81.0264C27.8932 81.2098 28.0216 81.3857 28.1501 81.5616C28.0876 82.5236 28.0783 83.5886 28.6088 84.4324C27.291 84.2339 26.9969 86.3373 25.1561 85.3096C24.917 85.2089 24.2719 84.7214 24.1882 85.1734C24.1676 85.3141 24.2285 85.4317 24.2746 85.5569C24.3973 85.8667 24.5662 86.1563 24.7757 86.4159C25.4091 87.1698 26.5011 87.726 27.4864 87.4627C27.8346 87.3771 28.1583 87.0996 28.3718 86.9344C28.6262 86.7543 28.9081 86.6162 29.2066 86.5253C29.8137 86.3257 30.4668 86.2512 31.0053 85.9194C31.1293 85.8385 31.243 85.7427 31.3437 85.6344C31.4315 86.1287 31.7718 86.6052 32.5055 87.0473C33.5003 87.5604 34.4847 87.8368 35.2825 88.6553C35.4177 88.772 35.6899 89.1532 35.8708 89.358C36.0969 89.6141 36.259 89.4938 36.3073 89.1901C36.6496 88.0103 36.7081 86.7156 36.1592 85.5836C35.9068 84.9877 35.497 84.3051 35.3344 83.7746C35.2319 83.2879 35.2421 82.9107 35.273 82.3927C35.3383 81.6467 35.5625 80.9231 35.9309 80.2701C36.0617 80.0171 36.2594 79.7855 36.4201 79.5544C36.7846 80.1858 36.854 81.0057 36.7207 81.6506C36.509 82.5774 35.9858 83.5524 36.3838 84.5014C36.5455 84.9578 36.8553 85.3754 37.3473 85.4953C37.6159 85.5808 37.9132 85.5772 38.1744 85.6849C38.3241 85.7381 38.4672 85.8083 38.6007 85.8942L38.6678 85.9155C38.6808 85.9119 38.6928 85.9057 38.7032 85.8973C38.7136 85.8888 38.7221 85.8783 38.7282 85.8665C38.7344 85.8546 38.738 85.8416 38.7389 85.8283C38.7397 85.815 38.7378 85.8016 38.7333 85.789C38.8505 85.6545 38.9347 85.2394 38.9856 85.1575C39.5826 83.531 40.4922 82.544 39.8742 80.629C39.7985 80.3851 39.7062 80.1466 39.598 79.9152C39.7685 79.8835 39.9314 79.8371 40.102 79.8055C41.0282 79.5725 42.0099 79.6272 42.8037 80.113C43.0654 80.2577 43.4175 80.4679 43.5755 80.6286C43.6731 80.7088 43.7269 80.8487 43.8535 80.8768C44.0984 80.8442 43.8938 80.5213 43.8772 80.381C43.66 79.6369 43.5471 78.9136 43.5828 78.1886C43.5895 76.9019 44.2962 75.7399 44.6525 74.4787C44.9066 73.3813 44.684 72.1935 44.1665 71.1941C43.4438 69.835 41.8357 69.0041 40.3263 69.5547L40.0899 69.6759C39.5388 68.9727 38.7155 68.502 37.872 68.2091C37.3346 68.0011 36.7685 67.9192 36.2237 67.7335C35.2531 67.3756 34.1169 66.8421 33.2028 67.4595C33.2172 67.415 33.2391 67.3851 33.2463 67.3628C33.829 66.3946 33.8593 65.226 33.9649 64.1304C33.9859 63.5973 34.0769 63.0692 34.2356 62.5596C34.2366 62.5615 34.2379 62.5633 34.2396 62.5647C34.2412 62.5661 34.2432 62.5672 34.2453 62.5679C34.2474 62.5686 34.2496 62.5688 34.2518 62.5686C34.2539 62.5684 34.2561 62.5677 34.258 62.5667C34.6067 62.5181 34.9362 62.7212 35.3382 62.7755C35.7014 62.8106 36.0669 62.8161 36.431 62.7918C36.5151 62.9905 36.5992 63.1891 36.7278 63.365C37.03 63.768 37.4423 64.0588 37.9057 64.2676C38.9443 64.7209 39.4165 63.8279 39.8684 63.0757C40.0362 62.8222 40.3241 62.6561 40.611 62.4161C40.8983 62.179 41.1348 61.887 41.3066 61.5573C41.5828 61.0438 41.6789 60.3994 41.4492 59.8476C41.2813 59.4873 40.8932 59.3515 40.5351 59.2375C39.9831 59.0741 39.4248 59.007 38.8871 58.799C38.499 58.6632 38.1472 58.453 37.737 58.3471C37.424 58.2473 37.0821 58.2736 36.7629 58.307C36.4215 58.3818 36.0735 58.4231 35.7239 58.4305C35.9217 57.5852 36.0815 56.6665 36.5872 56.091C37.034 55.5459 37.7001 55.316 38.376 55.2856C38.4765 55.2738 38.5784 55.2852 38.6738 55.319C38.9625 55.8405 39.3257 56.3611 39.9224 56.5387C40.3481 56.711 40.8822 56.6232 41.2054 56.3088C41.2587 56.243 41.3028 56.1703 41.3365 56.0928C41.5922 56.9474 42.133 57.4141 43.0687 57.3436C43.3288 57.3405 43.5808 57.2857 43.8404 57.2456C43.9443 57.2295 44.0629 57.2059 44.1442 57.1458C44.321 57.018 44.3397 56.7294 44.1526 56.6207C43.8836 56.4983 43.5581 56.6279 43.2837 56.6756C42.98 56.7384 42.7877 56.8368 42.5563 56.7509C42.1977 56.6 41.8807 56.2045 41.565 55.92C42.0467 55.8032 42.4747 55.5467 42.752 55.144C43.06 54.8 43.4073 54.6407 43.8743 54.5316C44.3116 54.4375 44.7855 54.3062 45.086 53.9476C45.5099 53.3583 45.5134 52.4267 44.9497 51.916C44.1081 51.1572 43.1102 51.6129 43.139 52.7512C43.1359 53.1062 43.1861 53.5639 43.1074 53.8089C42.9923 54.1282 42.713 54.383 42.3513 54.587C42.0482 54.7238 41.738 54.8828 41.533 55.1367C41.5302 54.3012 40.9455 53.8942 40.24 53.326C39.674 52.8731 39.0231 52.5366 38.3252 52.3361C38.0419 52.2582 37.7209 52.1438 37.425 52.2583C37.1072 52.4024 37.1788 52.7936 37.3525 53.0207C37.7165 53.6153 38.4346 53.991 38.4718 54.6043C38.5103 54.7148 38.4532 54.8929 38.4696 55.0332C37.7485 55.0123 36.9937 55.2876 36.5099 55.8332C35.842 56.5289 35.7274 57.4989 35.5154 58.3888C34.9359 58.4254 34.3416 58.4326 33.7627 58.5061C33.7404 58.499 33.7256 58.5065 33.7037 58.5363C33.6852 58.5273 33.6642 58.5249 33.6441 58.5297C33.6263 58.5363 33.6104 58.5474 33.5981 58.5619C33.5858 58.5764 33.5775 58.5938 33.574 58.6125C33.5705 58.6311 33.5719 58.6504 33.5781 58.6683C33.5842 58.6863 33.595 58.7023 33.6092 58.7149C34.1682 58.9967 34.6539 59.4033 35.0284 59.903C34.6467 60.8985 34.1754 61.8653 33.9279 62.9035C33.6813 64.0156 33.7783 65.2492 33.4783 66.2585C33.3508 66.7701 33.1172 67.1131 32.9001 67.5964C32.922 67.5665 32.8929 67.6186 32.8638 67.6707C32.8001 67.7344 32.7504 67.8105 32.7179 67.8943L32.6955 67.8872C31.5539 67.5239 30.4125 68.3879 29.443 68.7176C29.1248 68.825 28.776 68.8735 28.5164 68.9137C28.2344 68.9467 27.4393 68.9636 28.0016 69.3635C28.5711 69.7411 29.1992 70.0515 29.7543 70.4736C30.0699 70.7582 30.365 71.1835 30.5781 71.595C31.1495 72.734 31.5887 74.0154 32.4036 75.0111C32.3964 75.0353 32.3967 75.0611 32.4045 75.0851C32.747 75.7464 32.436 76.4452 31.764 76.8082C31.4538 76.9672 30.9712 77.01 30.5948 77.2216C29.519 76.7688 28.3466 77.5371 27.7629 78.4315C27.5377 78.863 27.4621 79.3668 27.4456 79.8401C27.4448 79.9857 27.4515 80.1312 27.4658 80.2761C27.4409 80.2432 27.4078 80.2173 27.3698 80.2009C27.3318 80.1845 27.2902 80.1782 27.2491 80.1826C26.8632 80.2317 26.6099 80.7893 26.4559 80.9612C26.2509 81.2151 25.9102 81.3152 25.5987 81.3634C25.9814 80.4419 26.1314 79.3236 26.1526 78.6431C26.1499 78.4213 26.2063 78.1693 26.1741 77.9626C26.1881 77.9563 26.2006 77.9469 26.2108 77.9353C26.2209 77.9237 26.2283 77.9101 26.2327 77.8954C26.2533 77.7546 26.5778 77.551 26.7161 77.3128C26.8835 77.0224 26.9314 76.6817 26.9273 76.349C26.9635 75.6609 26.6806 75.0063 26.2503 74.4643C25.842 73.8925 25.1028 73.6205 24.5867 73.3457C23.8757 72.9476 23.2978 72.4814 23.0286 71.7452C22.9099 71.4092 22.865 71.0517 22.8969 70.6969C22.973 70.2302 22.9416 69.4835 22.2741 69.6027C21.3368 70.139 21.3714 72.3716 21.6133 73.3077C21.9577 74.7305 22.5501 76.3797 22.321 77.706C22.2369 78.1211 22.0546 78.419 21.7575 78.4226C21.7351 78.4155 21.7201 78.4231 21.6979 78.4159C21.3921 77.7172 20.9976 77.0639 20.5884 76.4181C20.558 76.3594 20.5204 76.3229 20.4899 76.2641C20.6413 76.0453 20.7634 75.8077 20.8529 75.5574C20.9726 75.2384 21.0582 74.9078 21.1084 74.5709C21.1894 74.5108 21.1429 74.3487 21.1344 74.2601C21.0918 73.8169 20.8639 73.413 20.6879 73.0011C20.3978 72.3688 20.3816 71.6516 20.1058 70.9747C19.74 70.2323 19.0116 69.62 18.1708 69.5489C18.1039 69.5412 18.0362 69.5445 17.9703 69.5587C17.886 69.0112 17.8494 68.4575 17.8609 67.9037C18.2606 67.7732 18.6215 67.4952 18.7651 67.0868C18.8478 66.9054 18.8861 66.7072 18.8769 66.5083C19.3362 66.3845 19.8318 66.1862 20.0269 65.7328C20.0699 65.5992 20.1128 65.4656 20.141 65.3395C20.2537 65.5584 20.3962 65.7608 20.5646 65.9408C21.173 66.4658 21.7796 65.6156 22.0561 65.139C22.4495 64.4909 23.3055 63.9779 23.5628 63.1392C23.8501 62.3223 23.756 61.3105 23.1386 60.6599C22.7245 60.2213 22.1559 59.9176 21.5596 59.7769C21.1076 59.7086 20.6455 59.7653 20.2238 59.9409L20.209 59.9485C19.8631 59.7302 19.4684 59.6003 19.0598 59.5705C18.4644 59.5037 17.9103 59.7692 17.3401 59.9314C17.1794 59.9675 17.0138 59.977 16.8499 59.9593L16.8276 59.9522C16.8091 59.9431 16.788 59.9407 16.768 59.9455C16.524 59.4382 16.28 58.931 16.0655 58.4086C15.8819 57.982 15.6907 57.5407 15.5143 57.0918C15.7731 57.1268 16.0365 57.1059 16.2865 57.0307C16.6939 56.9149 17.0085 56.5118 16.9734 56.0833C16.9479 55.8175 16.8109 55.553 16.8234 55.3605C16.8141 55.1978 16.9537 55.0706 17.0772 54.8399C17.2657 54.4457 17.0668 53.9897 16.847 53.6374C16.4758 53.0652 15.7291 52.7784 15.0469 52.9049C14.802 52.9375 14.6306 52.8952 14.4143 52.8386C14.8405 52.4342 14.9658 51.7377 15.2875 51.3123C15.3604 51.2205 15.4415 51.1354 15.5297 51.058C15.5239 51.0781 15.5246 51.0995 15.5315 51.1193C15.5384 51.139 15.5512 51.1562 15.5683 51.1684C15.5706 51.2024 15.5812 51.2353 15.5991 51.2642C15.7743 51.9212 16.0856 52.5344 16.513 53.0647C16.838 53.5118 17.3032 53.8685 17.8757 53.8912C18.181 53.9392 18.4617 53.7953 18.7052 53.6519C18.9783 53.4934 19.259 53.3495 19.5396 53.2056C19.8952 53.0275 20.296 52.9586 20.691 53.0078C21.0861 53.0571 21.4574 53.2221 21.7578 53.482C21.9602 53.6201 22.1196 53.8917 22.3376 54.0961C22.3507 54.1179 22.3709 54.1347 22.3948 54.1435C22.4188 54.1524 22.445 54.1528 22.4692 54.1447C22.4935 54.1366 22.5142 54.1206 22.5279 54.0991C22.5417 54.0777 22.5477 54.0523 22.5449 54.027C22.5292 53.9607 22.4616 53.9023 22.4312 53.8436C22.0452 53.2789 21.7613 52.5504 21.3302 51.9344C20.7706 51.1426 20.1585 50.3219 19.3271 49.7996C18.7734 49.4883 18.118 49.378 17.4863 49.3856C17.1722 49.3906 16.8635 49.4677 16.5842 49.6109C16.3049 49.754 16.0626 49.9594 15.8762 50.2109C15.7555 50.3878 15.6602 50.5806 15.5933 50.7837C15.5666 50.7946 15.5435 50.8128 15.527 50.8363C14.989 51.2051 14.8771 51.7832 14.6009 52.2967C14.4554 52.5572 14.3458 52.7065 14.1318 52.8347L14.0727 52.865C13.715 51.5606 13.4162 50.2259 13.512 48.9308C13.5163 48.8636 13.5254 48.7968 13.5392 48.7309C13.6431 48.7148 13.7545 48.7135 13.8508 48.6828C14.2287 48.5821 14.4475 48.2467 14.5545 47.8757C14.7268 47.3783 14.742 46.7939 14.4169 46.3468C14.364 46.2809 14.2808 46.1562 14.1984 46.1054C14.208 46.0794 14.2128 46.0517 14.2124 46.0239C14.4743 46.1687 14.7331 46.0546 14.9466 45.8894L14.9542 45.9041C15.0518 45.9842 15.2 45.9455 15.3119 45.9811C15.4162 46.002 15.7067 46.0577 15.7967 46.1231C16.081 46.2749 16.2023 46.4731 16.3913 46.7296C16.5578 46.9408 16.7778 47.1041 17.0288 47.2026C17.5821 47.4769 18.2509 47.4688 18.5465 47.931C18.781 48.2757 18.9364 48.8283 19.2458 49.2091C19.4122 49.4169 19.5987 49.6078 19.8028 49.7791C19.908 49.874 20.0355 49.9759 20.177 49.9964C20.5415 50.0142 20.3363 49.6544 20.2746 49.4629C20.1829 49.194 20.1319 48.913 20.1232 48.6292C20.1025 48.1562 20.3725 47.7389 20.3585 47.2066C20.3831 46.7849 20.2519 46.3872 20.0468 46.0273C19.7968 45.5367 19.4354 45.1107 18.9911 44.7831C18.6709 44.5512 18.3039 44.3912 17.9154 44.3142C17.5269 44.2371 17.1262 44.245 16.7411 44.3371C16.3709 44.4524 16.0616 44.6854 15.7594 44.8961C15.31 45.2194 14.8637 45.8016 14.4779 45.8506C14.3368 45.867 14.3364 45.8301 14.2093 45.7651C14.3063 45.1946 14.3739 44.6392 14.471 44.0687C14.5403 43.6612 14.7498 43.1633 15.0271 42.7237C15.0494 42.7308 15.0644 42.7232 15.0937 42.7081C15.3741 42.5272 15.7626 42.7 16.195 42.8131C16.9695 42.9368 17.7797 42.9492 17.7676 41.9511C17.764 41.6555 17.7371 41.2787 17.7939 41.0636C17.8861 40.7002 18.0074 40.2846 17.8173 39.9172C18.1266 39.6843 18.4435 39.466 18.768 39.2625C19.3192 38.9297 19.9037 38.655 20.5121 38.4429C20.7364 38.551 20.9611 38.6962 21.2069 38.7376C21.6835 38.828 22.3072 38.7687 22.7093 38.823C23.1936 38.9281 23.5164 39.1903 23.9798 39.3992C24.465 39.5781 25.0063 39.4681 25.5117 39.4694C25.6752 39.4601 26.0323 39.5001 25.8805 39.2431C24.9833 38.1966 23.9894 37.1438 22.6898 36.6198C21.7564 36.2614 20.212 36.3835 19.9287 37.533C19.9328 37.8657 20.0693 38.0933 20.1172 38.3662C19.9561 38.4266 19.7982 38.4952 19.6441 38.5716C18.9582 38.8924 18.3098 39.2871 17.7105 39.7486C17.5211 39.4552 17.2283 39.2147 16.9436 39.0259C16.6289 38.8152 16.3217 38.6193 15.956 38.4907C15.2393 38.2257 14.4419 38.6716 13.8802 38.9224C13.6564 39.0312 13.4104 39.0873 13.1613 39.0863C12.9607 39.0962 12.7373 39.0619 12.5753 39.1821C12.2956 39.4 12.36 39.8132 12.5047 40.0925C12.6036 40.2835 12.8131 40.3993 13.0074 40.4857C13.3136 40.6077 13.8334 40.5644 14.0567 40.5987C14.3397 40.6397 14.5268 40.7483 14.6629 40.9389C14.7196 41.0265 14.7469 41.1297 14.7408 41.2337C14.7283 41.4261 14.6711 41.6043 14.6733 41.7891C14.6465 42.0262 14.7459 42.254 14.882 42.4446C14.8941 42.4704 14.9122 42.493 14.9348 42.5105C14.621 42.9875 14.382 43.5007 14.2849 44.0711C14.1739 44.7231 14.1074 45.3524 13.9812 45.975C13.9517 45.9548 13.9188 45.9402 13.884 45.9318C13.1293 45.5934 12.1143 44.6444 11.1622 45.1883C10.7038 45.3862 10.3681 45.893 10.044 46.1335C9.41016 46.57 8.72074 46.7188 8.01787 46.3723C7.45023 46.1426 7.29896 46.5364 7.59444 46.9986C7.82907 47.3432 8.15946 47.6203 8.51896 47.8451C8.80369 48.0339 9.11034 48.1929 9.46713 48.196C10.0092 48.1598 10.5933 47.9162 11.0255 47.9923C11.4351 48.0613 11.8165 48.2563 12.2047 48.3922C12.548 48.5137 12.9357 48.6125 13.3148 48.6227C13.301 48.6887 13.2919 48.7555 13.2876 48.8226C13.2362 49.4814 13.2962 50.1387 13.3934 50.7956C13.5049 51.4079 13.6388 52.0276 13.8023 52.632C13.6006 52.5463 13.3789 52.5183 13.1621 52.551C12.7466 52.6151 12.4078 52.8632 12.0233 53.0232C11.6681 53.1679 11.119 53.2263 10.8777 52.9408C10.614 52.6482 10.4232 52.2439 10.0203 52.1157C9.70723 52.0529 9.74952 52.4591 9.75938 52.6586C9.77106 53.006 9.9385 53.3293 10.1131 53.6302C10.3949 54.1237 10.7866 54.5465 11.258 54.866C11.8351 55.2583 12.3799 55.444 12.9637 55.7772C13.4284 56.097 13.8864 56.4759 14.424 56.6838C14.6905 56.7993 14.9679 56.8876 15.2523 56.9474C15.3902 57.2858 15.5357 57.639 15.6736 57.9774C16.1706 59.1175 16.7263 60.1904 17.1266 61.3242C16.4116 61.2071 15.6972 61.127 15.0237 60.7654C14.6498 60.5851 14.1639 60.3322 13.7662 60.0339C13.301 59.6772 12.3693 58.853 12.0686 59.7882C11.9558 60.2923 12.1555 60.8222 12.443 61.2329C12.8432 61.753 13.3621 62.2495 13.6066 62.7937C14.0844 64.1854 14.4015 65.8083 15.5816 66.8957C16.0477 67.3263 16.5589 67.8082 17.221 67.8593C17.3584 67.8637 17.4957 67.8497 17.6293 67.8175C17.6226 67.8767 17.6307 67.9283 17.624 67.9876C17.63 68.4702 17.6732 68.9518 17.753 69.4279C16.6545 69.5446 15.6221 70.2226 14.9262 71.0443C14.1317 72.0879 13.4948 73.2415 13.0356 74.4683C12.8924 74.9137 12.6081 75.3755 12.7552 75.8398C12.8864 76.2375 13.3283 76.5131 13.7522 76.5376C14.0718 76.5411 14.3673 76.3896 14.6708 76.2899C14.7868 76.2462 14.9055 76.2102 15.0262 76.1821C14.9768 76.5319 14.8403 76.864 14.629 77.148C14.3148 77.5881 13.8299 78.0598 13.5619 78.625C13.2912 78.4642 12.9883 78.3643 12.6747 78.3323C12.361 78.3003 12.0441 78.337 11.7462 78.4399C10.9691 78.708 10.4424 79.3873 9.85406 79.9119C9.49423 80.2638 9.23679 80.4888 8.73252 80.5614C8.27993 80.626 7.52827 80.5463 7.00273 80.7227C6.46196 80.8697 6.08821 81.3031 5.87115 81.7864C5.26869 82.9693 5.33015 84.3512 5.34594 85.6451C5.398 86.8644 5.38332 88.0994 5.57637 89.3023C5.67086 89.7374 5.71437 90.2545 5.89746 90.6441C6.25233 91.1129 6.50963 90.274 6.60454 90.1326V90.1326ZM35.2398 60.1663C35.4524 60.5408 35.6132 60.9234 35.7963 61.313C35.9714 61.6511 36.1536 61.9668 36.2991 62.3199C36.3484 62.4195 36.3895 62.5228 36.4218 62.629C36.0207 62.6487 35.5749 62.6541 35.2543 62.5766C34.9786 62.5134 34.7019 62.3762 34.4122 62.3945C34.4002 62.3987 34.387 62.3989 34.3749 62.395C34.6112 61.6601 34.9368 60.9168 35.2398 60.1663V60.1663ZM33.0165 68.0012C33.065 67.9727 33.1015 67.9276 33.119 67.8743C33.89 67.0886 34.9275 67.468 36.0476 67.8981C36.7496 68.1706 37.5012 68.2502 38.1812 68.5526C38.7413 68.7676 39.3855 69.1813 39.7692 69.5611C39.852 69.6397 39.9276 69.7254 39.9953 69.8172C39.3831 70.1869 38.9064 70.747 38.707 71.4447C38.2756 72.633 38.2923 74.0006 38.0162 75.1278C37.7808 75.9368 37.4106 76.6657 36.8458 77.2715C36.4137 76.5816 35.7306 76.6343 35.0049 76.8575C34.6419 76.9504 34.3675 76.9982 34.1866 76.7934C34.0511 76.64 33.967 76.4411 33.8602 76.2355C33.9126 76.2645 33.9797 76.2859 34.0321 76.3146C34.4051 76.421 34.8133 76.3791 35.184 76.3006C36.0058 76.0467 36.3585 75.1033 36.4681 74.3404C36.4857 74.1236 36.4499 73.9058 36.3637 73.7058C36.5087 73.6834 36.6489 73.6367 36.7783 73.5677C37.0513 73.4092 37.2563 73.1553 37.4465 72.909C37.8995 72.2674 38.001 71.453 37.8134 70.6937C37.4148 69.094 36.0857 68.5852 34.5542 68.5519C34.0336 68.5212 33.4735 68.3061 32.9283 68.0835C32.9945 68.031 33.0017 68.0088 33.0165 68.0012V68.0012ZM31.1681 77.3178C31.5459 77.2171 31.9313 77.1311 32.2254 76.8688C32.547 76.5881 32.7516 76.198 32.7992 75.775C32.8063 75.6558 32.7948 75.5362 32.7651 75.4204C32.8025 75.457 32.8403 75.4935 32.8856 75.5447C32.7285 76.0716 32.6833 76.6341 32.6529 77.189C32.6418 77.4923 32.6602 77.7805 32.79 78.0672C32.7976 78.0819 32.7828 78.0895 32.7905 78.1044C33.0649 78.6705 33.651 79.1884 33.9388 79.6359C34.2662 80.2679 34.0007 81.0548 33.5907 81.5625C33.144 82.1077 32.5845 82.5435 32.0478 83.023L32.025 82.9789C31.9332 82.8089 31.8104 82.6574 31.6627 82.5323C31.1067 82.0362 30.3403 81.9641 29.8075 81.5491C29.5676 81.3745 29.4596 81.0579 29.5984 80.8564C29.6132 80.8488 29.6203 80.8266 29.6351 80.8192C29.7161 80.7591 29.8048 80.7136 29.8858 80.6536C30.5277 80.2687 31.2202 79.7649 31.3446 78.9944C31.3882 78.6104 31.3759 78.2221 31.3082 77.8415C31.2711 77.6645 31.2243 77.4897 31.1681 77.3178V77.3178ZM17.3929 81.943C17.4581 81.9214 17.5251 81.9057 17.5931 81.8962C17.8084 81.8788 17.9202 81.9144 18.1365 81.971C18.6814 82.1566 19.2656 82.5267 19.8702 82.756C19.8555 82.7636 19.8555 82.7636 19.8483 82.7858C19.6908 83.2757 19.3305 83.5906 18.7821 83.723C18.3371 83.802 18.0063 84.102 17.7655 84.4672C17.7012 84.5552 17.6427 84.6473 17.5905 84.7429C17.6406 84.587 17.7055 84.4236 17.7556 84.2677C17.8716 83.8332 17.8914 83.3789 17.8137 82.9361C17.7503 82.5965 17.59 82.251 17.3929 81.943ZM14.8923 77.4037C15.1336 77.0754 15.2406 76.7045 15.2951 76.3045C15.4285 76.2733 15.5696 76.2569 15.6882 76.2332C16.3785 76.1583 16.9528 76.3288 17.4784 76.7662C17.8764 77.1015 18.3407 77.3845 18.8685 77.3926C19.5144 77.3404 20.0525 76.9717 20.433 76.4791C20.9407 77.2787 21.426 78.0716 21.7717 78.9916C21.9633 79.4699 22.0878 79.9269 22.22 80.3985C22.0998 80.4629 21.9622 80.4879 21.8269 80.4698C21.574 80.4506 21.2002 80.2703 20.8944 80.1853C19.9323 79.9159 18.9157 80.0465 17.9831 80.3387C17.5242 80.4995 17.0377 80.8233 16.6741 80.8795C16.6319 80.8792 16.5897 80.8822 16.548 80.8884C15.7963 80.8087 15.0348 80.5296 14.6032 79.8768C14.399 79.5908 14.2464 79.26 13.9759 79.0266C13.9159 78.9829 13.8559 78.9393 13.7884 78.881C14.0642 78.3673 14.5052 77.9553 14.8923 77.4035V77.4037Z" fill="url(#paint0_linear_38_838)"/>
<path fill-rule="evenodd" clip-rule="evenodd" d="M20.4259 97.0254C20.5916 98.1923 21.1429 99.3914 21.8985 100.551C22.87 102.041 24.1462 103.479 25.1369 104.704C26.0082 105.805 26.9295 106.851 27.8856 107.86C28.8455 108.872 29.8517 109.835 30.9003 110.76C32.2941 111.996 33.7687 113.14 35.3144 114.183C38.9575 116.628 43.1518 118.577 48.1018 119.853C48.2252 119.881 48.3529 119.885 48.4776 119.864C48.6023 119.843 48.7217 119.797 48.8288 119.73C48.9359 119.663 49.0286 119.576 49.1018 119.473C49.175 119.37 49.2271 119.254 49.2552 119.132C49.2833 119.009 49.2868 118.882 49.2656 118.758C49.2443 118.634 49.1987 118.515 49.1313 118.408C49.064 118.302 48.9762 118.21 48.8729 118.137C48.7697 118.064 48.6531 118.012 48.5297 117.984C43.7071 117.025 39.5357 115.432 35.9389 113.224C34.392 112.279 32.9294 111.205 31.5672 110.012C30.5475 109.112 29.5856 108.15 28.6875 107.13C27.7931 106.109 26.9516 105.043 26.1662 103.937C25.2912 102.687 24.1384 101.222 23.3096 99.713C22.7815 98.7502 22.3998 97.7725 22.3458 96.8389C22.3198 96.5865 22.1944 96.3547 21.997 96.1941C21.7997 96.0334 21.5464 95.9571 21.2926 95.9817C21.0388 96.0064 20.8051 96.1301 20.6427 96.3257C20.4804 96.5212 20.4024 96.7729 20.426 97.0255L20.4259 97.0254ZM48.8988 5.34324C49.6969 4.71771 50.5952 4.23212 51.5434 3.84444C53.0276 3.23691 54.6277 2.85648 56.158 2.54314C59.7049 1.82557 63.3863 1.66141 66.9484 2.19911C70.5144 2.73756 73.9493 3.97331 77.0064 6.00405C79.5585 7.72418 81.8214 9.83353 84.1075 11.8961C85.6611 13.3025 87.2262 14.6882 88.9148 15.907C90.7306 17.2227 92.6851 18.3493 94.9018 19.1137C96.733 19.7503 98.5795 20.0468 100.434 20.1883C104.651 20.5101 108.911 19.9824 113.117 20.8833C114.856 21.2584 116.444 21.9142 117.936 22.7414C120.234 24.0147 122.304 25.6982 124.351 27.4223C124.448 27.5031 124.561 27.5639 124.682 27.6013C124.804 27.6386 124.931 27.6517 125.058 27.6399C125.184 27.6281 125.307 27.5915 125.419 27.5323C125.531 27.4731 125.63 27.3925 125.711 27.295C125.792 27.1975 125.853 27.0852 125.889 26.9643C125.926 26.8435 125.939 26.7166 125.927 26.5909C125.914 26.4652 125.877 26.3432 125.817 26.2319C125.757 26.1206 125.675 26.0222 125.577 25.9423C123.391 24.2019 121.178 22.5144 118.746 21.2499C117.088 20.3898 115.338 19.7204 113.426 19.3599C109.131 18.5438 104.813 19.1708 100.519 18.9357C98.7645 18.8399 97.0143 18.594 95.2717 18.0272C93.1515 17.3311 91.274 16.289 89.5277 15.0568C87.8584 13.8793 86.3086 12.5359 84.782 11.1563C82.4612 9.0603 80.1945 6.88494 77.6154 5.1165C74.458 2.92352 70.8805 1.57201 67.1604 0.91464C63.4479 0.258433 59.589 0.299436 55.8572 0.94072C54.2111 1.21915 52.4917 1.57392 50.8841 2.16722C49.7585 2.58219 48.6906 3.11873 47.7307 3.8179C47.5274 3.97202 47.3939 4.20018 47.3597 4.45219C47.3255 4.7042 47.3933 4.9594 47.5482 5.16167C47.7031 5.36393 47.9325 5.49669 48.1858 5.53073C48.4391 5.56478 48.6956 5.49732 48.8989 5.34319L48.8988 5.34324Z" fill="#F5F2FD"/>
<path fill-rule="evenodd" clip-rule="evenodd" d="M84.8812 36.2118C84.8807 34.5633 84.2223 32.9824 83.0508 31.8164C81.8793 30.6505 80.2904 29.995 78.6333 29.9939H32.5365C30.8794 29.995 29.2905 30.6505 28.119 31.8164C26.9475 32.9824 26.2891 34.5633 26.2886 36.2118V100.993C26.2891 102.642 26.9475 104.223 28.119 105.389C29.2905 106.555 30.8794 107.21 32.5365 107.212H78.6335C80.2906 107.21 81.8795 106.555 83.051 105.389C84.2225 104.223 84.8809 102.642 84.8814 100.993L84.8812 36.2118Z" fill="white"/>
<path fill-rule="evenodd" clip-rule="evenodd" d="M91.8292 40.1208V31.2031C91.8292 30.5356 91.1558 29.9939 90.3282 29.9939H20.8418C20.0143 29.9939 19.3408 30.5356 19.3408 31.203V40.1208C19.3408 40.7881 20.0143 41.3299 20.8418 41.3299H90.3282C91.1558 41.3299 91.8292 40.7881 91.8292 40.1208V40.1208Z" fill="url(#paint1_linear_38_838)"/>
<path d="M32.7944 37.1974C33.647 37.1974 34.3383 36.5098 34.3383 35.6615C34.3383 34.8132 33.647 34.1255 32.7944 34.1255C31.9417 34.1255 31.2505 34.8132 31.2505 35.6615C31.2505 36.5098 31.9417 37.1974 32.7944 37.1974Z" fill="white"/>
<path d="M37.686 37.1974C38.5386 37.1974 39.2299 36.5098 39.2299 35.6615C39.2299 34.8132 38.5386 34.1255 37.686 34.1255C36.8333 34.1255 36.1421 34.8132 36.1421 35.6615C36.1421 36.5098 36.8333 37.1974 37.686 37.1974Z" fill="white"/>
<path d="M42.7255 37.1974C43.5782 37.1974 44.2694 36.5098 44.2694 35.6615C44.2694 34.8132 43.5782 34.1255 42.7255 34.1255C41.8729 34.1255 41.1816 34.8132 41.1816 35.6615C41.1816 36.5098 41.8729 37.1974 42.7255 37.1974Z" fill="white"/>
<path d="M48.0346 37.1974C48.8873 37.1974 49.5785 36.5098 49.5785 35.6615C49.5785 34.8132 48.8873 34.1255 48.0346 34.1255C47.1819 34.1255 46.4907 34.8132 46.4907 35.6615C46.4907 36.5098 47.1819 37.1974 48.0346 37.1974Z" fill="white"/>
<path d="M47.9293 95.4702C56.1351 95.4702 62.7873 88.9591 62.7873 80.9272C62.7873 72.8953 56.1351 66.3842 47.9293 66.3842C39.7234 66.3842 33.0713 72.8953 33.0713 80.9272C33.0713 88.9591 39.7234 95.4702 47.9293 95.4702Z" fill="#E3E3FE"/>
<path fill-rule="evenodd" clip-rule="evenodd" d="M33.2856 88.1211C40.5124 76.696 43.8503 76.0766 47.905 80.6188C51.965 85.1614 53.206 86.4966 57.8438 84.4009C62.4763 82.3052 64.6373 84.5765 66.0658 87.7078C67.4943 90.839 48.4028 99.4085 44.8721 99.3394C41.3415 99.2702 26.0534 99.5461 33.2856 88.1211V88.1211Z" fill="url(#paint2_linear_38_838)"/>
<path d="M56.3167 77.8278C59.0961 77.8278 61.3493 75.4795 61.3493 72.5828C61.3493 69.686 59.0961 67.3378 56.3167 67.3378C53.5373 67.3378 51.2842 69.686 51.2842 72.5828C51.2842 75.4795 53.5373 77.8278 56.3167 77.8278Z" fill="url(#paint3_linear_38_838)"/>
<path fill-rule="evenodd" clip-rule="evenodd" d="M82.1012 59.7839C82.1007 59.0395 81.803 58.3257 81.2737 57.7995C80.7443 57.2734 80.0266 56.9779 79.2783 56.978H59.7974C59.4271 56.978 59.0605 57.0506 58.7184 57.1917C58.3764 57.3327 58.0656 57.5394 57.8039 57.8C57.5422 58.0606 57.3347 58.3699 57.1933 58.7103C57.0518 59.0507 56.9792 59.4155 56.9795 59.7839V59.7846C56.9792 60.1529 57.0518 60.5177 57.1933 60.8581C57.3348 61.1984 57.5423 61.5077 57.804 61.7682C58.0657 62.0288 58.3765 62.2354 58.7185 62.3764C59.0605 62.5173 59.4271 62.5899 59.7974 62.5898H79.2783C80.0265 62.5901 80.7442 62.2948 81.2736 61.7687C81.803 61.2427 82.1006 60.529 82.1012 59.7846V59.7839Z" fill="#EFEFFE"/>
<path fill-rule="evenodd" clip-rule="evenodd" d="M121.434 40.9301C125.135 40.9301 127.833 44.3198 127.306 48.9211C126.932 52.1819 122.932 55.5766 118.973 57.2036C115.555 58.6092 115.536 53.4664 115.536 48.8354C115.536 44.2044 117.736 40.9301 121.434 40.9301V40.9301Z" fill="#FB9C9A"/>
<path fill-rule="evenodd" clip-rule="evenodd" d="M118.612 65.4021C122.17 73.6029 98.3302 99.8777 90.383 99.2034C82.4341 98.5256 70.9212 61.3425 70.9212 61.3425L67.5718 56.9785L76.4073 58.091L75.7922 59.2842C75.7922 59.2842 88.253 80.8649 91.6396 82.4807C93.3233 83.285 97.7131 70.075 107.031 64.8226C117.191 59.1001 116.577 60.7113 118.612 65.4021V65.4021Z" fill="#DDDDDD"/>
<path fill-rule="evenodd" clip-rule="evenodd" d="M96.3769 70.8793C99.0007 70.5032 103.346 71.2074 104.835 73.6243C105.688 75.0094 105.408 76.6592 105.816 78.1749C106.723 81.5534 109.889 84.8002 113.62 84.6659C118.187 84.5057 119.67 78.4269 120.535 74.9727C121.695 70.3225 122.844 64.3576 118.93 60.6587C118.231 59.997 117.428 59.4736 116.566 59.0521C115.421 58.4972 114.199 58.1163 112.941 57.922C111.37 57.6714 109.734 57.6609 108.166 57.9406C105.588 58.4055 103.191 59.7103 101.197 61.3739C98.613 63.5374 96.7298 66.2051 95.2339 69.1964L96.3769 70.8793Z" fill="url(#paint4_linear_38_838)"/>
<path fill-rule="evenodd" clip-rule="evenodd" d="M123.794 59.5418C136.276 60.6343 140.495 60.909 139.827 83.868C139.153 107.281 108.233 106.459 108.233 106.459C108.233 106.459 112.773 91.8144 109.127 79.3272C104.719 64.253 114.977 58.7698 123.794 59.5418V59.5418Z" fill="url(#paint5_linear_38_838)"/>
<path fill-rule="evenodd" clip-rule="evenodd" d="M93.4523 53.9963C93.4519 52.911 93.0185 51.8703 92.2472 51.1029C91.4758 50.3354 90.4298 49.904 89.3389 49.9035H65.9423C64.8512 49.9035 63.8047 50.3347 63.0332 51.1023C62.2616 51.8699 61.8281 52.911 61.8281 53.9965C61.8281 55.0821 62.2616 56.1232 63.0332 56.8907C63.8047 57.6583 64.8512 58.0896 65.9423 58.0896H89.3389C90.4299 58.089 91.476 57.6575 92.2473 56.89C93.0186 56.1224 93.452 55.0816 93.4523 53.9963Z" fill="#ABDBFF"/>
<path d="M72.2318 52.2111V52.8144C72.0857 52.7864 71.9373 52.7714 71.7885 52.7696C71.3953 52.7696 71.1061 52.8531 70.9211 53.02C70.7361 53.1874 70.6281 53.4687 70.605 53.8657H70.6358C70.7938 53.5929 71.0598 53.4566 71.4338 53.4566C71.7538 53.4566 72.0083 53.5566 72.1971 53.7568C72.386 53.9571 72.4786 54.231 72.4786 54.5787C72.4786 54.9599 72.3706 55.261 72.1547 55.4819C71.9388 55.7032 71.642 55.8137 71.2681 55.8137C71.0225 55.8194 70.7808 55.7518 70.5742 55.6196C70.371 55.483 70.2149 55.2877 70.1269 55.06C70.0267 54.8162 69.9766 54.522 69.9766 54.1776C69.9766 53.5206 70.1231 53.0232 70.4238 52.686C70.7245 52.3489 71.1678 52.1798 71.7576 52.1798C71.9163 52.1781 72.0748 52.1885 72.2318 52.2111ZM71.8155 54.597C71.8155 54.4118 71.7692 54.2694 71.6767 54.1698C71.5803 54.0701 71.4454 54.0202 71.2681 54.0202C71.1086 54.0151 70.9531 54.0699 70.8324 54.1737C70.7781 54.2154 70.7339 54.2688 70.7032 54.3299C70.6725 54.391 70.656 54.4582 70.6551 54.5265C70.6486 54.7065 70.7074 54.8828 70.8208 55.0231C70.8727 55.0822 70.936 55.1303 71.0068 55.1646C71.0777 55.199 71.1548 55.2188 71.2335 55.2229C71.3123 55.2271 71.391 55.2155 71.4652 55.1888C71.5393 55.1621 71.6073 55.1209 71.6651 55.0676C71.7654 54.9637 71.8155 54.8069 71.8155 54.597ZM75.8173 53.9025V53.9205C76.384 53.9907 76.6693 54.273 76.6693 54.7673C76.6693 55.0928 76.5498 55.3485 76.3031 55.5344C76.0601 55.7204 75.7094 55.8137 75.2545 55.8137C74.8651 55.8137 74.5258 55.7498 74.2367 55.6222V54.9929C74.5407 55.1407 74.8738 55.2196 75.2121 55.2238C75.4703 55.2238 75.6631 55.1835 75.7903 55.1029C75.853 55.0638 75.904 55.0086 75.9379 54.9432C75.9718 54.8778 75.9874 54.8045 75.9831 54.731C75.9831 54.5438 75.9098 54.4119 75.7672 54.3352C75.6245 54.2586 75.3971 54.2198 75.081 54.2198H74.7799V53.6665H75.0652C75.3427 53.6665 75.5509 53.6309 75.6936 53.5592C75.8362 53.4874 75.9094 53.3609 75.9094 53.1791C75.9119 53.1223 75.9013 53.0656 75.8786 53.0134C75.8559 52.9612 75.8216 52.9148 75.7783 52.8777C75.6936 52.8059 75.5587 52.7699 75.3774 52.7699C75.2439 52.7703 75.1113 52.7911 74.9842 52.8316C74.8401 52.8802 74.7028 52.9467 74.5755 53.0295L74.2401 52.5237C74.5915 52.3008 74.9993 52.1816 75.416 52.18C75.7783 52.18 76.0636 52.2557 76.2718 52.4071C76.3715 52.476 76.4522 52.5685 76.5068 52.6763C76.5613 52.7842 76.5879 52.9039 76.5841 53.0245C76.5884 53.2292 76.517 53.4283 76.3836 53.5841C76.2527 53.7368 76.0599 53.843 75.8173 53.9025ZM80.1926 53.8971C80.4548 54.0333 80.6437 54.179 80.7632 54.3336C80.9028 54.5165 80.9637 54.747 80.9326 54.9746C80.9016 55.2022 80.781 55.4082 80.5974 55.5474C80.3661 55.725 80.0654 55.8136 79.6992 55.8136C79.3059 55.8136 78.9975 55.7296 78.7778 55.562C78.5619 55.394 78.4501 55.1616 78.4501 54.8644C78.4471 54.6701 78.5065 54.48 78.6197 54.3217C78.7277 54.1664 78.9012 54.0325 79.1324 53.9205C78.7508 53.6846 78.5581 53.3893 78.5581 53.0346C78.5552 52.9125 78.583 52.7916 78.6389 52.6828C78.6947 52.5741 78.7769 52.4809 78.878 52.4116C79.09 52.257 79.3637 52.1797 79.6992 52.1796C80.0346 52.1796 80.3083 52.2563 80.5165 52.4093C80.6174 52.4802 80.6992 52.5749 80.7543 52.685C80.8095 52.795 80.8364 52.9169 80.8325 53.0398C80.8325 53.407 80.6166 53.6927 80.1926 53.8971ZM79.6992 53.6089C79.8804 53.5337 80.0037 53.4555 80.073 53.3742C80.1412 53.296 80.1782 53.1958 80.1771 53.0923C80.1792 53.0401 80.1684 52.9881 80.1455 52.941C80.1226 52.8939 80.0885 52.8531 80.046 52.8223C79.9419 52.7515 79.8174 52.7165 79.6914 52.7226C79.5695 52.7176 79.4493 52.7516 79.3483 52.8196C79.3054 52.8506 79.2709 52.8918 79.248 52.9394C79.2251 52.987 79.2145 53.0396 79.2172 53.0923C79.2161 53.1961 79.2546 53.2965 79.3251 53.373C79.4329 53.4754 79.5601 53.5557 79.6992 53.6089ZM79.6568 54.204C79.2867 54.3593 79.1016 54.5655 79.1016 54.8226C79.0987 54.8859 79.1112 54.949 79.138 55.0065C79.1649 55.064 79.2053 55.1141 79.2558 55.1527C79.3561 55.2332 79.5026 55.2736 79.6876 55.2736C79.8804 55.2736 80.0269 55.2345 80.131 55.157C80.1818 55.1189 80.2225 55.069 80.2494 55.0116C80.2763 54.9542 80.2886 54.8911 80.2852 54.8279C80.2826 54.715 80.2372 54.6073 80.1579 54.5265C80.0692 54.4317 79.9266 54.3364 79.73 54.2404L79.6568 54.204ZM85.2004 55.7611H82.7216V55.2393L83.6429 54.3323C83.9861 53.9932 84.2019 53.7581 84.2867 53.627C84.3693 53.5071 84.4148 53.3658 84.4178 53.2204C84.421 53.1618 84.4113 53.1031 84.3893 53.0486C84.3674 52.9941 84.3336 52.945 84.2906 52.9048C84.1994 52.825 84.0803 52.784 83.9591 52.7905C83.8187 52.7906 83.6797 52.8187 83.5504 52.873C83.3855 52.9472 83.2312 53.0429 83.0916 53.1576L82.71 52.6831C82.8508 52.574 82.9989 52.4746 83.1533 52.3856C83.2713 52.3211 83.3969 52.2713 83.5272 52.2375C83.6742 52.198 83.8259 52.1785 83.9782 52.1797C84.3137 52.1797 84.5835 52.2706 84.7878 52.4524C84.8874 52.5385 84.9667 52.6454 85.02 52.7655C85.0733 52.8857 85.0993 53.016 85.0962 53.1473C85.0964 53.3162 85.0623 53.4834 84.996 53.639C84.9202 53.8105 84.8174 53.9688 84.6914 54.108C84.495 54.3285 84.2865 54.538 84.0669 54.7356L83.6505 55.121V55.1498H85.2003L85.2004 55.7611Z" fill="#20238C"/>
<path fill-rule="evenodd" clip-rule="evenodd" d="M74.5314 58.0899C74.4929 57.6335 75.4836 56.0569 75.8959 55.8137C76.2931 55.5805 76.9638 56.1757 77.0062 56.6319C77.0448 57.0883 76.5435 58.3083 76.1311 58.5511C75.7187 58.7939 74.5699 58.5459 74.5314 58.0899V58.0899Z" fill="#FB9C9A"/>
<path fill-rule="evenodd" clip-rule="evenodd" d="M121.825 40.9302C121.825 40.9302 122.635 42.7102 122.049 44.1131C121.895 44.4832 121.532 44.7536 121.239 45.0217C120.488 45.7013 119.543 46.0631 118.73 46.6405C118.487 46.8101 117.97 47.1388 118.001 47.4916C118.044 47.9031 118.857 47.7098 119.081 47.6435C119.96 47.3819 120.654 47.0724 121.128 47.7846C121.61 48.5117 121.224 50.3001 120.727 51.5117C120.638 51.7264 120.237 52.6368 120.696 52.7278C120.993 52.7858 121.255 52.4433 121.417 52.2508C121.883 51.6854 122.007 49.7563 122.469 49.1848C122.685 48.9202 123.017 48.6184 123.325 49.0958C124.274 50.5696 123.318 52.0866 122.261 52.5917C120.989 53.203 120.827 56.2842 120.827 56.2842C120.827 56.2842 123.587 57.1445 124.443 54.935C125.958 55.4597 128.83 55.0999 128.811 52.1947C131.533 51.0722 132.782 46.8227 130.23 45.3527C130.6 45.1736 130.827 44.65 130.928 44.2876C131.972 40.6242 127.666 36.5155 123.611 38.8128C122.716 39.319 122.064 39.9718 121.825 40.9302V40.9302Z" fill="#5B4214"/>
<path d="M83.6855 128.513C91.3129 128.513 97.4961 122.362 97.4961 114.774C97.4961 107.186 91.3129 101.034 83.6855 101.034C76.0582 101.034 69.875 107.186 69.875 114.774C69.875 122.362 76.0582 128.513 83.6855 128.513Z" fill="url(#paint6_linear_38_838)"/>
<path fill-rule="evenodd" clip-rule="evenodd" d="M75.5942 115.973L80.1664 121.646C80.354 121.879 80.5937 122.065 80.8664 122.189C81.1391 122.314 81.4372 122.373 81.737 122.363C82.0368 122.353 82.3301 122.273 82.5935 122.13C82.8569 121.987 83.0832 121.785 83.2543 121.54L91.7934 109.299C92.0848 108.881 92.1974 108.364 92.1063 107.864C92.0153 107.363 91.728 106.919 91.3078 106.629C90.8876 106.339 90.3688 106.227 89.8656 106.318C89.3624 106.408 88.9159 106.694 88.6245 107.112L81.558 117.242L78.6012 113.574C78.2805 113.18 77.8161 112.929 77.3096 112.875C76.8031 112.821 76.2957 112.968 75.8983 113.285C75.5009 113.602 75.2458 114.063 75.1889 114.567C75.1319 115.07 75.2776 115.576 75.5942 115.973V115.973Z" fill="white"/>
<path fill-rule="evenodd" clip-rule="evenodd" d="M133.751 62.1625C142.695 62.9435 155.741 94.2788 150.239 102.932C144.734 111.585 110.011 112.479 100.736 114.081C93.689 120.205 90.8091 112.586 91.8191 112.576C96.3065 112.532 96.187 108.951 96.187 108.951C96.187 108.951 96.2602 108.576 94.9919 107.053C96.3913 106.073 99.5178 108.901 99.5178 108.901C99.5178 108.901 133.007 96.0852 136.045 93.888C137.556 92.7961 128.123 82.6734 127.737 72.026C127.606 68.3763 128.635 61.7157 133.751 62.1625V62.1625Z" fill="#FB9C9A"/>
<path fill-rule="evenodd" clip-rule="evenodd" d="M128.034 84.2295C128.948 81.7538 131.635 78.2845 134.48 78.1291C136.111 78.0398 137.437 79.0687 138.971 79.432C142.391 80.2423 146.766 79.0136 148.42 75.683C150.448 71.6088 145.776 67.4234 143.131 65.0249C139.569 61.8002 134.839 57.9607 129.708 59.6302C128.79 59.9282 127.946 60.3823 127.163 60.9372C126.128 61.6758 125.211 62.5646 124.441 63.574C123.474 64.8296 122.687 66.2567 122.19 67.7624C121.377 70.24 121.392 72.9585 121.916 75.4943C122.603 78.7842 124.068 81.7001 126.003 84.4308L128.034 84.2295Z" fill="url(#paint7_linear_38_838)"/>
<defs>
<linearGradient id="paint0_linear_38_838" x1="7.9134" y1="41.6592" x2="43.1501" y2="102.206" gradientUnits="userSpaceOnUse">
<stop stop-color="#E3DBF9"/>
<stop offset="0.61" stop-color="#D1C1FA"/>
<stop offset="0.82" stop-color="#A685FB"/>
<stop offset="1" stop-color="#7846FD"/>
</linearGradient>
<linearGradient id="paint1_linear_38_838" x1="16.6854" y1="35.6608" x2="98.384" y2="35.6608" gradientUnits="userSpaceOnUse">
<stop stop-color="#7D441C"/>
<stop offset="0.03" stop-color="#F7E683"/>
<stop offset="0.07" stop-color="#895422"/>
<stop offset="0.08" stop-color="#895422"/>
<stop offset="0.16" stop-color="#E8B75B"/>
<stop offset="0.31" stop-color="#F7E683"/>
<stop offset="0.72" stop-color="#E8B55B"/>
<stop offset="1" stop-color="#503010"/>
</linearGradient>
<linearGradient id="paint2_linear_38_838" x1="30.0928" y1="88.6591" x2="69.2866" y2="88.6591" gradientUnits="userSpaceOnUse">
<stop stop-color="#7D441C"/>
<stop offset="0.03" stop-color="#F7E683"/>
<stop offset="0.07" stop-color="#895422"/>
<stop offset="0.08" stop-color="#895422"/>
<stop offset="0.16" stop-color="#E8B75B"/>
<stop offset="0.31" stop-color="#F7E683"/>
<stop offset="0.72" stop-color="#E8B55B"/>
<stop offset="1" stop-color="#503010"/>
</linearGradient>
<linearGradient id="paint3_linear_38_838" x1="50.9155" y1="72.5818" x2="62.2594" y2="72.5818" gradientUnits="userSpaceOnUse">
<stop stop-color="#7D441C"/>
<stop offset="0.03" stop-color="#F7E683"/>
<stop offset="0.07" stop-color="#895422"/>
<stop offset="0.08" stop-color="#895422"/>
<stop offset="0.16" stop-color="#E8B75B"/>
<stop offset="0.31" stop-color="#F7E683"/>
<stop offset="0.72" stop-color="#E8B55B"/>
<stop offset="1" stop-color="#503010"/>
</linearGradient>
<linearGradient id="paint4_linear_38_838" x1="94.2666" y1="71.1987" x2="124.027" y2="71.1987" gradientUnits="userSpaceOnUse">
<stop stop-color="#7D441C"/>
<stop offset="0.03" stop-color="#F7E683"/>
<stop offset="0.07" stop-color="#895422"/>
<stop offset="0.08" stop-color="#895422"/>
<stop offset="0.16" stop-color="#E8B75B"/>
<stop offset="0.31" stop-color="#F7E683"/>
<stop offset="0.72" stop-color="#E8B55B"/>
<stop offset="1" stop-color="#503010"/>
</linearGradient>
<linearGradient id="paint5_linear_38_838" x1="106.905" y1="82.9624" x2="142.772" y2="82.9624" gradientUnits="userSpaceOnUse">
<stop stop-color="#7D441C"/>
<stop offset="0.03" stop-color="#F7E683"/>
<stop offset="0.07" stop-color="#895422"/>
<stop offset="0.08" stop-color="#895422"/>
<stop offset="0.16" stop-color="#E8B75B"/>
<stop offset="0.31" stop-color="#F7E683"/>
<stop offset="0.72" stop-color="#E8B55B"/>
<stop offset="1" stop-color="#503010"/>
</linearGradient>
<linearGradient id="paint6_linear_38_838" x1="68.8632" y1="114.771" x2="99.9937" y2="114.771" gradientUnits="userSpaceOnUse">
<stop stop-color="#7D441C"/>
<stop offset="0.03" stop-color="#F7E683"/>
<stop offset="0.07" stop-color="#895422"/>
<stop offset="0.08" stop-color="#895422"/>
<stop offset="0.16" stop-color="#E8B75B"/>
<stop offset="0.31" stop-color="#F7E683"/>
<stop offset="0.72" stop-color="#E8B55B"/>
<stop offset="1" stop-color="#503010"/>
</linearGradient>
<linearGradient id="paint7_linear_38_838" x1="120.544" y1="71.8262" x2="151.391" y2="71.8262" gradientUnits="userSpaceOnUse">
<stop stop-color="#7D441C"/>
<stop offset="0.03" stop-color="#F7E683"/>
<stop offset="0.07" stop-color="#895422"/>
<stop offset="0.08" stop-color="#895422"/>
<stop offset="0.16" stop-color="#E8B75B"/>
<stop offset="0.31" stop-color="#F7E683"/>
<stop offset="0.72" stop-color="#E8B55B"/>
<stop offset="1" stop-color="#503010"/>
</linearGradient>
</defs>
</svg>
