<svg width="275" height="62" viewBox="0 0 275 62" fill="none" xmlns="http://www.w3.org/2000/svg">
<path d="M15.1476 1.912L11.7876 13H10.1556L7.65956 4.04L4.98756 13L3.37156 13.016L0.235563 1.912H1.77156L4.23556 11.336L6.92356 1.912H8.52356L11.0036 11.304L13.6116 1.912H15.1476ZM24.7071 8.248C24.7071 8.55733 24.6857 8.84533 24.6431 9.112H17.6511C17.6937 9.98667 17.9657 10.68 18.4671 11.192C18.9791 11.6933 19.6297 11.944 20.4191 11.944C21.0164 11.944 21.5177 11.8107 21.9231 11.544C22.3391 11.2773 22.6431 10.9253 22.8351 10.488H24.4031C24.1257 11.256 23.6457 11.8907 22.9631 12.392C22.2911 12.8933 21.4431 13.144 20.4191 13.144C19.5977 13.144 18.8617 12.9573 18.2111 12.584C17.5711 12.2107 17.0697 11.6827 16.7071 11C16.3444 10.3067 16.1631 9.512 16.1631 8.616C16.1631 7.70933 16.3444 6.91467 16.7071 6.232C17.0697 5.53867 17.5817 5.00533 18.2431 4.632C18.9044 4.25867 19.6671 4.072 20.5311 4.072C21.3524 4.072 22.0777 4.25333 22.7071 4.616C23.3364 4.97867 23.8271 5.47467 24.1791 6.104C24.5311 6.73333 24.7071 7.448 24.7071 8.248ZM23.1871 8.056C23.1871 7.49067 23.0644 7 22.8191 6.584C22.5737 6.15733 22.2377 5.832 21.8111 5.608C21.3951 5.384 20.9311 5.272 20.4191 5.272C19.6617 5.272 19.0271 5.52267 18.5151 6.024C18.0031 6.51467 17.7204 7.192 17.6671 8.056H23.1871ZM35.6372 4.072C36.2665 4.072 36.8372 4.216 37.3492 4.504C37.8719 4.78133 38.2825 5.20267 38.5812 5.768C38.8905 6.32267 39.0452 7 39.0452 7.8V13H37.6052V8.04C37.6052 7.15467 37.3919 6.48267 36.9652 6.024C36.5385 5.56533 35.9465 5.336 35.1892 5.336C34.4425 5.336 33.8505 5.56533 33.4132 6.024C32.9865 6.48267 32.7732 7.15467 32.7732 8.04V13H31.3172V1.16H32.7732V5.64C33.0612 5.128 33.4559 4.73867 33.9572 4.472C34.4585 4.20533 35.0185 4.072 35.6372 4.072ZM44.9801 4.072C45.7267 4.072 46.3774 4.248 46.9321 4.6C47.4974 4.952 47.9241 5.41067 48.2121 5.976V4.216H49.6841V13H48.2121V11.208C47.9241 11.784 47.4974 12.2533 46.9321 12.616C46.3774 12.968 45.7267 13.144 44.9801 13.144C44.1907 13.144 43.4761 12.952 42.8361 12.568C42.2067 12.1733 41.7054 11.6293 41.3321 10.936C40.9694 10.232 40.7881 9.43733 40.7881 8.552C40.7881 7.66667 40.9694 6.888 41.3321 6.216C41.7054 5.53333 42.2067 5.00533 42.8361 4.632C43.4761 4.25867 44.1907 4.072 44.9801 4.072ZM45.2361 5.336C44.7134 5.336 44.2227 5.464 43.7641 5.72C43.3161 5.976 42.9534 6.34933 42.6761 6.84C42.4094 7.32 42.2761 7.89067 42.2761 8.552C42.2761 9.21333 42.4094 9.8 42.6761 10.312C42.9534 10.8133 43.3161 11.2027 43.7641 11.48C44.2227 11.7573 44.7134 11.896 45.2361 11.896C45.7694 11.896 46.2601 11.7627 46.7081 11.496C47.1667 11.2293 47.5294 10.8507 47.7961 10.36C48.0734 9.85867 48.2121 9.27733 48.2121 8.616C48.2121 7.95467 48.0734 7.37867 47.7961 6.888C47.5294 6.38667 47.1667 6.00267 46.7081 5.736C46.2601 5.46933 45.7694 5.336 45.2361 5.336ZM55.3148 11.64L58.0188 4.216H59.5868L56.1468 13H54.4988L51.0748 4.216H52.6268L55.3148 11.64ZM68.9414 8.248C68.9414 8.55733 68.9201 8.84533 68.8774 9.112H61.8854C61.9281 9.98667 62.2001 10.68 62.7014 11.192C63.2134 11.6933 63.8641 11.944 64.6534 11.944C65.2508 11.944 65.7521 11.8107 66.1574 11.544C66.5734 11.2773 66.8774 10.9253 67.0694 10.488H68.6374C68.3601 11.256 67.8801 11.8907 67.1974 12.392C66.5254 12.8933 65.6774 13.144 64.6534 13.144C63.8321 13.144 63.0961 12.9573 62.4454 12.584C61.8054 12.2107 61.3041 11.6827 60.9414 11C60.5788 10.3067 60.3974 9.512 60.3974 8.616C60.3974 7.70933 60.5788 6.91467 60.9414 6.232C61.3041 5.53867 61.8161 5.00533 62.4774 4.632C63.1388 4.25867 63.9014 4.072 64.7654 4.072C65.5868 4.072 66.3121 4.25333 66.9414 4.616C67.5708 4.97867 68.0614 5.47467 68.4134 6.104C68.7654 6.73333 68.9414 7.448 68.9414 8.248ZM67.4214 8.056C67.4214 7.49067 67.2988 7 67.0534 6.584C66.8081 6.15733 66.4721 5.832 66.0454 5.608C65.6294 5.384 65.1654 5.272 64.6534 5.272C63.8961 5.272 63.2614 5.52267 62.7494 6.024C62.2374 6.51467 61.9548 7.192 61.9014 8.056H67.4214ZM78.5756 4.072C79.5249 4.072 80.2769 4.32267 80.8316 4.824C81.3862 5.31467 81.6902 5.992 81.7436 6.856H80.2396C80.2182 6.36533 80.0529 5.97067 79.7436 5.672C79.4342 5.37333 79.0076 5.224 78.4636 5.224C77.9089 5.224 77.4716 5.35733 77.1516 5.624C76.8422 5.88 76.6876 6.20533 76.6876 6.6C76.6876 6.93067 76.7836 7.19733 76.9756 7.4C77.1782 7.592 77.4236 7.736 77.7116 7.832C78.0102 7.928 78.4102 8.02933 78.9116 8.136C79.5516 8.28533 80.0636 8.43467 80.4476 8.584C80.8422 8.72267 81.1782 8.96267 81.4556 9.304C81.7329 9.63467 81.8716 10.088 81.8716 10.664C81.8716 11.144 81.7329 11.576 81.4556 11.96C81.1782 12.3333 80.7889 12.6267 80.2876 12.84C79.7862 13.0427 79.2102 13.144 78.5596 13.144C77.5782 13.144 76.7889 12.8987 76.1916 12.408C75.6049 11.9173 75.2849 11.24 75.2316 10.376H76.7356C76.7569 10.8667 76.9276 11.2613 77.2476 11.56C77.5782 11.848 78.0156 11.992 78.5596 11.992C79.1569 11.992 79.6156 11.8693 79.9356 11.624C80.2662 11.3787 80.4316 11.0533 80.4316 10.648C80.4316 10.3173 80.3302 10.056 80.1276 9.864C79.9356 9.66133 79.6902 9.512 79.3916 9.416C79.0929 9.30933 78.6822 9.19733 78.1596 9.08C77.5302 8.94133 77.0182 8.80267 76.6236 8.664C76.2396 8.51467 75.9089 8.28533 75.6316 7.976C75.3649 7.66667 75.2316 7.24 75.2316 6.696C75.2316 6.216 75.3649 5.77867 75.6316 5.384C75.9089 4.97867 76.2982 4.65867 76.7996 4.424C77.3116 4.18933 77.9036 4.072 78.5756 4.072ZM91.9414 8.248C91.9414 8.55733 91.9201 8.84533 91.8774 9.112H84.8854C84.9281 9.98667 85.2001 10.68 85.7014 11.192C86.2134 11.6933 86.8641 11.944 87.6534 11.944C88.2508 11.944 88.7521 11.8107 89.1574 11.544C89.5734 11.2773 89.8774 10.9253 90.0694 10.488H91.6374C91.3601 11.256 90.8801 11.8907 90.1974 12.392C89.5254 12.8933 88.6774 13.144 87.6534 13.144C86.8321 13.144 86.0961 12.9573 85.4454 12.584C84.8054 12.2107 84.3041 11.6827 83.9414 11C83.5788 10.3067 83.3974 9.512 83.3974 8.616C83.3974 7.70933 83.5788 6.91467 83.9414 6.232C84.3041 5.53867 84.8161 5.00533 85.4774 4.632C86.1388 4.25867 86.9014 4.072 87.7654 4.072C88.5868 4.072 89.3121 4.25333 89.9414 4.616C90.5708 4.97867 91.0614 5.47467 91.4134 6.104C91.7654 6.73333 91.9414 7.448 91.9414 8.248ZM90.4214 8.056C90.4214 7.49067 90.2988 7 90.0534 6.584C89.8081 6.15733 89.4721 5.832 89.0454 5.608C88.6294 5.384 88.1654 5.272 87.6534 5.272C86.8961 5.272 86.2614 5.52267 85.7494 6.024C85.2374 6.51467 84.9548 7.192 84.9014 8.056H90.4214ZM98.0747 4.072C98.704 4.072 99.2747 4.216 99.7867 4.504C100.309 4.78133 100.72 5.20267 101.019 5.768C101.328 6.32267 101.483 7 101.483 7.8V13H100.043V8.04C100.043 7.15467 99.8294 6.48267 99.4027 6.024C98.976 5.56533 98.384 5.336 97.6267 5.336C96.88 5.336 96.288 5.56533 95.8507 6.024C95.424 6.48267 95.2107 7.15467 95.2107 8.04V13H93.7547V4.216H95.2107V5.64C95.4987 5.128 95.8934 4.73867 96.3947 4.472C96.896 4.20533 97.456 4.072 98.0747 4.072ZM107.882 11.816V13H106.41C105.663 13 105.092 12.8187 104.698 12.456C104.314 12.0933 104.122 11.5227 104.122 10.744V5.4H102.986V4.216H104.122V2.04H105.594V4.216H107.866V5.4H105.594V10.744C105.594 11.1387 105.674 11.416 105.834 11.576C105.994 11.736 106.276 11.816 106.682 11.816H107.882ZM117.902 4.072C118.649 4.072 119.299 4.248 119.854 4.6C120.419 4.952 120.846 5.41067 121.134 5.976V4.216H122.606V13H121.134V11.208C120.846 11.784 120.419 12.2533 119.854 12.616C119.299 12.968 118.649 13.144 117.902 13.144C117.113 13.144 116.398 12.952 115.758 12.568C115.129 12.1733 114.627 11.6293 114.254 10.936C113.891 10.232 113.71 9.43733 113.71 8.552C113.71 7.66667 113.891 6.888 114.254 6.216C114.627 5.53333 115.129 5.00533 115.758 4.632C116.398 4.25867 117.113 4.072 117.902 4.072ZM118.158 5.336C117.635 5.336 117.145 5.464 116.686 5.72C116.238 5.976 115.875 6.34933 115.598 6.84C115.331 7.32 115.198 7.89067 115.198 8.552C115.198 9.21333 115.331 9.8 115.598 10.312C115.875 10.8133 116.238 11.2027 116.686 11.48C117.145 11.7573 117.635 11.896 118.158 11.896C118.691 11.896 119.182 11.7627 119.63 11.496C120.089 11.2293 120.451 10.8507 120.718 10.36C120.995 9.85867 121.134 9.27733 121.134 8.616C121.134 7.95467 120.995 7.37867 120.718 6.888C120.451 6.38667 120.089 6.00267 119.63 5.736C119.182 5.46933 118.691 5.336 118.158 5.336ZM129.322 10.408V9.384L134.826 1.48H136.682V9.16H138.234V10.408H136.682V13H135.274V10.408H129.322ZM135.322 2.824L131.018 9.16H135.322V2.824ZM146.63 6.52V7.768H140.246V6.52H146.63ZM152.949 4.072C153.695 4.072 154.346 4.248 154.901 4.6C155.466 4.952 155.893 5.41067 156.181 5.976V1.16H157.653V13H156.181V11.208C155.893 11.784 155.466 12.2533 154.901 12.616C154.346 12.968 153.695 13.144 152.949 13.144C152.159 13.144 151.445 12.952 150.805 12.568C150.175 12.1733 149.674 11.6293 149.301 10.936C148.938 10.232 148.757 9.43733 148.757 8.552C148.757 7.66667 148.938 6.888 149.301 6.216C149.674 5.53333 150.175 5.00533 150.805 4.632C151.445 4.25867 152.159 4.072 152.949 4.072ZM153.205 5.336C152.682 5.336 152.191 5.464 151.733 5.72C151.285 5.976 150.922 6.34933 150.645 6.84C150.378 7.32 150.245 7.89067 150.245 8.552C150.245 9.21333 150.378 9.8 150.645 10.312C150.922 10.8133 151.285 11.2027 151.733 11.48C152.191 11.7573 152.682 11.896 153.205 11.896C153.738 11.896 154.229 11.7627 154.677 11.496C155.135 11.2293 155.498 10.8507 155.765 10.36C156.042 9.85867 156.181 9.27733 156.181 8.616C156.181 7.95467 156.042 7.37867 155.765 6.888C155.498 6.38667 155.135 6.00267 154.677 5.736C154.229 5.46933 153.738 5.336 153.205 5.336ZM159.812 1.816C159.812 1.53867 159.908 1.304 160.1 1.112C160.292 0.919999 160.521 0.823999 160.788 0.823999C161.065 0.823999 161.3 0.919999 161.492 1.112C161.684 1.304 161.78 1.53867 161.78 1.816C161.78 2.09333 161.684 2.328 161.492 2.52C161.3 2.712 161.065 2.808 160.788 2.808C160.51 2.808 160.276 2.712 160.084 2.52C159.902 2.328 159.812 2.09333 159.812 1.816ZM161.508 4.216V13H160.052V4.216H161.508ZM167.527 4.072C168.274 4.072 168.924 4.248 169.479 4.6C170.044 4.952 170.471 5.41067 170.759 5.976V4.216H172.231V13.224C172.231 14.024 172.055 14.7333 171.703 15.352C171.351 15.9707 170.855 16.4507 170.215 16.792C169.575 17.144 168.834 17.32 167.991 17.32C167.255 17.32 166.583 17.192 165.975 16.936C165.367 16.6907 164.871 16.3387 164.487 15.88C164.103 15.4213 163.874 14.8987 163.799 14.312H165.223C165.362 14.8133 165.687 15.2293 166.199 15.56C166.711 15.8907 167.308 16.056 167.991 16.056C168.823 16.056 169.49 15.8053 169.991 15.304C170.503 14.8133 170.759 14.12 170.759 13.224V11.208C170.471 11.784 170.044 12.2533 169.479 12.616C168.924 12.968 168.274 13.144 167.527 13.144C166.738 13.144 166.023 12.952 165.383 12.568C164.754 12.1733 164.252 11.6293 163.879 10.936C163.516 10.232 163.335 9.43733 163.335 8.552C163.335 7.66667 163.516 6.888 163.879 6.216C164.252 5.53333 164.754 5.00533 165.383 4.632C166.023 4.25867 166.738 4.072 167.527 4.072ZM167.783 5.336C167.26 5.336 166.77 5.464 166.311 5.72C165.863 5.976 165.5 6.34933 165.223 6.84C164.956 7.32 164.823 7.89067 164.823 8.552C164.823 9.21333 164.956 9.8 165.223 10.312C165.5 10.8133 165.863 11.2027 166.311 11.48C166.77 11.7573 167.26 11.896 167.783 11.896C168.316 11.896 168.807 11.7627 169.255 11.496C169.714 11.2293 170.076 10.8507 170.343 10.36C170.62 9.85867 170.759 9.27733 170.759 8.616C170.759 7.95467 170.62 7.37867 170.343 6.888C170.076 6.38667 169.714 6.00267 169.255 5.736C168.807 5.46933 168.316 5.336 167.783 5.336ZM174.39 1.816C174.39 1.53867 174.486 1.304 174.678 1.112C174.87 0.919999 175.099 0.823999 175.366 0.823999C175.643 0.823999 175.878 0.919999 176.07 1.112C176.262 1.304 176.358 1.53867 176.358 1.816C176.358 2.09333 176.262 2.328 176.07 2.52C175.878 2.712 175.643 2.808 175.366 2.808C175.088 2.808 174.854 2.712 174.662 2.52C174.48 2.328 174.39 2.09333 174.39 1.816ZM176.086 4.216V13H174.63V4.216H176.086ZM182.569 11.816V13H181.097C180.35 13 179.78 12.8187 179.385 12.456C179.001 12.0933 178.809 11.5227 178.809 10.744V5.4H177.673V4.216H178.809V2.04H180.281V4.216H182.553V5.4H180.281V10.744C180.281 11.1387 180.361 11.416 180.521 11.576C180.681 11.736 180.964 11.816 181.369 11.816H182.569ZM192.205 11.64L194.909 4.216H196.477L193.037 13H191.389L187.965 4.216H189.517L192.205 11.64ZM205.832 8.248C205.832 8.55733 205.811 8.84533 205.768 9.112H198.776C198.819 9.98667 199.091 10.68 199.592 11.192C200.104 11.6933 200.755 11.944 201.544 11.944C202.141 11.944 202.643 11.8107 203.048 11.544C203.464 11.2773 203.768 10.9253 203.96 10.488H205.528C205.251 11.256 204.771 11.8907 204.088 12.392C203.416 12.8933 202.568 13.144 201.544 13.144C200.723 13.144 199.987 12.9573 199.336 12.584C198.696 12.2107 198.195 11.6827 197.832 11C197.469 10.3067 197.288 9.512 197.288 8.616C197.288 7.70933 197.469 6.91467 197.832 6.232C198.195 5.53867 198.707 5.00533 199.368 4.632C200.029 4.25867 200.792 4.072 201.656 4.072C202.477 4.072 203.203 4.25333 203.832 4.616C204.461 4.97867 204.952 5.47467 205.304 6.104C205.656 6.73333 205.832 7.448 205.832 8.248ZM204.312 8.056C204.312 7.49067 204.189 7 203.944 6.584C203.699 6.15733 203.363 5.832 202.936 5.608C202.52 5.384 202.056 5.272 201.544 5.272C200.787 5.272 200.152 5.52267 199.64 6.024C199.128 6.51467 198.845 7.192 198.792 8.056H204.312ZM209.101 5.704C209.624 4.616 210.515 4.072 211.773 4.072V5.592H211.389C210.643 5.592 210.072 5.78933 209.677 6.184C209.293 6.568 209.101 7.24 209.101 8.2V13H207.645V4.216H209.101V5.704ZM213.296 1.816C213.296 1.53867 213.392 1.304 213.584 1.112C213.776 0.919999 214.005 0.823999 214.272 0.823999C214.549 0.823999 214.784 0.919999 214.976 1.112C215.168 1.304 215.264 1.53867 215.264 1.816C215.264 2.09333 215.168 2.328 214.976 2.52C214.784 2.712 214.549 2.808 214.272 2.808C213.995 2.808 213.76 2.712 213.568 2.52C213.387 2.328 213.296 2.09333 213.296 1.816ZM214.992 4.216V13H213.536V4.216H214.992ZM219.171 4.216H224.131V13H222.675V5.4H219.171V13H217.699V5.4H216.563V4.216H217.699V3.48C217.699 2.52 217.955 1.82133 218.467 1.384C218.979 0.946666 219.785 0.728 220.883 0.728V1.912C220.243 1.912 219.795 2.03467 219.539 2.28C219.294 2.51467 219.171 2.91467 219.171 3.48V4.216ZM223.411 2.808C223.134 2.808 222.899 2.712 222.707 2.52C222.526 2.328 222.435 2.09333 222.435 1.816C222.435 1.53867 222.531 1.304 222.723 1.112C222.915 0.919999 223.145 0.823999 223.411 0.823999C223.689 0.823999 223.918 0.919999 224.099 1.112C224.291 1.304 224.387 1.53867 224.387 1.816C224.387 2.09333 224.291 2.328 224.099 2.52C223.918 2.712 223.689 2.808 223.411 2.808ZM230.216 4.072C231.272 4.072 232.131 4.31733 232.792 4.808C233.464 5.29867 233.933 5.99733 234.2 6.904H232.632C232.461 6.392 232.168 5.992 231.752 5.704C231.336 5.416 230.824 5.272 230.216 5.272C229.384 5.272 228.712 5.56533 228.2 6.152C227.699 6.728 227.448 7.54933 227.448 8.616C227.448 9.672 227.699 10.4933 228.2 11.08C228.712 11.656 229.384 11.944 230.216 11.944C230.835 11.944 231.347 11.8053 231.752 11.528C232.157 11.2507 232.451 10.8453 232.632 10.312H234.2C233.933 11.176 233.459 11.864 232.776 12.376C232.104 12.888 231.251 13.144 230.216 13.144C229.395 13.144 228.659 12.9573 228.008 12.584C227.368 12.2107 226.867 11.6827 226.504 11C226.141 10.3067 225.96 9.512 225.96 8.616C225.96 7.70933 226.141 6.91467 226.504 6.232C226.867 5.53867 227.368 5.00533 228.008 4.632C228.648 4.25867 229.384 4.072 230.216 4.072ZM239.746 4.072C240.492 4.072 241.143 4.248 241.698 4.6C242.263 4.952 242.69 5.41067 242.978 5.976V4.216H244.45V13H242.978V11.208C242.69 11.784 242.263 12.2533 241.698 12.616C241.143 12.968 240.492 13.144 239.746 13.144C238.956 13.144 238.242 12.952 237.602 12.568C236.972 12.1733 236.471 11.6293 236.098 10.936C235.735 10.232 235.554 9.43733 235.554 8.552C235.554 7.66667 235.735 6.888 236.098 6.216C236.471 5.53333 236.972 5.00533 237.602 4.632C238.242 4.25867 238.956 4.072 239.746 4.072ZM240.002 5.336C239.479 5.336 238.988 5.464 238.53 5.72C238.082 5.976 237.719 6.34933 237.442 6.84C237.175 7.32 237.042 7.89067 237.042 8.552C237.042 9.21333 237.175 9.8 237.442 10.312C237.719 10.8133 238.082 11.2027 238.53 11.48C238.988 11.7573 239.479 11.896 240.002 11.896C240.535 11.896 241.026 11.7627 241.474 11.496C241.932 11.2293 242.295 10.8507 242.562 10.36C242.839 9.85867 242.978 9.27733 242.978 8.616C242.978 7.95467 242.839 7.37867 242.562 6.888C242.295 6.38667 241.932 6.00267 241.474 5.736C241.026 5.46933 240.535 5.336 240.002 5.336ZM250.928 11.816V13H249.456C248.71 13 248.139 12.8187 247.744 12.456C247.36 12.0933 247.168 11.5227 247.168 10.744V5.4H246.032V4.216H247.168V2.04H248.64V4.216H250.912V5.4H248.64V10.744C248.64 11.1387 248.72 11.416 248.88 11.576C249.04 11.736 249.323 11.816 249.728 11.816H250.928ZM252.296 1.816C252.296 1.53867 252.392 1.304 252.584 1.112C252.776 0.919999 253.005 0.823999 253.272 0.823999C253.549 0.823999 253.784 0.919999 253.976 1.112C254.168 1.304 254.264 1.53867 254.264 1.816C254.264 2.09333 254.168 2.328 253.976 2.52C253.784 2.712 253.549 2.808 253.272 2.808C252.995 2.808 252.76 2.712 252.568 2.52C252.387 2.328 252.296 2.09333 252.296 1.816ZM253.992 4.216V13H252.536V4.216H253.992ZM260.251 4.072C261.083 4.072 261.835 4.25867 262.507 4.632C263.179 5.00533 263.707 5.53867 264.091 6.232C264.486 6.92533 264.683 7.72 264.683 8.616C264.683 9.50133 264.481 10.2907 264.075 10.984C263.67 11.6667 263.121 12.2 262.427 12.584C261.734 12.9573 260.966 13.144 260.123 13.144C259.302 13.144 258.561 12.9573 257.899 12.584C257.249 12.2107 256.737 11.6827 256.363 11C256.001 10.3067 255.819 9.512 255.819 8.616C255.819 7.70933 256.011 6.91467 256.395 6.232C256.79 5.53867 257.323 5.00533 257.995 4.632C258.667 4.25867 259.419 4.072 260.251 4.072ZM260.203 5.272C259.67 5.272 259.185 5.4 258.747 5.656C258.31 5.912 257.958 6.29067 257.691 6.792C257.435 7.29333 257.307 7.90133 257.307 8.616C257.307 9.32 257.43 9.92267 257.675 10.424C257.931 10.9253 258.273 11.304 258.699 11.56C259.126 11.816 259.601 11.944 260.123 11.944C260.657 11.944 261.153 11.816 261.611 11.56C262.081 11.2933 262.459 10.9093 262.747 10.408C263.035 9.90667 263.179 9.30933 263.179 8.616C263.179 7.912 263.041 7.30933 262.763 6.808C262.497 6.296 262.134 5.912 261.675 5.656C261.227 5.4 260.737 5.272 260.203 5.272ZM270.825 4.072C271.454 4.072 272.025 4.216 272.537 4.504C273.059 4.78133 273.47 5.20267 273.769 5.768C274.078 6.32267 274.233 7 274.233 7.8V13H272.793V8.04C272.793 7.15467 272.579 6.48267 272.153 6.024C271.726 5.56533 271.134 5.336 270.377 5.336C269.63 5.336 269.038 5.56533 268.601 6.024C268.174 6.48267 267.961 7.15467 267.961 8.04V13H266.505V4.216H267.961V5.64C268.249 5.128 268.643 4.73867 269.145 4.472C269.646 4.20533 270.206 4.072 270.825 4.072ZM43.5222 35.816V37H42.0502C41.3035 37 40.7329 36.8187 40.3382 36.456C39.9542 36.0933 39.7622 35.5227 39.7622 34.744V29.4H38.6262V28.216H39.7622V26.04H41.2342V28.216H43.5062V29.4H41.2342V34.744C41.2342 35.1387 41.3142 35.416 41.4742 35.576C41.6342 35.736 41.9169 35.816 42.3222 35.816H43.5222ZM48.9857 28.072C49.8177 28.072 50.5697 28.2587 51.2417 28.632C51.9137 29.0053 52.4417 29.5387 52.8257 30.232C53.2204 30.9253 53.4177 31.72 53.4177 32.616C53.4177 33.5013 53.215 34.2907 52.8097 34.984C52.4044 35.6667 51.855 36.2 51.1617 36.584C50.4684 36.9573 49.7004 37.144 48.8577 37.144C48.0364 37.144 47.295 36.9573 46.6337 36.584C45.983 36.2107 45.471 35.6827 45.0977 35C44.735 34.3067 44.5537 33.512 44.5537 32.616C44.5537 31.7093 44.7457 30.9147 45.1297 30.232C45.5244 29.5387 46.0577 29.0053 46.7297 28.632C47.4017 28.2587 48.1537 28.072 48.9857 28.072ZM48.9377 29.272C48.4044 29.272 47.919 29.4 47.4817 29.656C47.0444 29.912 46.6924 30.2907 46.4257 30.792C46.1697 31.2933 46.0417 31.9013 46.0417 32.616C46.0417 33.32 46.1644 33.9227 46.4097 34.424C46.6657 34.9253 47.007 35.304 47.4337 35.56C47.8604 35.816 48.335 35.944 48.8577 35.944C49.391 35.944 49.887 35.816 50.3457 35.56C50.815 35.2933 51.1937 34.9093 51.4817 34.408C51.7697 33.9067 51.9137 33.3093 51.9137 32.616C51.9137 31.912 51.775 31.3093 51.4977 30.808C51.231 30.296 50.8684 29.912 50.4097 29.656C49.9617 29.4 49.471 29.272 48.9377 29.272ZM60.6279 28.216L63.3159 35.32L66.0519 28.216H67.5559L62.2599 41.112H60.7559L62.4999 36.856L59.0279 28.216H60.6279ZM72.7982 28.072C73.6302 28.072 74.3822 28.2587 75.0542 28.632C75.7262 29.0053 76.2542 29.5387 76.6382 30.232C77.0329 30.9253 77.2302 31.72 77.2302 32.616C77.2302 33.5013 77.0275 34.2907 76.6222 34.984C76.2169 35.6667 75.6675 36.2 74.9742 36.584C74.2809 36.9573 73.5129 37.144 72.6702 37.144C71.8489 37.144 71.1075 36.9573 70.4462 36.584C69.7955 36.2107 69.2835 35.6827 68.9102 35C68.5475 34.3067 68.3662 33.512 68.3662 32.616C68.3662 31.7093 68.5582 30.9147 68.9422 30.232C69.3369 29.5387 69.8702 29.0053 70.5422 28.632C71.2142 28.2587 71.9662 28.072 72.7982 28.072ZM72.7502 29.272C72.2169 29.272 71.7315 29.4 71.2942 29.656C70.8569 29.912 70.5049 30.2907 70.2382 30.792C69.9822 31.2933 69.8542 31.9013 69.8542 32.616C69.8542 33.32 69.9769 33.9227 70.2222 34.424C70.4782 34.9253 70.8195 35.304 71.2462 35.56C71.6729 35.816 72.1475 35.944 72.6702 35.944C73.2035 35.944 73.6995 35.816 74.1582 35.56C74.6275 35.2933 75.0062 34.9093 75.2942 34.408C75.5822 33.9067 75.7262 33.3093 75.7262 32.616C75.7262 31.912 75.5875 31.3093 75.3102 30.808C75.0435 30.296 74.6809 29.912 74.2222 29.656C73.7742 29.4 73.2835 29.272 72.7502 29.272ZM86.6996 28.216V37H85.2436V35.592C84.9556 36.104 84.5609 36.4933 84.0596 36.76C83.5582 37.016 82.9982 37.144 82.3796 37.144C81.7502 37.144 81.1742 37.0053 80.6516 36.728C80.1396 36.44 79.7289 36.0187 79.4196 35.464C79.1209 34.9093 78.9716 34.232 78.9716 33.432V28.216H80.4116V33.192C80.4116 34.0667 80.6249 34.7387 81.0516 35.208C81.4889 35.6667 82.0809 35.896 82.8276 35.896C83.5742 35.896 84.1609 35.6667 84.5876 35.208C85.0249 34.7387 85.2436 34.0667 85.2436 33.192V28.216H86.6996ZM90.5544 29.704C91.0771 28.616 91.9678 28.072 93.2264 28.072V29.592H92.8424C92.0958 29.592 91.5251 29.7893 91.1304 30.184C90.7464 30.568 90.5544 31.24 90.5544 32.2V37H89.0984V28.216H90.5544V29.704ZM103.402 28.072C104.149 28.072 104.799 28.248 105.354 28.6C105.919 28.952 106.346 29.4107 106.634 29.976V28.216H108.106V37H106.634V35.208C106.346 35.784 105.919 36.2533 105.354 36.616C104.799 36.968 104.149 37.144 103.402 37.144C102.613 37.144 101.898 36.952 101.258 36.568C100.629 36.1733 100.127 35.6293 99.7539 34.936C99.3913 34.232 99.2099 33.4373 99.2099 32.552C99.2099 31.6667 99.3913 30.888 99.7539 30.216C100.127 29.5333 100.629 29.0053 101.258 28.632C101.898 28.2587 102.613 28.072 103.402 28.072ZM103.658 29.336C103.135 29.336 102.645 29.464 102.186 29.72C101.738 29.976 101.375 30.3493 101.098 30.84C100.831 31.32 100.698 31.8907 100.698 32.552C100.698 33.2133 100.831 33.8 101.098 34.312C101.375 34.8133 101.738 35.2027 102.186 35.48C102.645 35.7573 103.135 35.896 103.658 35.896C104.191 35.896 104.682 35.7627 105.13 35.496C105.589 35.2293 105.951 34.8507 106.218 34.36C106.495 33.8587 106.634 33.2773 106.634 32.616C106.634 31.9547 106.495 31.3787 106.218 30.888C105.951 30.3867 105.589 30.0027 105.13 29.736C104.682 29.4693 104.191 29.336 103.658 29.336ZM114.825 28.072C115.454 28.072 116.025 28.216 116.537 28.504C117.059 28.7813 117.47 29.2027 117.769 29.768C118.078 30.3227 118.233 31 118.233 31.8V37H116.793V32.04C116.793 31.1547 116.579 30.4827 116.153 30.024C115.726 29.5653 115.134 29.336 114.377 29.336C113.63 29.336 113.038 29.5653 112.601 30.024C112.174 30.4827 111.961 31.1547 111.961 32.04V37H110.505V28.216H111.961V29.64C112.249 29.128 112.643 28.7387 113.145 28.472C113.646 28.2053 114.206 28.072 114.825 28.072ZM133.316 32.248C133.316 32.5573 133.295 32.8453 133.252 33.112H126.26C126.303 33.9867 126.575 34.68 127.076 35.192C127.588 35.6933 128.239 35.944 129.028 35.944C129.626 35.944 130.127 35.8107 130.532 35.544C130.948 35.2773 131.252 34.9253 131.444 34.488H133.012C132.735 35.256 132.255 35.8907 131.572 36.392C130.9 36.8933 130.052 37.144 129.028 37.144C128.207 37.144 127.471 36.9573 126.82 36.584C126.18 36.2107 125.679 35.6827 125.316 35C124.954 34.3067 124.772 33.512 124.772 32.616C124.772 31.7093 124.954 30.9147 125.316 30.232C125.679 29.5387 126.191 29.0053 126.852 28.632C127.514 28.2587 128.276 28.072 129.14 28.072C129.962 28.072 130.687 28.2533 131.316 28.616C131.946 28.9787 132.436 29.4747 132.788 30.104C133.14 30.7333 133.316 31.448 133.316 32.248ZM131.796 32.056C131.796 31.4907 131.674 31 131.428 30.584C131.183 30.1573 130.847 29.832 130.42 29.608C130.004 29.384 129.54 29.272 129.028 29.272C128.271 29.272 127.636 29.5227 127.124 30.024C126.612 30.5147 126.33 31.192 126.276 32.056H131.796ZM145.69 28.072C146.33 28.072 146.911 28.216 147.434 28.504C147.956 28.7813 148.367 29.2027 148.666 29.768C148.975 30.3227 149.13 31 149.13 31.8V37H147.69V32.04C147.69 31.1547 147.471 30.4827 147.034 30.024C146.607 29.5653 146.02 29.336 145.274 29.336C144.527 29.336 143.935 29.5653 143.498 30.024C143.071 30.4827 142.858 31.1547 142.858 32.04V37H141.418V32.04C141.418 31.1547 141.204 30.4827 140.778 30.024C140.351 29.5653 139.759 29.336 139.002 29.336C138.255 29.336 137.663 29.5653 137.226 30.024C136.799 30.4827 136.586 31.1547 136.586 32.04V37H135.13V28.216H136.586V29.64C136.874 29.128 137.268 28.7387 137.77 28.472C138.271 28.2053 138.831 28.072 139.45 28.072C140.122 28.072 140.73 28.2373 141.274 28.568C141.818 28.888 142.228 29.3573 142.506 29.976C142.826 29.3787 143.258 28.9147 143.802 28.584C144.356 28.2427 144.986 28.072 145.69 28.072ZM155.058 28.072C155.805 28.072 156.456 28.248 157.01 28.6C157.576 28.952 158.002 29.4107 158.29 29.976V28.216H159.762V37H158.29V35.208C158.002 35.784 157.576 36.2533 157.01 36.616C156.456 36.968 155.805 37.144 155.058 37.144C154.269 37.144 153.554 36.952 152.914 36.568C152.285 36.1733 151.784 35.6293 151.41 34.936C151.048 34.232 150.866 33.4373 150.866 32.552C150.866 31.6667 151.048 30.888 151.41 30.216C151.784 29.5333 152.285 29.0053 152.914 28.632C153.554 28.2587 154.269 28.072 155.058 28.072ZM155.314 29.336C154.792 29.336 154.301 29.464 153.842 29.72C153.394 29.976 153.032 30.3493 152.754 30.84C152.488 31.32 152.354 31.8907 152.354 32.552C152.354 33.2133 152.488 33.8 152.754 34.312C153.032 34.8133 153.394 35.2027 153.842 35.48C154.301 35.7573 154.792 35.896 155.314 35.896C155.848 35.896 156.338 35.7627 156.786 35.496C157.245 35.2293 157.608 34.8507 157.874 34.36C158.152 33.8587 158.29 33.2773 158.29 32.616C158.29 31.9547 158.152 31.3787 157.874 30.888C157.608 30.3867 157.245 30.0027 156.786 29.736C156.338 29.4693 155.848 29.336 155.314 29.336ZM161.921 25.816C161.921 25.5387 162.017 25.304 162.209 25.112C162.401 24.92 162.63 24.824 162.897 24.824C163.174 24.824 163.409 24.92 163.601 25.112C163.793 25.304 163.889 25.5387 163.889 25.816C163.889 26.0933 163.793 26.328 163.601 26.52C163.409 26.712 163.174 26.808 162.897 26.808C162.62 26.808 162.385 26.712 162.193 26.52C162.012 26.328 161.921 26.0933 161.921 25.816ZM163.617 28.216V37H162.161V28.216H163.617ZM167.476 25.16V37H166.02V25.16H167.476ZM178.293 28.072C179.039 28.072 179.69 28.248 180.245 28.6C180.81 28.952 181.237 29.4107 181.525 29.976V28.216H182.997V37H181.525V35.208C181.237 35.784 180.81 36.2533 180.245 36.616C179.69 36.968 179.039 37.144 178.293 37.144C177.503 37.144 176.789 36.952 176.149 36.568C175.519 36.1733 175.018 35.6293 174.645 34.936C174.282 34.232 174.101 33.4373 174.101 32.552C174.101 31.6667 174.282 30.888 174.645 30.216C175.018 29.5333 175.519 29.0053 176.149 28.632C176.789 28.2587 177.503 28.072 178.293 28.072ZM178.549 29.336C178.026 29.336 177.535 29.464 177.077 29.72C176.629 29.976 176.266 30.3493 175.989 30.84C175.722 31.32 175.589 31.8907 175.589 32.552C175.589 33.2133 175.722 33.8 175.989 34.312C176.266 34.8133 176.629 35.2027 177.077 35.48C177.535 35.7573 178.026 35.896 178.549 35.896C179.082 35.896 179.573 35.7627 180.021 35.496C180.479 35.2293 180.842 34.8507 181.109 34.36C181.386 33.8587 181.525 33.2773 181.525 32.616C181.525 31.9547 181.386 31.3787 181.109 30.888C180.842 30.3867 180.479 30.0027 180.021 29.736C179.573 29.4693 179.082 29.336 178.549 29.336ZM189.011 28.072C189.758 28.072 190.409 28.248 190.963 28.6C191.529 28.952 191.955 29.4107 192.243 29.976V25.16H193.715V37H192.243V35.208C191.955 35.784 191.529 36.2533 190.963 36.616C190.409 36.968 189.758 37.144 189.011 37.144C188.222 37.144 187.507 36.952 186.867 36.568C186.238 36.1733 185.737 35.6293 185.363 34.936C185.001 34.232 184.819 33.4373 184.819 32.552C184.819 31.6667 185.001 30.888 185.363 30.216C185.737 29.5333 186.238 29.0053 186.867 28.632C187.507 28.2587 188.222 28.072 189.011 28.072ZM189.267 29.336C188.745 29.336 188.254 29.464 187.795 29.72C187.347 29.976 186.985 30.3493 186.707 30.84C186.441 31.32 186.307 31.8907 186.307 32.552C186.307 33.2133 186.441 33.8 186.707 34.312C186.985 34.8133 187.347 35.2027 187.795 35.48C188.254 35.7573 188.745 35.896 189.267 35.896C189.801 35.896 190.291 35.7627 190.739 35.496C191.198 35.2293 191.561 34.8507 191.827 34.36C192.105 33.8587 192.243 33.2773 192.243 32.616C192.243 31.9547 192.105 31.3787 191.827 30.888C191.561 30.3867 191.198 30.0027 190.739 29.736C190.291 29.4693 189.801 29.336 189.267 29.336ZM199.73 28.072C200.477 28.072 201.127 28.248 201.682 28.6C202.247 28.952 202.674 29.4107 202.962 29.976V25.16H204.434V37H202.962V35.208C202.674 35.784 202.247 36.2533 201.682 36.616C201.127 36.968 200.477 37.144 199.73 37.144C198.941 37.144 198.226 36.952 197.586 36.568C196.957 36.1733 196.455 35.6293 196.082 34.936C195.719 34.232 195.538 33.4373 195.538 32.552C195.538 31.6667 195.719 30.888 196.082 30.216C196.455 29.5333 196.957 29.0053 197.586 28.632C198.226 28.2587 198.941 28.072 199.73 28.072ZM199.986 29.336C199.463 29.336 198.973 29.464 198.514 29.72C198.066 29.976 197.703 30.3493 197.426 30.84C197.159 31.32 197.026 31.8907 197.026 32.552C197.026 33.2133 197.159 33.8 197.426 34.312C197.703 34.8133 198.066 35.2027 198.514 35.48C198.973 35.7573 199.463 35.896 199.986 35.896C200.519 35.896 201.01 35.7627 201.458 35.496C201.917 35.2293 202.279 34.8507 202.546 34.36C202.823 33.8587 202.962 33.2773 202.962 32.616C202.962 31.9547 202.823 31.3787 202.546 30.888C202.279 30.3867 201.917 30.0027 201.458 29.736C201.01 29.4693 200.519 29.336 199.986 29.336ZM208.289 29.704C208.811 28.616 209.702 28.072 210.961 28.072V29.592H210.577C209.83 29.592 209.259 29.7893 208.865 30.184C208.481 30.568 208.289 31.24 208.289 32.2V37H206.833V28.216H208.289V29.704ZM220.691 32.248C220.691 32.5573 220.67 32.8453 220.627 33.112H213.635C213.678 33.9867 213.95 34.68 214.451 35.192C214.963 35.6933 215.614 35.944 216.403 35.944C217.001 35.944 217.502 35.8107 217.907 35.544C218.323 35.2773 218.627 34.9253 218.819 34.488H220.387C220.11 35.256 219.63 35.8907 218.947 36.392C218.275 36.8933 217.427 37.144 216.403 37.144C215.582 37.144 214.846 36.9573 214.195 36.584C213.555 36.2107 213.054 35.6827 212.691 35C212.329 34.3067 212.147 33.512 212.147 32.616C212.147 31.7093 212.329 30.9147 212.691 30.232C213.054 29.5387 213.566 29.0053 214.227 28.632C214.889 28.2587 215.651 28.072 216.515 28.072C217.337 28.072 218.062 28.2533 218.691 28.616C219.321 28.9787 219.811 29.4747 220.163 30.104C220.515 30.7333 220.691 31.448 220.691 32.248ZM219.171 32.056C219.171 31.4907 219.049 31 218.803 30.584C218.558 30.1573 218.222 29.832 217.795 29.608C217.379 29.384 216.915 29.272 216.403 29.272C215.646 29.272 215.011 29.5227 214.499 30.024C213.987 30.5147 213.705 31.192 213.651 32.056H219.171ZM225.529 28.072C226.478 28.072 227.23 28.3227 227.785 28.824C228.339 29.3147 228.643 29.992 228.697 30.856H227.193C227.171 30.3653 227.006 29.9707 226.697 29.672C226.387 29.3733 225.961 29.224 225.417 29.224C224.862 29.224 224.425 29.3573 224.105 29.624C223.795 29.88 223.641 30.2053 223.641 30.6C223.641 30.9307 223.737 31.1973 223.929 31.4C224.131 31.592 224.377 31.736 224.665 31.832C224.963 31.928 225.363 32.0293 225.865 32.136C226.505 32.2853 227.017 32.4347 227.401 32.584C227.795 32.7227 228.131 32.9627 228.409 33.304C228.686 33.6347 228.825 34.088 228.825 34.664C228.825 35.144 228.686 35.576 228.409 35.96C228.131 36.3333 227.742 36.6267 227.241 36.84C226.739 37.0427 226.163 37.144 225.513 37.144C224.531 37.144 223.742 36.8987 223.145 36.408C222.558 35.9173 222.238 35.24 222.185 34.376H223.689C223.71 34.8667 223.881 35.2613 224.201 35.56C224.531 35.848 224.969 35.992 225.513 35.992C226.11 35.992 226.569 35.8693 226.889 35.624C227.219 35.3787 227.385 35.0533 227.385 34.648C227.385 34.3173 227.283 34.056 227.081 33.864C226.889 33.6613 226.643 33.512 226.345 33.416C226.046 33.3093 225.635 33.1973 225.113 33.08C224.483 32.9413 223.971 32.8027 223.577 32.664C223.193 32.5147 222.862 32.2853 222.585 31.976C222.318 31.6667 222.185 31.24 222.185 30.696C222.185 30.216 222.318 29.7787 222.585 29.384C222.862 28.9787 223.251 28.6587 223.753 28.424C224.265 28.1893 224.857 28.072 225.529 28.072ZM233.951 28.072C234.9 28.072 235.652 28.3227 236.207 28.824C236.761 29.3147 237.065 29.992 237.119 30.856H235.615C235.593 30.3653 235.428 29.9707 235.119 29.672C234.809 29.3733 234.383 29.224 233.839 29.224C233.284 29.224 232.847 29.3573 232.527 29.624C232.217 29.88 232.063 30.2053 232.063 30.6C232.063 30.9307 232.159 31.1973 232.351 31.4C232.553 31.592 232.799 31.736 233.087 31.832C233.385 31.928 233.785 32.0293 234.287 32.136C234.927 32.2853 235.439 32.4347 235.823 32.584C236.217 32.7227 236.553 32.9627 236.831 33.304C237.108 33.6347 237.247 34.088 237.247 34.664C237.247 35.144 237.108 35.576 236.831 35.96C236.553 36.3333 236.164 36.6267 235.663 36.84C235.161 37.0427 234.585 37.144 233.935 37.144C232.953 37.144 232.164 36.8987 231.567 36.408C230.98 35.9173 230.66 35.24 230.607 34.376H232.111C232.132 34.8667 232.303 35.2613 232.623 35.56C232.953 35.848 233.391 35.992 233.935 35.992C234.532 35.992 234.991 35.8693 235.311 35.624C235.641 35.3787 235.807 35.0533 235.807 34.648C235.807 34.3173 235.705 34.056 235.503 33.864C235.311 33.6613 235.065 33.512 234.767 33.416C234.468 33.3093 234.057 33.1973 233.535 33.08C232.905 32.9413 232.393 32.8027 231.999 32.664C231.615 32.5147 231.284 32.2853 231.007 31.976C230.74 31.6667 230.607 31.24 230.607 30.696C230.607 30.216 230.74 29.7787 231.007 29.384C231.284 28.9787 231.673 28.6587 232.175 28.424C232.687 28.1893 233.279 28.072 233.951 28.072ZM239.028 36.072C239.028 35.8053 239.119 35.5813 239.3 35.4C239.482 35.2187 239.7 35.128 239.956 35.128C240.212 35.128 240.431 35.2187 240.612 35.4C240.794 35.5813 240.884 35.8053 240.884 36.072C240.884 36.328 240.794 36.5467 240.612 36.728C240.431 36.9093 240.212 37 239.956 37C239.7 37 239.482 36.9093 239.3 36.728C239.119 36.5467 239.028 36.328 239.028 36.072ZM58.6873 56.424V61H57.2313V49.912H60.8313C61.6633 49.912 62.3673 50.056 62.9433 50.344C63.5193 50.6213 63.9513 51.0107 64.2393 51.512C64.5273 52.0027 64.6713 52.5573 64.6713 53.176C64.6713 54.1147 64.3513 54.8933 63.7113 55.512C63.0819 56.12 62.1219 56.424 60.8313 56.424H58.6873ZM60.8313 55.272C61.6313 55.272 62.2233 55.0907 62.6073 54.728C63.0019 54.3547 63.1993 53.8373 63.1993 53.176C63.1993 52.5147 63.0073 52.0027 62.6233 51.64C62.2393 51.2667 61.6419 51.08 60.8313 51.08H58.6873V55.272H60.8313ZM67.9373 49.16V61H66.4813V49.16H67.9373ZM78.3086 56.248C78.3086 56.5573 78.2873 56.8453 78.2446 57.112H71.2526C71.2953 57.9867 71.5673 58.68 72.0686 59.192C72.5806 59.6933 73.2313 59.944 74.0206 59.944C74.618 59.944 75.1193 59.8107 75.5246 59.544C75.9406 59.2773 76.2446 58.9253 76.4366 58.488H78.0046C77.7273 59.256 77.2473 59.8907 76.5646 60.392C75.8926 60.8933 75.0446 61.144 74.0206 61.144C73.1993 61.144 72.4633 60.9573 71.8126 60.584C71.1726 60.2107 70.6713 59.6827 70.3086 59C69.946 58.3067 69.7646 57.512 69.7646 56.616C69.7646 55.7093 69.946 54.9147 70.3086 54.232C70.6713 53.5387 71.1833 53.0053 71.8446 52.632C72.506 52.2587 73.2686 52.072 74.1326 52.072C74.954 52.072 75.6793 52.2533 76.3086 52.616C76.938 52.9787 77.4286 53.4747 77.7806 54.104C78.1326 54.7333 78.3086 55.448 78.3086 56.248ZM76.7886 56.056C76.7886 55.4907 76.666 55 76.4206 54.584C76.1753 54.1573 75.8393 53.832 75.4126 53.608C74.9966 53.384 74.5326 53.272 74.0206 53.272C73.2633 53.272 72.6286 53.5227 72.1166 54.024C71.6046 54.5147 71.322 55.192 71.2686 56.056H76.7886ZM83.7379 52.072C84.4845 52.072 85.1352 52.248 85.6899 52.6C86.2552 52.952 86.6819 53.4107 86.9699 53.976V52.216H88.4419V61H86.9699V59.208C86.6819 59.784 86.2552 60.2533 85.6899 60.616C85.1352 60.968 84.4845 61.144 83.7379 61.144C82.9485 61.144 82.2339 60.952 81.5939 60.568C80.9645 60.1733 80.4632 59.6293 80.0899 58.936C79.7272 58.232 79.5459 57.4373 79.5459 56.552C79.5459 55.6667 79.7272 54.888 80.0899 54.216C80.4632 53.5333 80.9645 53.0053 81.5939 52.632C82.2339 52.2587 82.9485 52.072 83.7379 52.072ZM83.9939 53.336C83.4712 53.336 82.9805 53.464 82.5219 53.72C82.0739 53.976 81.7112 54.3493 81.4339 54.84C81.1672 55.32 81.0339 55.8907 81.0339 56.552C81.0339 57.2133 81.1672 57.8 81.4339 58.312C81.7112 58.8133 82.0739 59.2027 82.5219 59.48C82.9805 59.7573 83.4712 59.896 83.9939 59.896C84.5272 59.896 85.0179 59.7627 85.4659 59.496C85.9245 59.2293 86.2872 58.8507 86.5539 58.36C86.8312 57.8587 86.9699 57.2773 86.9699 56.616C86.9699 55.9547 86.8312 55.3787 86.5539 54.888C86.2872 54.3867 85.9245 54.0027 85.4659 53.736C85.0179 53.4693 84.5272 53.336 83.9939 53.336ZM93.8646 52.072C94.814 52.072 95.566 52.3227 96.1206 52.824C96.6753 53.3147 96.9793 53.992 97.0326 54.856H95.5286C95.5073 54.3653 95.342 53.9707 95.0326 53.672C94.7233 53.3733 94.2966 53.224 93.7526 53.224C93.198 53.224 92.7606 53.3573 92.4406 53.624C92.1313 53.88 91.9766 54.2053 91.9766 54.6C91.9766 54.9307 92.0726 55.1973 92.2646 55.4C92.4673 55.592 92.7126 55.736 93.0006 55.832C93.2993 55.928 93.6993 56.0293 94.2006 56.136C94.8406 56.2853 95.3526 56.4347 95.7366 56.584C96.1313 56.7227 96.4673 56.9627 96.7446 57.304C97.022 57.6347 97.1606 58.088 97.1606 58.664C97.1606 59.144 97.022 59.576 96.7446 59.96C96.4673 60.3333 96.078 60.6267 95.5766 60.84C95.0753 61.0427 94.4993 61.144 93.8486 61.144C92.8673 61.144 92.078 60.8987 91.4806 60.408C90.894 59.9173 90.574 59.24 90.5206 58.376H92.0246C92.046 58.8667 92.2166 59.2613 92.5366 59.56C92.8673 59.848 93.3046 59.992 93.8486 59.992C94.446 59.992 94.9046 59.8693 95.2246 59.624C95.5553 59.3787 95.7206 59.0533 95.7206 58.648C95.7206 58.3173 95.6193 58.056 95.4166 57.864C95.2246 57.6613 94.9793 57.512 94.6806 57.416C94.382 57.3093 93.9713 57.1973 93.4486 57.08C92.8193 56.9413 92.3073 56.8027 91.9126 56.664C91.5286 56.5147 91.198 56.2853 90.9206 55.976C90.654 55.6667 90.5206 55.24 90.5206 54.696C90.5206 54.216 90.654 53.7787 90.9206 53.384C91.198 52.9787 91.5873 52.6587 92.0886 52.424C92.6006 52.1893 93.1926 52.072 93.8646 52.072ZM107.231 56.248C107.231 56.5573 107.209 56.8453 107.167 57.112H100.174C100.217 57.9867 100.489 58.68 100.991 59.192C101.503 59.6933 102.153 59.944 102.943 59.944C103.54 59.944 104.041 59.8107 104.447 59.544C104.863 59.2773 105.167 58.9253 105.359 58.488H106.927C106.649 59.256 106.169 59.8907 105.487 60.392C104.815 60.8933 103.967 61.144 102.943 61.144C102.121 61.144 101.385 60.9573 100.735 60.584C100.095 60.2107 99.5932 59.6827 99.2305 59C98.8678 58.3067 98.6865 57.512 98.6865 56.616C98.6865 55.7093 98.8678 54.9147 99.2305 54.232C99.5932 53.5387 100.105 53.0053 100.767 52.632C101.428 52.2587 102.191 52.072 103.055 52.072C103.876 52.072 104.601 52.2533 105.231 52.616C105.86 52.9787 106.351 53.4747 106.703 54.104C107.055 54.7333 107.231 55.448 107.231 56.248ZM105.711 56.056C105.711 55.4907 105.588 55 105.343 54.584C105.097 54.1573 104.761 53.832 104.335 53.608C103.919 53.384 103.455 53.272 102.943 53.272C102.185 53.272 101.551 53.5227 101.039 54.024C100.527 54.5147 100.244 55.192 100.191 56.056H105.711ZM121.809 56.248C121.809 56.5573 121.787 56.8453 121.745 57.112H114.753C114.795 57.9867 115.067 58.68 115.569 59.192C116.081 59.6933 116.731 59.944 117.521 59.944C118.118 59.944 118.619 59.8107 119.025 59.544C119.441 59.2773 119.745 58.9253 119.937 58.488H121.505C121.227 59.256 120.747 59.8907 120.065 60.392C119.393 60.8933 118.545 61.144 117.521 61.144C116.699 61.144 115.963 60.9573 115.313 60.584C114.673 60.2107 114.171 59.6827 113.809 59C113.446 58.3067 113.265 57.512 113.265 56.616C113.265 55.7093 113.446 54.9147 113.809 54.232C114.171 53.5387 114.683 53.0053 115.345 52.632C116.006 52.2587 116.769 52.072 117.633 52.072C118.454 52.072 119.179 52.2533 119.809 52.616C120.438 52.9787 120.929 53.4747 121.281 54.104C121.633 54.7333 121.809 55.448 121.809 56.248ZM120.289 56.056C120.289 55.4907 120.166 55 119.921 54.584C119.675 54.1573 119.339 53.832 118.913 53.608C118.497 53.384 118.033 53.272 117.521 53.272C116.763 53.272 116.129 53.5227 115.617 54.024C115.105 54.5147 114.822 55.192 114.769 56.056H120.289ZM127.942 52.072C128.571 52.072 129.142 52.216 129.654 52.504C130.177 52.7813 130.587 53.2027 130.886 53.768C131.195 54.3227 131.35 55 131.35 55.8V61H129.91V56.04C129.91 55.1547 129.697 54.4827 129.27 54.024C128.843 53.5653 128.251 53.336 127.494 53.336C126.747 53.336 126.155 53.5653 125.718 54.024C125.291 54.4827 125.078 55.1547 125.078 56.04V61H123.622V52.216H125.078V53.64C125.366 53.128 125.761 52.7387 126.262 52.472C126.763 52.2053 127.323 52.072 127.942 52.072ZM137.749 59.816V61H136.277C135.53 61 134.959 60.8187 134.565 60.456C134.181 60.0933 133.989 59.5227 133.989 58.744V53.4H132.853V52.216H133.989V50.04H135.461V52.216H137.733V53.4H135.461V58.744C135.461 59.1387 135.541 59.416 135.701 59.576C135.861 59.736 136.143 59.816 136.549 59.816H137.749ZM147.324 56.248C147.324 56.5573 147.303 56.8453 147.26 57.112H140.268C140.311 57.9867 140.583 58.68 141.084 59.192C141.596 59.6933 142.247 59.944 143.036 59.944C143.634 59.944 144.135 59.8107 144.54 59.544C144.956 59.2773 145.26 58.9253 145.452 58.488H147.02C146.743 59.256 146.263 59.8907 145.58 60.392C144.908 60.8933 144.06 61.144 143.036 61.144C142.215 61.144 141.479 60.9573 140.828 60.584C140.188 60.2107 139.687 59.6827 139.324 59C138.962 58.3067 138.78 57.512 138.78 56.616C138.78 55.7093 138.962 54.9147 139.324 54.232C139.687 53.5387 140.199 53.0053 140.86 52.632C141.522 52.2587 142.284 52.072 143.148 52.072C143.97 52.072 144.695 52.2533 145.324 52.616C145.954 52.9787 146.444 53.4747 146.796 54.104C147.148 54.7333 147.324 55.448 147.324 56.248ZM145.804 56.056C145.804 55.4907 145.682 55 145.436 54.584C145.191 54.1573 144.855 53.832 144.428 53.608C144.012 53.384 143.548 53.272 143.036 53.272C142.279 53.272 141.644 53.5227 141.132 54.024C140.62 54.5147 140.338 55.192 140.284 56.056H145.804ZM150.594 53.704C151.116 52.616 152.007 52.072 153.266 52.072V53.592H152.882C152.135 53.592 151.564 53.7893 151.17 54.184C150.786 54.568 150.594 55.24 150.594 56.2V61H149.138V52.216H150.594V53.704ZM159.585 49.816C159.585 49.5387 159.681 49.304 159.873 49.112C160.065 48.92 160.294 48.824 160.561 48.824C160.838 48.824 161.073 48.92 161.265 49.112C161.457 49.304 161.553 49.5387 161.553 49.816C161.553 50.0933 161.457 50.328 161.265 50.52C161.073 50.712 160.838 50.808 160.561 50.808C160.284 50.808 160.049 50.712 159.857 50.52C159.676 50.328 159.585 50.0933 159.585 49.816ZM161.281 52.216V61H159.825V52.216H161.281ZM167.764 59.816V61H166.292C165.546 61 164.975 60.8187 164.58 60.456C164.196 60.0933 164.004 59.5227 164.004 58.744V53.4H162.868V52.216H164.004V50.04H165.476V52.216H167.748V53.4H165.476V58.744C165.476 59.1387 165.556 59.416 165.716 59.576C165.876 59.736 166.159 59.816 166.564 59.816H167.764ZM178.873 52.072C179.662 52.072 180.371 52.2587 181.001 52.632C181.641 53.0053 182.142 53.5333 182.505 54.216C182.878 54.888 183.065 55.6667 183.065 56.552C183.065 57.4373 182.878 58.232 182.505 58.936C182.142 59.6293 181.641 60.1733 181.001 60.568C180.371 60.952 179.662 61.144 178.873 61.144C178.126 61.144 177.47 60.968 176.905 60.616C176.35 60.2533 175.923 59.784 175.625 59.208V61H174.169V49.16H175.625V53.976C175.923 53.4107 176.35 52.952 176.905 52.6C177.47 52.248 178.126 52.072 178.873 52.072ZM178.585 53.336C178.062 53.336 177.571 53.4693 177.113 53.736C176.665 54.0027 176.302 54.3867 176.025 54.888C175.758 55.3787 175.625 55.9547 175.625 56.616C175.625 57.2773 175.758 57.8587 176.025 58.36C176.302 58.8507 176.665 59.2293 177.113 59.496C177.571 59.7627 178.062 59.896 178.585 59.896C179.107 59.896 179.598 59.7627 180.057 59.496C180.515 59.2187 180.878 58.824 181.145 58.312C181.422 57.8 181.561 57.2133 181.561 56.552C181.561 55.8907 181.422 55.32 181.145 54.84C180.878 54.3493 180.515 53.976 180.057 53.72C179.609 53.464 179.118 53.336 178.585 53.336ZM192.856 56.248C192.856 56.5573 192.834 56.8453 192.792 57.112H185.799C185.842 57.9867 186.114 58.68 186.616 59.192C187.128 59.6933 187.778 59.944 188.568 59.944C189.165 59.944 189.666 59.8107 190.072 59.544C190.488 59.2773 190.792 58.9253 190.984 58.488H192.552C192.274 59.256 191.794 59.8907 191.112 60.392C190.44 60.8933 189.592 61.144 188.568 61.144C187.746 61.144 187.01 60.9573 186.36 60.584C185.72 60.2107 185.218 59.6827 184.856 59C184.493 58.3067 184.312 57.512 184.312 56.616C184.312 55.7093 184.493 54.9147 184.856 54.232C185.218 53.5387 185.73 53.0053 186.392 52.632C187.053 52.2587 187.816 52.072 188.68 52.072C189.501 52.072 190.226 52.2533 190.856 52.616C191.485 52.9787 191.976 53.4747 192.328 54.104C192.68 54.7333 192.856 55.448 192.856 56.248ZM191.336 56.056C191.336 55.4907 191.213 55 190.968 54.584C190.722 54.1573 190.386 53.832 189.96 53.608C189.544 53.384 189.08 53.272 188.568 53.272C187.81 53.272 187.176 53.5227 186.664 54.024C186.152 54.5147 185.869 55.192 185.816 56.056H191.336ZM196.125 49.16V61H194.669V49.16H196.125ZM202.384 52.072C203.216 52.072 203.968 52.2587 204.64 52.632C205.312 53.0053 205.84 53.5387 206.224 54.232C206.619 54.9253 206.816 55.72 206.816 56.616C206.816 57.5013 206.613 58.2907 206.208 58.984C205.803 59.6667 205.253 60.2 204.56 60.584C203.867 60.9573 203.099 61.144 202.256 61.144C201.435 61.144 200.693 60.9573 200.032 60.584C199.381 60.2107 198.869 59.6827 198.496 59C198.133 58.3067 197.952 57.512 197.952 56.616C197.952 55.7093 198.144 54.9147 198.528 54.232C198.923 53.5387 199.456 53.0053 200.128 52.632C200.8 52.2587 201.552 52.072 202.384 52.072ZM202.336 53.272C201.803 53.272 201.317 53.4 200.88 53.656C200.443 53.912 200.091 54.2907 199.824 54.792C199.568 55.2933 199.44 55.9013 199.44 56.616C199.44 57.32 199.563 57.9227 199.808 58.424C200.064 58.9253 200.405 59.304 200.832 59.56C201.259 59.816 201.733 59.944 202.256 59.944C202.789 59.944 203.285 59.816 203.744 59.56C204.213 59.2933 204.592 58.9093 204.88 58.408C205.168 57.9067 205.312 57.3093 205.312 56.616C205.312 55.912 205.173 55.3093 204.896 54.808C204.629 54.296 204.267 53.912 203.808 53.656C203.36 53.4 202.869 53.272 202.336 53.272ZM220.174 52.216L217.406 61H215.902L213.918 54.024L211.934 61H210.414L207.63 52.216H209.134L211.166 59.544L213.23 52.216H214.734L216.686 59.56L218.702 52.216H220.174ZM221.239 60.072C221.239 59.8053 221.33 59.5813 221.511 59.4C221.693 59.2187 221.911 59.128 222.167 59.128C222.423 59.128 222.642 59.2187 222.823 59.4C223.005 59.5813 223.095 59.8053 223.095 60.072C223.095 60.328 223.005 60.5467 222.823 60.728C222.642 60.9093 222.423 61 222.167 61C221.911 61 221.693 60.9093 221.511 60.728C221.33 60.5467 221.239 60.328 221.239 60.072Z" fill="#6C6C6C"/>
</svg>
