<svg width="105" height="30" viewBox="0 0 105 30" fill="none" xmlns="http://www.w3.org/2000/svg">
<rect width="105" height="30" rx="15" fill="#F7F7F7"/>
<path d="M19.25 9.75C19.6478 9.75 20.0294 9.90804 20.3107 10.1893C20.592 10.4706 20.75 10.8522 20.75 11.25V23.25L15.5 21L10.25 23.25V11.25C10.25 10.8522 10.408 10.4706 10.6893 10.1893C10.9706 9.90804 11.3522 9.75 11.75 9.75H19.25ZM14.75 6.75H22.25C22.6478 6.75 23.0294 6.90804 23.3107 7.18934C23.592 7.47064 23.75 7.85218 23.75 8.25V20.25L22.25 19.5975V8.25H13.25C13.25 7.85218 13.408 7.47064 13.6893 7.18934C13.9706 6.90804 14.3522 6.75 14.75 6.75Z" fill="#6C6C6C"/>
<path d="M40.944 14.728C41.48 14.816 41.912 15.056 42.24 15.448C42.568 15.84 42.732 16.292 42.732 16.804C42.732 17.212 42.62 17.584 42.396 17.92C42.18 18.256 41.864 18.52 41.448 18.712C41.04 18.904 40.564 19 40.02 19H36.9V10.684H39.876C40.444 10.684 40.928 10.78 41.328 10.972C41.728 11.164 42.028 11.428 42.228 11.764C42.436 12.092 42.54 12.468 42.54 12.892C42.54 13.356 42.4 13.744 42.12 14.056C41.84 14.36 41.448 14.584 40.944 14.728ZM37.992 14.296H39.828C40.332 14.296 40.724 14.176 41.004 13.936C41.292 13.688 41.436 13.356 41.436 12.94C41.436 12.516 41.292 12.18 41.004 11.932C40.724 11.684 40.332 11.56 39.828 11.56H37.992V14.296ZM39.96 18.136C40.488 18.136 40.9 18.004 41.196 17.74C41.5 17.476 41.652 17.112 41.652 16.648C41.652 16.192 41.488 15.832 41.16 15.568C40.84 15.304 40.412 15.172 39.876 15.172H37.992V18.136H39.96ZM47.1397 12.304C47.7637 12.304 48.3277 12.444 48.8317 12.724C49.3357 13.004 49.7317 13.404 50.0197 13.924C50.3157 14.444 50.4637 15.04 50.4637 15.712C50.4637 16.376 50.3117 16.968 50.0077 17.488C49.7037 18 49.2917 18.4 48.7717 18.688C48.2517 18.968 47.6757 19.108 47.0437 19.108C46.4277 19.108 45.8717 18.968 45.3757 18.688C44.8877 18.408 44.5037 18.012 44.2237 17.5C43.9517 16.98 43.8157 16.384 43.8157 15.712C43.8157 15.032 43.9597 14.436 44.2477 13.924C44.5437 13.404 44.9437 13.004 45.4477 12.724C45.9517 12.444 46.5157 12.304 47.1397 12.304ZM47.1037 13.204C46.7037 13.204 46.3397 13.3 46.0117 13.492C45.6837 13.684 45.4197 13.968 45.2197 14.344C45.0277 14.72 44.9317 15.176 44.9317 15.712C44.9317 16.24 45.0237 16.692 45.2077 17.068C45.3997 17.444 45.6557 17.728 45.9757 17.92C46.2957 18.112 46.6517 18.208 47.0437 18.208C47.4437 18.208 47.8157 18.112 48.1597 17.92C48.5117 17.72 48.7957 17.432 49.0117 17.056C49.2277 16.68 49.3357 16.232 49.3357 15.712C49.3357 15.184 49.2317 14.732 49.0237 14.356C48.8237 13.972 48.5517 13.684 48.2077 13.492C47.8717 13.3 47.5037 13.204 47.1037 13.204ZM54.7217 12.304C55.3457 12.304 55.9097 12.444 56.4137 12.724C56.9177 13.004 57.3137 13.404 57.6017 13.924C57.8977 14.444 58.0457 15.04 58.0457 15.712C58.0457 16.376 57.8937 16.968 57.5897 17.488C57.2857 18 56.8737 18.4 56.3537 18.688C55.8337 18.968 55.2577 19.108 54.6257 19.108C54.0097 19.108 53.4537 18.968 52.9577 18.688C52.4697 18.408 52.0857 18.012 51.8057 17.5C51.5337 16.98 51.3977 16.384 51.3977 15.712C51.3977 15.032 51.5417 14.436 51.8297 13.924C52.1257 13.404 52.5257 13.004 53.0297 12.724C53.5337 12.444 54.0977 12.304 54.7217 12.304ZM54.6857 13.204C54.2857 13.204 53.9217 13.3 53.5937 13.492C53.2657 13.684 53.0017 13.968 52.8017 14.344C52.6097 14.72 52.5137 15.176 52.5137 15.712C52.5137 16.24 52.6057 16.692 52.7897 17.068C52.9817 17.444 53.2377 17.728 53.5577 17.92C53.8777 18.112 54.2337 18.208 54.6257 18.208C55.0257 18.208 55.3977 18.112 55.7417 17.92C56.0937 17.72 56.3777 17.432 56.5937 17.056C56.8097 16.68 56.9177 16.232 56.9177 15.712C56.9177 15.184 56.8137 14.732 56.6057 14.356C56.4057 13.972 56.1337 13.684 55.7897 13.492C55.4537 13.3 55.0857 13.204 54.6857 13.204ZM61.4517 15.688L64.5597 19H63.0837L60.5037 16.108V19H59.4117V10.12H60.5037V15.328L63.0237 12.412H64.5597L61.4517 15.688ZM73.4841 12.304C73.9641 12.304 74.4001 12.412 74.7921 12.628C75.1841 12.836 75.4921 13.152 75.7161 13.576C75.9481 13.992 76.0641 14.5 76.0641 15.1V19H74.9841V15.28C74.9841 14.616 74.8201 14.112 74.4921 13.768C74.1721 13.424 73.7321 13.252 73.1721 13.252C72.6121 13.252 72.1681 13.424 71.8401 13.768C71.5201 14.112 71.3601 14.616 71.3601 15.28V19H70.2801V15.28C70.2801 14.616 70.1201 14.112 69.8001 13.768C69.4801 13.424 69.0361 13.252 68.4681 13.252C67.9081 13.252 67.4641 13.424 67.1361 13.768C66.8161 14.112 66.6561 14.616 66.6561 15.28V19H65.5641V12.412H66.6561V13.48C66.8721 13.096 67.1681 12.804 67.5441 12.604C67.9201 12.404 68.3401 12.304 68.8041 12.304C69.3081 12.304 69.7641 12.428 70.1721 12.676C70.5801 12.916 70.8881 13.268 71.0961 13.732C71.3361 13.284 71.6601 12.936 72.0681 12.688C72.4841 12.432 72.9561 12.304 73.4841 12.304ZM80.5104 12.304C81.0704 12.304 81.5584 12.436 81.9744 12.7C82.3984 12.964 82.7184 13.308 82.9344 13.732V12.412H84.0384V19H82.9344V17.656C82.7184 18.088 82.3984 18.44 81.9744 18.712C81.5584 18.976 81.0704 19.108 80.5104 19.108C79.9184 19.108 79.3824 18.964 78.9024 18.676C78.4304 18.38 78.0544 17.972 77.7744 17.452C77.5024 16.924 77.3664 16.328 77.3664 15.664C77.3664 15 77.5024 14.416 77.7744 13.912C78.0544 13.4 78.4304 13.004 78.9024 12.724C79.3824 12.444 79.9184 12.304 80.5104 12.304ZM80.7024 13.252C80.3104 13.252 79.9424 13.348 79.5984 13.54C79.2624 13.732 78.9904 14.012 78.7824 14.38C78.5824 14.74 78.4824 15.168 78.4824 15.664C78.4824 16.16 78.5824 16.6 78.7824 16.984C78.9904 17.36 79.2624 17.652 79.5984 17.86C79.9424 18.068 80.3104 18.172 80.7024 18.172C81.1024 18.172 81.4704 18.072 81.8064 17.872C82.1504 17.672 82.4224 17.388 82.6224 17.02C82.8304 16.644 82.9344 16.208 82.9344 15.712C82.9344 15.216 82.8304 14.784 82.6224 14.416C82.4224 14.04 82.1504 13.752 81.8064 13.552C81.4704 13.352 81.1024 13.252 80.7024 13.252ZM86.9295 13.528C87.3215 12.712 87.9895 12.304 88.9335 12.304V13.444H88.6455C88.0855 13.444 87.6575 13.592 87.3615 13.888C87.0735 14.176 86.9295 14.68 86.9295 15.4V19H85.8375V12.412H86.9295V13.528ZM92.2955 15.688L95.4035 19H93.9275L91.3475 16.108V19H90.2555V10.12H91.3475V15.328L93.8675 12.412H95.4035L92.2955 15.688Z" fill="#6C6C6C"/>
</svg>
