<svg width="107" height="32" viewBox="0 0 107 32" fill="none" xmlns="http://www.w3.org/2000/svg">
<rect width="107" height="32" rx="15" fill="#F7F7F7"/>
<path d="M11.333 24.3333V12.6666L16.333 7.66663H24.6663V24.3333H11.333ZM17.9997 20.1666L21.333 16.8333L20.1663 15.6666L18.833 16.9583V13.5H17.1663V16.9583L15.833 15.6666L14.6663 16.8333L17.9997 20.1666Z" fill="#6C6C6C"/>
<path d="M45.872 15.884C45.872 16.74 45.696 17.48 45.344 18.104C44.992 18.72 44.488 19.192 43.832 19.52C43.184 19.84 42.416 20 41.528 20H38.9V11.684H41.528C42.416 11.684 43.184 11.856 43.832 12.2C44.488 12.536 44.992 13.02 45.344 13.652C45.696 14.276 45.872 15.02 45.872 15.884ZM41.528 19.16C42.576 19.16 43.376 18.872 43.928 18.296C44.48 17.72 44.756 16.916 44.756 15.884C44.756 14.852 44.48 14.048 43.928 13.472C43.376 12.896 42.576 12.608 41.528 12.608H39.992V19.16H41.528ZM50.1475 13.304C50.7715 13.304 51.3355 13.444 51.8395 13.724C52.3435 14.004 52.7395 14.404 53.0275 14.924C53.3235 15.444 53.4715 16.04 53.4715 16.712C53.4715 17.376 53.3195 17.968 53.0155 18.488C52.7115 19 52.2995 19.4 51.7795 19.688C51.2595 19.968 50.6835 20.108 50.0515 20.108C49.4355 20.108 48.8795 19.968 48.3835 19.688C47.8955 19.408 47.5115 19.012 47.2315 18.5C46.9595 17.98 46.8235 17.384 46.8235 16.712C46.8235 16.032 46.9675 15.436 47.2555 14.924C47.5515 14.404 47.9515 14.004 48.4555 13.724C48.9595 13.444 49.5235 13.304 50.1475 13.304ZM50.1115 14.204C49.7115 14.204 49.3475 14.3 49.0195 14.492C48.6915 14.684 48.4275 14.968 48.2275 15.344C48.0355 15.72 47.9395 16.176 47.9395 16.712C47.9395 17.24 48.0315 17.692 48.2155 18.068C48.4075 18.444 48.6635 18.728 48.9835 18.92C49.3035 19.112 49.6595 19.208 50.0515 19.208C50.4515 19.208 50.8235 19.112 51.1675 18.92C51.5195 18.72 51.8035 18.432 52.0195 18.056C52.2355 17.68 52.3435 17.232 52.3435 16.712C52.3435 16.184 52.2395 15.732 52.0315 15.356C51.8315 14.972 51.5595 14.684 51.2155 14.492C50.8795 14.3 50.5115 14.204 50.1115 14.204ZM63.4895 13.412L61.4135 20H60.2855L58.7975 14.768L57.3095 20H56.1695L54.0815 13.412H55.2095L56.7335 18.908L58.2815 13.412H59.4095L60.8735 18.92L62.3855 13.412H63.4895ZM67.7689 13.304C68.2409 13.304 68.6689 13.412 69.0529 13.628C69.4449 13.836 69.7529 14.152 69.9769 14.576C70.2089 14.992 70.3249 15.5 70.3249 16.1V20H69.2449V16.28C69.2449 15.616 69.0849 15.112 68.7649 14.768C68.4449 14.424 68.0009 14.252 67.4329 14.252C66.8729 14.252 66.4289 14.424 66.1009 14.768C65.7809 15.112 65.6209 15.616 65.6209 16.28V20H64.5289V13.412H65.6209V14.48C65.8369 14.096 66.1329 13.804 66.5089 13.604C66.8849 13.404 67.3049 13.304 67.7689 13.304ZM73.1561 11.12V20H72.0641V11.12H73.1561ZM77.8506 13.304C78.4746 13.304 79.0386 13.444 79.5426 13.724C80.0466 14.004 80.4426 14.404 80.7306 14.924C81.0266 15.444 81.1746 16.04 81.1746 16.712C81.1746 17.376 81.0226 17.968 80.7186 18.488C80.4146 19 80.0026 19.4 79.4826 19.688C78.9626 19.968 78.3866 20.108 77.7546 20.108C77.1386 20.108 76.5826 19.968 76.0866 19.688C75.5986 19.408 75.2146 19.012 74.9346 18.5C74.6626 17.98 74.5266 17.384 74.5266 16.712C74.5266 16.032 74.6706 15.436 74.9586 14.924C75.2546 14.404 75.6546 14.004 76.1586 13.724C76.6626 13.444 77.2266 13.304 77.8506 13.304ZM77.8146 14.204C77.4146 14.204 77.0506 14.3 76.7226 14.492C76.3946 14.684 76.1306 14.968 75.9306 15.344C75.7386 15.72 75.6426 16.176 75.6426 16.712C75.6426 17.24 75.7346 17.692 75.9186 18.068C76.1106 18.444 76.3666 18.728 76.6866 18.92C77.0066 19.112 77.3626 19.208 77.7546 19.208C78.1546 19.208 78.5266 19.112 78.8706 18.92C79.2226 18.72 79.5066 18.432 79.7226 18.056C79.9386 17.68 80.0466 17.232 80.0466 16.712C80.0466 16.184 79.9426 15.732 79.7346 15.356C79.5346 14.972 79.2626 14.684 78.9186 14.492C78.5826 14.3 78.2146 14.204 77.8146 14.204ZM85.2526 13.304C85.8126 13.304 86.3006 13.436 86.7166 13.7C87.1406 13.964 87.4606 14.308 87.6766 14.732V13.412H88.7806V20H87.6766V18.656C87.4606 19.088 87.1406 19.44 86.7166 19.712C86.3006 19.976 85.8126 20.108 85.2526 20.108C84.6606 20.108 84.1246 19.964 83.6446 19.676C83.1726 19.38 82.7966 18.972 82.5166 18.452C82.2446 17.924 82.1086 17.328 82.1086 16.664C82.1086 16 82.2446 15.416 82.5166 14.912C82.7966 14.4 83.1726 14.004 83.6446 13.724C84.1246 13.444 84.6606 13.304 85.2526 13.304ZM85.4446 14.252C85.0526 14.252 84.6846 14.348 84.3406 14.54C84.0046 14.732 83.7326 15.012 83.5246 15.38C83.3246 15.74 83.2246 16.168 83.2246 16.664C83.2246 17.16 83.3246 17.6 83.5246 17.984C83.7326 18.36 84.0046 18.652 84.3406 18.86C84.6846 19.068 85.0526 19.172 85.4446 19.172C85.8446 19.172 86.2126 19.072 86.5486 18.872C86.8926 18.672 87.1646 18.388 87.3646 18.02C87.5726 17.644 87.6766 17.208 87.6766 16.712C87.6766 16.216 87.5726 15.784 87.3646 15.416C87.1646 15.04 86.8926 14.752 86.5486 14.552C86.2126 14.352 85.8446 14.252 85.4446 14.252ZM93.2917 13.304C93.8517 13.304 94.3397 13.436 94.7557 13.7C95.1797 13.964 95.4997 14.308 95.7157 14.732V11.12H96.8197V20H95.7157V18.656C95.4997 19.088 95.1797 19.44 94.7557 19.712C94.3397 19.976 93.8517 20.108 93.2917 20.108C92.6997 20.108 92.1637 19.964 91.6837 19.676C91.2117 19.38 90.8357 18.972 90.5557 18.452C90.2837 17.924 90.1477 17.328 90.1477 16.664C90.1477 16 90.2837 15.416 90.5557 14.912C90.8357 14.4 91.2117 14.004 91.6837 13.724C92.1637 13.444 92.6997 13.304 93.2917 13.304ZM93.4837 14.252C93.0917 14.252 92.7237 14.348 92.3797 14.54C92.0437 14.732 91.7717 15.012 91.5637 15.38C91.3637 15.74 91.2637 16.168 91.2637 16.664C91.2637 17.16 91.3637 17.6 91.5637 17.984C91.7717 18.36 92.0437 18.652 92.3797 18.86C92.7237 19.068 93.0917 19.172 93.4837 19.172C93.8837 19.172 94.2517 19.072 94.5877 18.872C94.9317 18.672 95.2037 18.388 95.4037 18.02C95.6117 17.644 95.7157 17.208 95.7157 16.712C95.7157 16.216 95.6117 15.784 95.4037 15.416C95.2037 15.04 94.9317 14.752 94.5877 14.552C94.2517 14.352 93.8837 14.252 93.4837 14.252Z" fill="#6C6C6C"/>
</svg>
