<svg width="14" height="18" viewBox="0 0 14 18" fill="none" xmlns="http://www.w3.org/2000/svg">
<path d="M9.25 3.75C9.64782 3.75 10.0294 3.90804 10.3107 4.18934C10.592 4.47064 10.75 4.85218 10.75 5.25V17.25L5.5 15L0.25 17.25V5.25C0.25 4.85218 0.408035 4.47064 0.68934 4.18934C0.970644 3.90804 1.35218 3.75 1.75 3.75H9.25ZM4.75 0.75H12.25C12.6478 0.75 13.0294 0.908035 13.3107 1.18934C13.592 1.47064 13.75 1.85218 13.75 2.25V14.25L12.25 13.5975V2.25H3.25C3.25 1.85218 3.40804 1.47064 3.68934 1.18934C3.97064 0.908035 4.35218 0.75 4.75 0.75Z" fill="white"/>
</svg>
